<?xml version="1.0" encoding="utf-8"?>
<!-- Generator: Adobe Illustrator 27.5.0, SVG Export Plug-In . SVG Version: 6.00 Build 0)  -->
<svg version="1.1" xmlns="http://www.w3.org/2000/svg" xmlns:xlink="http://www.w3.org/1999/xlink" x="0px" y="0px"
	 viewBox="0 0 500 500" style="enable-background:new 0 0 500 500;" xml:space="preserve">
<g id="BACKGROUND">
	<rect style="fill:#F2EBD6;" width="500" height="500"/>
</g>
<g id="OBJECTS">
	<path style="fill:#E8E1C8;" d="M470.488,422.144c0,4.854-3.936,8.79-8.789,8.79H38.302c-4.854,0-8.79-3.936-8.79-8.79l0,0
		c0-4.854,3.936-8.79,8.79-8.79h423.397C466.553,413.353,470.488,417.289,470.488,422.144L470.488,422.144z"/>
	<g>
		<g>
			<path style="fill:#282740;" d="M293.108,419.783c0,0.635-0.519,1.154-1.153,1.154H191.061c-0.635,0-1.153-0.52-1.153-1.154
				v-4.035c0-0.635,0.519-1.152,1.153-1.152h100.895c0.635,0,1.153,0.518,1.153,1.152V419.783z"/>
			<g>
				<path style="fill:#53538C;" d="M259.879,384.682h-17.338h-2.066h-17.338c0,16.691-25.093,30.756-25.093,30.756h42.431h2.066
					h42.431C284.972,415.438,259.879,401.373,259.879,384.682z"/>
				<path style="opacity:0.4;fill:#282740;" d="M259.879,384.682h-17.338h-2.066h-7.447c5.227,9.682,14.355,21.598,29.98,30.756
					h21.965C284.972,415.438,259.879,401.373,259.879,384.682z"/>
			</g>
		</g>
		<g>
			<g>
				<path style="fill:#282740;" d="M397.5,382.682c0,1.1-0.9,2-2,2H87.516c-1.1,0-2-0.9-2-2V196.192c0-1.1,0.9-2,2-2H395.5
					c1.1,0,2,0.9,2,2V382.682z"/>
				<g>
					<g>
						<path style="fill:#48CAD9;" d="M385.705,372.182c0,1.1-0.9,2-2,2H99.311c-1.1,0-2-0.9-2-2V206.692c0-1.1,0.9-2,2-2h284.395
							c1.1,0,2,0.9,2,2V372.182z"/>
						<path style="fill:#1EB3BA;" d="M385.705,218.438v-11.745c0-1.1-0.9-2-2-2H99.311c-1.1,0-2,0.9-2,2v11.745H385.705z"/>
					</g>
					<g>
						<circle style="fill:#FFFFFF;" cx="118.121" cy="211.565" r="2.884"/>
						<circle style="fill:#FFFFFF;" cx="106.121" cy="211.565" r="2.884"/>
						<circle style="fill:#FFFFFF;" cx="130.121" cy="211.565" r="2.884"/>
					</g>
					<g>
						<g>
							<rect x="119.08" y="229.092" style="fill:#76E0E5;" width="244.855" height="49.346"/>
							<rect x="119.08" y="286.438" style="fill:#76E0E5;" width="103.158" height="32.879"/>
							<g>
								<g>
									<rect x="119.08" y="326.594" style="fill:#76E0E5;" width="103.158" height="4.852"/>
									<rect x="119.08" y="336.594" style="fill:#76E0E5;" width="103.158" height="4.852"/>
								</g>
								<g>
									<rect x="119.08" y="346.594" style="fill:#76E0E5;" width="103.158" height="4.852"/>
									<rect x="119.08" y="356.594" style="fill:#76E0E5;" width="103.158" height="4.852"/>
								</g>
							</g>
						</g>
						<rect x="231.508" y="286.438" style="fill:#76E0E5;" width="51" height="55.008"/>
						<g>
							<rect x="230.929" y="346.594" style="fill:#76E0E5;" width="51.499" height="4.852"/>
							<rect x="230.929" y="356.594" style="fill:#76E0E5;" width="51.499" height="4.852"/>
						</g>
						<rect x="293.108" y="286.438" style="fill:#76E0E5;" width="70.827" height="32.879"/>
						<g>
							<g>
								<rect x="293.108" y="326.594" style="fill:#76E0E5;" width="69.593" height="4.852"/>
								<rect x="293.108" y="336.594" style="fill:#76E0E5;" width="69.593" height="4.852"/>
							</g>
							<g>
								<rect x="293.108" y="346.594" style="fill:#76E0E5;" width="69.593" height="4.852"/>
								<rect x="293.108" y="356.594" style="fill:#76E0E5;" width="69.593" height="4.852"/>
							</g>
						</g>
					</g>
				</g>
			</g>
			<path style="opacity:0.1;fill:#282740;" d="M397.5,382.682V196.192c0-1.1-0.9-2-2-2h-27.063
				c-8.284,148.477-158.596,190.489-158.596,190.489H395.5C396.6,384.682,397.5,383.781,397.5,382.682z"/>
		</g>
	</g>
	<g>
		<g>
			<g>
				<path style="fill:#282740;" d="M111.576,323.025c-1.1,0-2.269,0.857-2.598,1.908l-3.805,12.147
					c-0.328,1.049-1.497,1.908-2.598,1.908H60.909c-1.1,0-1.84,0.885-1.645,1.967l12.289,68.014
					c0.195,1.082,1.256,1.969,2.355,1.969h66.002c1.1,0,2.132-0.891,2.292-1.978l12.415-83.955c0.161-1.088-0.607-1.979-1.707-1.979
					H111.576z"/>
				<g>
					<polygon style="fill:#FFFFFF;" points="140.436,388.772 73.437,388.772 73.437,293.772 127.576,293.772 140.436,306.772 					
						"/>
					<polygon style="fill:#F4F0E1;" points="127.576,293.772 140.436,306.772 127.576,306.772 					"/>
					<g>
						<g>
							<g>
								<rect x="79.604" y="318.938" style="fill:#B7E5E5;" width="54.667" height="1.572"/>
								<rect x="79.604" y="325.225" style="fill:#B7E5E5;" width="54.667" height="1.572"/>
							</g>
							<g>
								<rect x="79.604" y="331.512" style="fill:#B7E5E5;" width="54.667" height="1.572"/>
								<rect x="79.604" y="337.799" style="fill:#B7E5E5;" width="54.667" height="1.572"/>
							</g>
							<g>
								<rect x="79.604" y="344.086" style="fill:#B7E5E5;" width="54.667" height="1.572"/>
								<rect x="79.604" y="350.373" style="fill:#B7E5E5;" width="54.667" height="1.572"/>
							</g>
						</g>
						<g>
							<path style="fill:#ED6332;" d="M88.842,308.277c0-3.088,2.361-5.275,5.579-5.275c1.87,0,3.377,0.683,4.363,1.914
								l-1.826,1.652c-0.638-0.77-1.42-1.189-2.392-1.189c-1.667,0-2.826,1.16-2.826,2.898c0,1.74,1.159,2.898,2.826,2.898
								c0.972,0,1.754-0.42,2.392-1.19l1.826,1.654c-0.985,1.232-2.493,1.912-4.363,1.912
								C91.204,313.553,88.842,311.365,88.842,308.277z"/>
							<path style="fill:#ED6332;" d="M110.763,313.35l-0.029-5.375l-2.608,4.375h-1.276l-2.593-4.23v5.23h-2.652v-10.145h2.363
								l3.564,5.855l3.479-5.855h2.361l0.029,10.145H110.763z"/>
							<path style="fill:#ED6332;" d="M116.263,312.438l0.942-2.115c0.898,0.594,2.174,1,3.349,1c1.188,0,1.651-0.334,1.651-0.828
								c0-1.607-5.767-0.436-5.767-4.203c0-1.81,1.477-3.289,4.492-3.289c1.319,0,2.681,0.305,3.68,0.885l-0.883,2.129
								c-0.972-0.521-1.929-0.779-2.811-0.779c-1.204,0-1.639,0.404-1.639,0.91c0,1.551,5.754,0.393,5.754,4.131
								c0,1.768-1.477,3.275-4.492,3.275C118.873,313.553,117.22,313.103,116.263,312.438z"/>
						</g>
					</g>
				</g>
				<path style="fill:#53538C;" d="M111.576,333.025c-1.1,0-2.269,0.857-2.598,1.908l-3.805,12.147
					c-0.328,1.049-1.497,1.908-2.598,1.908H60.909c-1.1,0-1.84,0.885-1.645,1.967l12.289,68.014
					c0.195,1.082,1.256,1.969,2.355,1.969h66.002c1.1,0,2.132-0.891,2.292-1.978l12.415-83.955c0.161-1.088-0.607-1.979-1.707-1.979
					H111.576z"/>
			</g>
			<path style="opacity:0.4;fill:#282740;" d="M142.203,418.959l12.415-83.955c0.161-1.088-0.607-1.979-1.707-1.979h-4.007
				c-6.714,63.836-54.977,79.629-77.786,83.531l0.436,2.412c0.195,1.082,1.256,1.969,2.355,1.969h66.002
				C141.011,420.938,142.043,420.047,142.203,418.959z"/>
		</g>
		<g>
			<g>
				<g>
					<path style="fill:#282740;" d="M435.468,418.725c0,1.057-0.865,1.922-1.922,1.922H313.282c-1.056,0-1.921-0.865-1.921-1.922
						v-87.357c0-1.057,0.865-1.922,1.921-1.922h120.264c1.057,0,1.922,0.865,1.922,1.922V418.725z"/>
					<path style="fill:#53538C;" d="M430.596,408.57c0,0.975-0.797,1.771-1.771,1.771H318.004c-0.974,0-1.771-0.797-1.771-1.771
						v-73.775c0-0.973,0.797-1.77,1.771-1.77h110.821c0.974,0,1.771,0.797,1.771,1.77V408.57z"/>
					<g>
						<g>
							<path style="fill:#53538C;" d="M430.596,415.117c0,0.373-0.303,0.676-0.677,0.676H316.91c-0.374,0-0.677-0.303-0.677-0.676
								l0,0c0-0.373,0.303-0.676,0.677-0.676h113.009C430.293,414.441,430.596,414.744,430.596,415.117L430.596,415.117z"/>
							<path style="fill:#ED6332;" d="M392.166,415.117c0,0.373-0.304,0.676-0.677,0.676H316.91c-0.374,0-0.677-0.303-0.677-0.676
								l0,0c0-0.373,0.303-0.676,0.677-0.676h74.579C391.862,414.441,392.166,414.744,392.166,415.117L392.166,415.117z"/>
						</g>
						<path style="fill:#ED6332;" d="M393.892,415.193c0,1.459-1.184,2.643-2.643,2.643c-1.459,0-2.642-1.184-2.642-2.643
							c0-1.459,1.183-2.643,2.642-2.643C392.708,412.551,393.892,413.734,393.892,415.193z"/>
					</g>
				</g>
				<g>
					<path style="opacity:0.2;fill:#48CAD9;" d="M403.838,372.766c0,16.803-13.621,30.426-30.424,30.426
						c-16.803,0-30.425-13.623-30.425-30.426c0-16.803,13.622-30.424,30.425-30.424
						C390.217,342.342,403.838,355.963,403.838,372.766z"/>
					<path style="fill:#48CAD9;" d="M397.192,372.766c0,13.133-10.646,23.779-23.778,23.779c-13.132,0-23.778-10.646-23.778-23.779
						c0-13.131,10.647-23.777,23.778-23.777C386.547,348.988,397.192,359.635,397.192,372.766z"/>
					<polygon style="fill:#53538C;" points="368.716,362.799 368.716,382.734 381.705,372.975 					"/>
				</g>
			</g>
			<path style="opacity:0.2;fill:#282740;" d="M433.546,420.647c1.057,0,1.922-0.865,1.922-1.922v-87.357
				c0-1.057-0.865-1.922-1.922-1.922h-11.267c0.009,60.494-31.184,83.311-47.959,91.201H433.546z"/>
		</g>
		<g>
			<path style="fill:#FFFFFF;" d="M345.443,221.315c0,0.54-0.442,0.982-0.983,0.982H223.482c-0.541,0-0.982-0.442-0.982-0.982
				v-79.623c0-0.54,0.441-0.982,0.982-0.982h120.978c0.54,0,0.983,0.442,0.983,0.982V221.315z"/>
			<g>
				<g>
					<path style="fill:#53538C;" d="M340.967,216.63c0,0.493-0.402,0.896-0.897,0.896H227.871c-0.492,0-0.896-0.403-0.896-0.896
						v-70.253c0-0.492,0.404-0.896,0.896-0.896H340.07c0.494,0,0.897,0.404,0.897,0.896V216.63z"/>
					<path style="fill:#48CAD9;" d="M316.137,170.124c-2.6-3.01-6.856-3.01-9.458,0l-32.112,37.148
						c-2.601,3.007-6.857,3.007-9.457,0l-14.606-16.898c-2.599-3.008-6.855-3.008-9.457,0l-14.072,16.279v10.923
						c0,0.493,0.404,0.896,0.896,0.896H340.07c0.494,0,0.897-0.403,0.897-0.896v-18.729L316.137,170.124z"/>
				</g>
				<path style="fill:#48CAD9;" d="M278.907,167.012c0,6.532-5.296,11.828-11.828,11.828c-6.533,0-11.829-5.296-11.829-11.828
					c0-6.533,5.296-11.829,11.829-11.829C273.611,155.183,278.907,160.479,278.907,167.012z"/>
			</g>
			<path style="opacity:0.1;fill:#282740;" d="M344.461,222.298c0.54,0,0.983-0.442,0.983-0.982v-79.623
				c0-0.54-0.442-0.982-0.983-0.982h-14.34c-2.592,47.814-22.003,70.702-38.614,81.588H344.461z"/>
		</g>
		<g>
			<g>
				<g>
					<path style="fill:#282740;" d="M240.224,299.285c0,0.586-0.48,1.066-1.066,1.066h-81.45c-0.586,0-1.065-0.48-1.065-1.066
						v-58.128c0-0.586,0.479-1.065,1.065-1.065h81.45c0.586,0,1.066,0.48,1.066,1.065V299.285z"/>
					<path style="fill:#53538C;" d="M240.224,247.412v-6.255c0-0.586-0.48-1.065-1.066-1.065h-81.45
						c-0.586,0-1.065,0.48-1.065,1.065v6.255H240.224z"/>
				</g>
				<g>
					<path style="fill:#FFFFFF;" d="M169.259,243.752c0,0.848-0.686,1.536-1.534,1.536c-0.85,0-1.536-0.689-1.536-1.536
						c0-0.849,0.687-1.536,1.536-1.536C168.572,242.216,169.259,242.903,169.259,243.752z"/>
					<path style="fill:#FFFFFF;" d="M162.869,243.752c0,0.848-0.688,1.536-1.535,1.536c-0.849,0-1.537-0.689-1.537-1.536
						c0-0.849,0.689-1.536,1.537-1.536C162.181,242.216,162.869,242.903,162.869,243.752z"/>
					<path style="fill:#FFFFFF;" d="M175.65,243.752c0,0.848-0.688,1.536-1.535,1.536c-0.849,0-1.537-0.689-1.537-1.536
						c0-0.849,0.689-1.536,1.537-1.536C174.962,242.216,175.65,242.903,175.65,243.752z"/>
				</g>
			</g>
			<g>
				<rect x="180.321" y="262.022" style="fill:#FFFFFF;" width="53.93" height="2.166"/>
				<g>
					<rect x="162.614" y="255.021" style="fill:#76E0E5;" width="15.991" height="2.166"/>
					<rect x="162.614" y="269.022" style="fill:#76E0E5;" width="8.462" height="2.166"/>
					<rect x="162.614" y="276.022" style="fill:#76E0E5;" width="15.991" height="2.166"/>
					<rect x="162.614" y="283.022" style="fill:#76E0E5;" width="12.438" height="2.166"/>
					<g>
						<rect x="187.746" y="255.021" style="fill:#FFFFFF;" width="31.053" height="2.166"/>
						<rect x="162.614" y="262.022" style="fill:#76E0E5;" width="12.438" height="2.166"/>
						<rect x="174.661" y="269.022" style="fill:#FFFFFF;" width="36.691" height="2.166"/>
						<rect x="187.746" y="276.022" style="fill:#FFFFFF;" width="31.053" height="2.166"/>
						<rect x="180.321" y="283.022" style="fill:#FFFFFF;" width="53.93" height="2.166"/>
						<rect x="162.614" y="290.022" style="fill:#76E0E5;" width="8.462" height="2.166"/>
						<rect x="174.661" y="290.022" style="fill:#FFFFFF;" width="36.691" height="2.166"/>
					</g>
				</g>
			</g>
			<path style="opacity:0.4;fill:#282740;" d="M240.224,241.157c0-0.586-0.48-1.065-1.066-1.065h-19.989
				c-0.482,37.268-26.007,54.365-37.735,60.26h57.725c0.586,0,1.066-0.48,1.066-1.066V241.157z"/>
		</g>
		<g>
			<g>
				<g>
					<g>
						<path style="fill:#282740;" d="M371.085,248.154c0,0.586-0.48,1.066-1.066,1.066h-71.45c-0.586,0-1.065-0.48-1.065-1.066
							v-38.127c0-0.586,0.479-1.065,1.065-1.065h71.45c0.586,0,1.066,0.48,1.066,1.065V248.154z"/>
						<path style="fill:#53538C;" d="M371.085,216.282v-6.255c0-0.586-0.48-1.065-1.066-1.065h-71.45
							c-0.586,0-1.065,0.48-1.065,1.065v6.255H371.085z"/>
					</g>
					<g>
						<path style="fill:#FFFFFF;" d="M310.12,212.622c0,0.848-0.686,1.536-1.534,1.536c-0.85,0-1.537-0.689-1.537-1.536
							c0-0.849,0.688-1.536,1.537-1.536C309.434,211.086,310.12,211.773,310.12,212.622z"/>
						<path style="fill:#FFFFFF;" d="M303.73,212.622c0,0.848-0.689,1.536-1.535,1.536c-0.85,0-1.537-0.689-1.537-1.536
							c0-0.849,0.688-1.536,1.537-1.536C303.042,211.086,303.73,211.773,303.73,212.622z"/>
						<path style="fill:#FFFFFF;" d="M316.512,212.622c0,0.848-0.689,1.536-1.535,1.536c-0.85,0-1.537-0.689-1.537-1.536
							c0-0.849,0.688-1.536,1.537-1.536C315.823,211.086,316.512,211.773,316.512,212.622z"/>
					</g>
				</g>
			</g>
			<g>
				<g>
					<path style="fill:#76E0E5;" d="M336.017,224.184c-1.674,5.071-3.349,10.144-5.023,15.214c-0.333,1.005,1.249,1.434,1.578,0.434
						c1.676-5.07,3.352-10.141,5.025-15.212C337.928,223.614,336.347,223.188,336.017,224.184L336.017,224.184z"/>
				</g>
				<g>
					<path style="fill:#76E0E5;" d="M329.962,234.867c-1.385-0.953-2.771-1.906-4.158-2.858c1.387-0.952,2.773-1.904,4.158-2.858
						c0.866-0.595,0.048-2.014-0.827-1.415c-1.728,1.188-3.458,2.378-5.187,3.565c-0.525,0.361-0.525,1.054,0,1.416
						c1.729,1.187,3.459,2.376,5.187,3.566C330.01,236.881,330.828,235.463,329.962,234.867z"/>
					<path style="fill:#76E0E5;" d="M338.628,234.867c1.383-0.953,2.769-1.906,4.154-2.858c-1.386-0.952-2.772-1.904-4.154-2.858
						c-0.864-0.595-0.046-2.014,0.825-1.415c1.729,1.188,3.457,2.378,5.185,3.565c0.527,0.361,0.527,1.054,0,1.416
						c-1.728,1.187-3.455,2.376-5.185,3.566C338.582,236.881,337.764,235.463,338.628,234.867z"/>
				</g>
			</g>
			<path style="opacity:0.4;fill:#282740;" d="M370.019,249.221c0.586,0,1.066-0.48,1.066-1.066v-38.127
				c0-0.586-0.48-1.065-1.066-1.065h-15.995c-1.211,23.661-14.716,34.954-25.824,40.259H370.019z"/>
		</g>
	</g>
	<g>
		<g>
			<path style="fill:#FFFFFF;" d="M407.162,314.402l-1.101,2.682L388.821,310c4.928-14.275-2.072-30.137-16.217-35.947
				c-14.66-6.027-31.49,1-37.517,15.662c-6.024,14.662,1.003,31.494,15.666,37.518c14.144,5.813,30.272-0.543,36.806-14.158
				l17.239,7.084l-1.102,2.676l17.028,6.998l3.464-8.434L407.162,314.402z M384.172,309.885
				c-5.098,12.402-19.333,18.346-31.735,13.248c-12.402-5.094-18.346-19.332-13.249-31.732
				c5.096-12.402,19.332-18.346,31.735-13.252C383.323,283.246,389.268,297.482,384.172,309.885z"/>
			<path style="fill:#FFFFFF;" d="M353.858,283.158c-2.717,1.135-4,4.256-2.864,6.973c1.134,2.719,4.256,4.002,6.973,2.867
				c2.719-1.135,4.002-4.258,2.867-6.975C359.7,283.307,356.577,282.023,353.858,283.158z"/>
		</g>
		<g>
			<g>
				<path style="fill:#ED6332;" d="M449.606,199.642h-3.98c-0.483-3.331-1.79-6.389-3.715-8.968l2.815-2.814
					c0.389-0.389,0.389-1.025,0-1.414l-2.64-2.641c-0.39-0.389-1.025-0.389-1.415,0l-2.814,2.814
					c-2.579-1.924-5.636-3.23-8.968-3.713v-3.982c0-0.549-0.45-1-1-1h-3.733c-0.55,0-1,0.451-1,1v3.982
					c-3.331,0.483-6.388,1.789-8.968,3.714l-2.814-2.815c-0.39-0.389-1.025-0.389-1.414,0l-2.641,2.641
					c-0.389,0.389-0.389,1.024,0,1.414l2.816,2.814c-1.924,2.58-3.23,5.637-3.714,8.968h-3.981c-0.551,0-1,0.45-1,1v3.733
					c0,0.55,0.449,1,1,1h3.981c0.483,3.331,1.789,6.388,3.714,8.968l-2.816,2.814c-0.389,0.39-0.389,1.025,0,1.414l2.641,2.641
					c0.389,0.389,1.024,0.389,1.414-0.001l2.814-2.814c2.579,1.925,5.636,3.23,8.968,3.715v3.98c0,0.551,0.45,1,1,1h3.733
					c0.55,0,1-0.449,1-1v-3.98c3.332-0.483,6.389-1.79,8.969-3.714l2.813,2.813c0.39,0.39,1.025,0.39,1.414,0.001l2.64-2.641
					c0.39-0.389,0.39-1.024,0-1.414l-2.814-2.813c1.924-2.58,3.23-5.637,3.714-8.969h3.98c0.551,0,1-0.45,1-1v-3.733
					C450.606,200.092,450.157,199.642,449.606,199.642z M426.023,217.009c-8.008,0-14.5-6.492-14.5-14.5
					c0-8.009,6.492-14.501,14.5-14.501c8.009,0,14.5,6.492,14.5,14.501C440.523,210.517,434.032,217.009,426.023,217.009z"/>
				<path style="fill:#ED6332;" d="M409.683,161.128h-3.156c-0.383-2.642-1.419-5.065-2.945-7.11l2.232-2.232
					c0.309-0.308,0.309-0.813,0-1.121l-2.093-2.093c-0.309-0.309-0.814-0.309-1.122,0l-2.231,2.231
					c-2.045-1.525-4.469-2.562-7.11-2.944v-3.157c0-0.436-0.357-0.793-0.793-0.793h-2.961c-0.436,0-0.792,0.357-0.792,0.793v3.157
					c-2.642,0.384-5.065,1.419-7.111,2.945l-2.231-2.232c-0.309-0.309-0.813-0.308-1.121,0l-2.094,2.094
					c-0.309,0.308-0.309,0.812,0,1.121l2.232,2.231c-1.525,2.046-2.561,4.469-2.944,7.11h-3.157c-0.436,0-0.793,0.357-0.793,0.793
					v2.96c0,0.436,0.357,0.793,0.793,0.793h3.157c0.383,2.641,1.418,5.064,2.944,7.11l-2.232,2.231
					c-0.309,0.309-0.309,0.814,0,1.121l2.094,2.094c0.309,0.309,0.813,0.309,1.121,0l2.231-2.232
					c2.045,1.527,4.469,2.563,7.111,2.945v3.156c0,0.438,0.357,0.793,0.792,0.793h2.961c0.435,0,0.793-0.355,0.793-0.793v-3.156
					c2.642-0.383,5.066-1.418,7.111-2.943l2.23,2.23c0.309,0.309,0.813,0.309,1.121,0l2.093-2.094c0.31-0.308,0.31-0.813,0-1.121
					l-2.23-2.23c1.525-2.046,2.562-4.469,2.944-7.111h3.156c0.436,0,0.793-0.356,0.793-0.793v-2.96
					C410.476,161.485,410.119,161.128,409.683,161.128z M390.983,171.281c-4.353,0-7.881-3.528-7.881-7.879
					c0-4.354,3.528-7.881,7.881-7.881c4.352,0,7.881,3.527,7.881,7.881C398.864,167.753,395.336,171.281,390.983,171.281z"/>
			</g>
			<g>
				<g>
					<path style="fill:#ED6332;" d="M185.281,418.4c0.055,2.361-1.832,4.291-4.192,4.291h-2.105c-2.36,0-4.247-1.93-4.192-4.291
						l1.518-65.242c0.055-2.359,1.731-4.291,3.727-4.291c1.995,0,3.673,1.932,3.728,4.291L185.281,418.4z"/>
					<path style="fill:#DB3E0E;" d="M178.984,422.691h2.105c0.758,0,1.457-0.215,2.069-0.564l-0.719-30.91
						c-0.035-1.521-1.117-2.768-2.403-2.768c-1.286,0-2.367,1.246-2.403,2.768l-0.719,30.91
						C177.526,422.477,178.226,422.691,178.984,422.691z"/>
				</g>
				<g>
					<path style="fill:#ED6332;" d="M188.862,325.672v12.029l-8.826,8.709l-8.826-8.709v-12.027
						c-6.146,3.193-10.345,9.611-10.345,17.016c0,10.588,8.583,19.172,19.171,19.172c10.588,0,19.172-8.584,19.172-19.172
						C199.208,335.285,195.008,328.867,188.862,325.672z"/>
					<g>
						<path style="fill:#DB3E0E;" d="M180.036,358.143c-7.063,0-13.393-3.127-17.693-8.065c2.893,6.92,9.725,11.783,17.693,11.783
							c7.969,0,14.802-4.863,17.694-11.783C193.429,355.016,187.1,358.143,180.036,358.143z"/>
					</g>
				</g>
			</g>
			<g>
				<g>
					<g>
						<path style="fill:#ED6332;" d="M198.746,191.833c0,1.507-1.233,2.74-2.74,2.74h-77.38c-1.507,0-2.74-1.233-2.74-2.74v-40.665
							c0-1.507,1.233-2.74,2.74-2.74h77.38c1.507,0,2.74,1.233,2.74,2.74V191.833z"/>
						<path style="fill:#DB3E0E;" d="M196.006,148.428h-77.38c-0.386,0-0.752,0.083-1.085,0.229l37.236,26.983
							c1.396,1.013,3.682,1.013,5.077,0l37.236-26.983C196.758,148.511,196.392,148.428,196.006,148.428z"/>
					</g>
					<path style="opacity:0.1;fill:#282740;" d="M196.006,148.428h-13.959c-3.434,28.683-25.906,40.946-42.903,46.145h56.862
						c1.507,0,2.74-1.233,2.74-2.74v-40.665C198.746,149.661,197.513,148.428,196.006,148.428z"/>
				</g>
				<g>
					<g>
						<path style="fill:#48CAD9;" d="M159.287,110.629c-7.433,15.335-24.058,18.743-24.058,18.743
							c3.194,27.264,24.058,32.943,24.058,32.943s20.862-5.68,24.057-32.943C183.344,129.372,166.719,125.964,159.287,110.629z"/>
						<path style="fill:#76E0E5;" d="M159.287,122.792c-4.53,9.347-14.662,11.423-14.662,11.423
							c1.946,16.616,14.662,20.078,14.662,20.078s12.714-3.462,14.662-20.078C173.949,134.215,163.816,132.139,159.287,122.792z"/>
						<path style="fill:#282740;" d="M165.68,134.226c-2.204,2.732-4.407,5.463-6.611,8.194c-1.415-1.073-2.828-2.146-4.242-3.221
							c-1.331-1.01-2.618,1.239-1.307,2.234c1.704,1.294,3.41,2.588,5.114,3.882c0.422,0.32,1.238,0.207,1.567-0.202
							c2.436-3.02,4.872-6.038,7.309-9.058C168.547,134.77,166.729,132.927,165.68,134.226z"/>
					</g>
					<path style="opacity:0.1;fill:#282740;" d="M145.483,153.188c6.593,7.158,13.804,9.128,13.804,9.128s20.862-5.68,24.057-32.943
						c0,0-5.158-1.066-11.012-4.65C167.628,141.648,153.813,149.752,145.483,153.188z"/>
				</g>
			</g>
		</g>
	</g>
	<g>
		<g>
			<g>
				<path style="fill:#FFFFFF;" d="M93.433,234.132c-1.482,0-2.908,0.232-4.249,0.665c-2.07-8.278-9.553-14.403-18.468-14.403
					c-10.516,0-19.04,8.52-19.04,19.039c0,0.768,0.05,1.519,0.138,2.26c-0.662-0.137-1.35-0.206-2.051-0.206
					c-5.679,0-10.283,4.605-10.283,10.281c0,5.68,4.604,10.283,10.283,10.283h43.67c7.71,0,13.961-6.248,13.961-13.959
					C107.394,240.383,101.143,234.132,93.433,234.132z"/>
				<g>
					<path style="opacity:0.2;fill:#282740;" d="M100.555,236.102c0.878,1.826,1.384,3.866,1.384,6.028
						c0,7.71-6.252,13.956-13.961,13.956h-43.67c-1.514,0-2.947-0.334-4.242-0.922c1.404,4.008,5.211,6.887,9.697,6.887h43.67
						c7.71,0,13.961-6.248,13.961-13.959C107.394,242.988,104.645,238.536,100.555,236.102z"/>
				</g>
			</g>
			<g>
				<polygon style="fill:#48CAD9;" points="84.19,244.129 79.847,238.589 75.505,244.129 78.147,244.129 78.147,248.498 
					81.546,248.498 81.546,244.129 				"/>
				<polygon style="fill:#48CAD9;" points="60.683,243.82 65.026,249.361 69.37,243.82 66.727,243.82 66.727,239.451 
					63.328,239.451 63.328,243.82 				"/>
			</g>
		</g>
		<g>
			<g>
				<g>
					<path style="fill:#FFFFFF;" d="M346.799,127.786c-1.398,0-2.742,0.22-4.007,0.627c-1.952-7.807-9.008-13.582-17.415-13.582
						c-9.917,0-17.955,8.034-17.955,17.954c0,0.724,0.046,1.432,0.129,2.131c-0.625-0.13-1.272-0.195-1.933-0.195
						c-5.357,0-9.698,4.344-9.698,9.698c0,5.355,4.342,9.694,9.698,9.694h41.181c7.271,0,13.166-5.892,13.166-13.162
						C359.965,133.681,354.069,127.786,346.799,127.786z"/>
					<g>
						<path style="opacity:0.2;fill:#282740;" d="M353.516,129.644c0.826,1.723,1.304,3.645,1.304,5.686
							c0,7.27-5.896,13.161-13.165,13.161h-41.181c-1.429,0-2.779-0.315-4.001-0.87c1.324,3.779,4.914,6.493,9.146,6.493h41.181
							c7.271,0,13.166-5.892,13.166-13.162C359.965,136.137,357.373,131.939,353.516,129.644z"/>
					</g>
				</g>
			</g>
			<polygon style="fill:#48CAD9;" points="332.041,135.186 326.74,128.425 321.44,135.186 324.666,135.186 324.666,140.519 
				328.813,140.519 328.813,135.186 			"/>
		</g>
		<g>
			<g>
				<g>
					<path style="fill:#FFFFFF;" d="M439.586,267.078c-0.974,0-1.909,0.154-2.79,0.438c-1.359-5.435-6.272-9.457-12.125-9.457
						c-6.904,0-12.501,5.594-12.501,12.5c0,0.504,0.032,0.998,0.09,1.484c-0.435-0.09-0.886-0.137-1.346-0.137
						c-3.729,0-6.752,3.025-6.752,6.752c0,3.728,3.023,6.75,6.752,6.75h28.672c5.062,0,9.166-4.102,9.166-9.164
						S444.647,267.078,439.586,267.078z"/>
					<g>
						<path style="opacity:0.2;fill:#282740;" d="M444.262,268.371c0.576,1.199,0.908,2.539,0.908,3.959
							c0,5.063-4.104,9.164-9.166,9.164h-28.672c-0.994,0-1.935-0.221-2.785-0.607c0.922,2.633,3.421,4.522,6.367,4.522h28.672
							c5.062,0,9.166-4.102,9.166-9.164C448.752,272.893,446.947,269.971,444.262,268.371z"/>
					</g>
				</g>
			</g>
			<polygon style="fill:#48CAD9;" points="421.412,271.207 425.322,276.193 429.23,271.207 426.852,271.207 426.852,267.275 
				423.793,267.275 423.793,271.207 			"/>
		</g>
	</g>
	<g>
		<g>
			<g>
				<g>
					<g>
						<rect x="81.505" y="158.952" style="fill:#D8B560;" width="1" height="5.799"/>
					</g>
					<g>
						<rect x="81.505" y="170.982" style="fill:#D8B560;" width="1" height="5.798"/>
					</g>
				</g>
				<g>
					<g>
						<rect x="85.12" y="167.366" style="fill:#D8B560;" width="5.799" height="1"/>
					</g>
					<g>
						<rect x="73.091" y="167.366" style="fill:#D8B560;" width="5.799" height="1"/>
					</g>
				</g>
			</g>
			<g>
				<g>
					<g>
						
							<rect x="83.359" y="163.113" transform="matrix(0.7071 -0.7071 0.7071 0.7071 -90.4277 108.9149)" style="fill:#D8B560;" width="5.798" height="1"/>
					</g>
					<g>
						
							<rect x="74.853" y="171.619" transform="matrix(0.7071 -0.7071 0.7071 0.7071 -98.9337 105.3913)" style="fill:#D8B560;" width="5.798" height="1"/>
					</g>
				</g>
				<g>
					<g>
						
							<rect x="85.758" y="169.22" transform="matrix(0.7071 -0.7071 0.7071 0.7071 -96.4434 111.4084)" style="fill:#D8B560;" width="1" height="5.799"/>
					</g>
					<g>
						
							<rect x="77.252" y="160.714" transform="matrix(0.7071 -0.7071 0.7071 0.7071 -92.9228 102.9104)" style="fill:#D8B560;" width="1" height="5.798"/>
					</g>
				</g>
			</g>
		</g>
		<g>
			<g>
				<g>
					<g>
						<rect x="106.384" y="127.744" style="fill:#D8B560;" width="0.613" height="3.557"/>
					</g>
					<g>
						<rect x="106.384" y="135.123" style="fill:#D8B560;" width="0.613" height="3.558"/>
					</g>
				</g>
				<g>
					<g>
						<rect x="108.602" y="132.905" style="fill:#D8B560;" width="3.557" height="0.613"/>
					</g>
					<g>
						<rect x="101.222" y="132.905" style="fill:#D8B560;" width="3.557" height="0.613"/>
					</g>
				</g>
			</g>
			<g>
				<g>
					<g>
						
							<rect x="107.522" y="130.296" transform="matrix(0.7062 -0.708 0.708 0.7062 -60.3559 115.7547)" style="fill:#D8B560;" width="3.557" height="0.614"/>
					</g>
					<g>
						
							<rect x="102.302" y="135.515" transform="matrix(0.7071 -0.7071 0.7071 0.7071 -65.5556 113.3781)" style="fill:#D8B560;" width="3.558" height="0.614"/>
					</g>
				</g>
				<g>
					<g>
						
							<rect x="108.993" y="134.042" transform="matrix(0.707 -0.7072 0.7072 0.707 -64.0288 117.0851)" style="fill:#D8B560;" width="0.613" height="3.558"/>
					</g>
					<g>
						
							<rect x="103.774" y="128.825" transform="matrix(0.707 -0.7072 0.7072 0.707 -61.8679 111.8689)" style="fill:#D8B560;" width="0.614" height="3.557"/>
					</g>
				</g>
			</g>
		</g>
		<g>
			<g>
				<g>
					<g>
						<rect x="451.106" y="233.492" style="fill:#D8B560;" width="1" height="5.798"/>
					</g>
					<g>
						<rect x="451.106" y="245.521" style="fill:#D8B560;" width="1" height="5.798"/>
					</g>
				</g>
				<g>
					<g>
						<rect x="454.722" y="241.906" style="fill:#D8B560;" width="5.799" height="1"/>
					</g>
					<g>
						<rect x="442.692" y="241.906" style="fill:#D8B560;" width="5.799" height="1"/>
					</g>
				</g>
			</g>
			<g>
				<g>
					<g>
						
							<rect x="452.96" y="237.653" transform="matrix(0.7071 -0.7071 0.7071 0.7071 -34.8812 392.0949)" style="fill:#D8B560;" width="5.799" height="1"/>
					</g>
					<g>
						
							<rect x="444.453" y="246.159" transform="matrix(0.7071 -0.7072 0.7072 0.7071 -43.3773 388.6057)" style="fill:#D8B560;" width="5.799" height="1"/>
					</g>
				</g>
				<g>
					<g>
						
							<rect x="455.359" y="243.759" transform="matrix(0.707 -0.7072 0.7072 0.707 -40.8797 394.6404)" style="fill:#D8B560;" width="1" height="5.8"/>
					</g>
					<g>
						
							<rect x="446.853" y="235.253" transform="matrix(0.7071 -0.7071 0.7071 0.7071 -37.371 386.0856)" style="fill:#D8B560;" width="1" height="5.799"/>
					</g>
				</g>
			</g>
		</g>
		<g>
			<g>
				<g>
					<g>
						<rect x="433.063" y="299.83" style="fill:#D8B560;" width="0.612" height="3.557"/>
					</g>
					<g>
						<rect x="433.063" y="307.209" style="fill:#D8B560;" width="0.612" height="3.557"/>
					</g>
				</g>
				<g>
					<g>
						<rect x="435.279" y="304.99" style="fill:#D8B560;" width="3.558" height="0.613"/>
					</g>
					<g>
						<rect x="427.9" y="304.99" style="fill:#D8B560;" width="3.557" height="0.613"/>
					</g>
				</g>
			</g>
			<g>
				<g>
					<g>
						
							<rect x="434.2" y="302.382" transform="matrix(0.7063 -0.7079 0.7079 0.7063 -86.2291 397.5401)" style="fill:#D8B560;" width="3.557" height="0.614"/>
					</g>
					<g>
						<polygon style="fill:#D8B560;" points="429.718,309.383 429.284,308.947 431.799,306.432 432.234,306.865 						"/>
					</g>
				</g>
				<g>
					<g>
						
							<rect x="435.671" y="306.127" transform="matrix(0.7072 -0.707 0.707 0.7072 -90.046 398.3621)" style="fill:#D8B560;" width="0.614" height="3.559"/>
					</g>
					<g>
						
							<rect x="430.452" y="300.91" transform="matrix(0.707 -0.7072 0.7072 0.707 -87.8505 393.3407)" style="fill:#D8B560;" width="0.614" height="3.556"/>
					</g>
				</g>
			</g>
		</g>
		<g>
			<g>
				<g>
					<g>
						<rect x="226.033" y="85.944" style="fill:#D8B560;" width="1.351" height="7.834"/>
					</g>
					<g>
						<rect x="226.033" y="102.196" style="fill:#D8B560;" width="1.351" height="7.833"/>
					</g>
				</g>
				<g>
					<g>
						<rect x="230.918" y="97.312" style="fill:#D8B560;" width="7.834" height="1.352"/>
					</g>
					<g>
						<rect x="214.666" y="97.312" style="fill:#D8B560;" width="7.834" height="1.352"/>
					</g>
				</g>
			</g>
			<g>
				<g>
					<g>
						
							<rect x="228.538" y="91.566" transform="matrix(0.7071 -0.7071 0.7071 0.7071 2.8598 191.3867)" style="fill:#D8B560;" width="7.833" height="1.351"/>
					</g>
					<g>
						
							<rect x="217.046" y="103.058" transform="matrix(0.7071 -0.7071 0.7071 0.7071 -8.6317 186.627)" style="fill:#D8B560;" width="7.834" height="1.351"/>
					</g>
				</g>
				<g>
					<g>
						
							<rect x="231.779" y="99.815" transform="matrix(0.707 -0.7072 0.7072 0.707 -5.2586 194.7718)" style="fill:#D8B560;" width="1.351" height="7.835"/>
					</g>
					<g>
						
							<rect x="220.288" y="88.324" transform="matrix(0.7071 -0.7071 0.7071 0.7071 -0.5058 183.2612)" style="fill:#D8B560;" width="1.351" height="7.833"/>
					</g>
				</g>
			</g>
		</g>
		<g>
			<g>
				<g>
					<g>
						<rect x="433.369" y="149.714" style="fill:#D8B560;" width="0.612" height="3.558"/>
					</g>
					<g>
						<rect x="433.369" y="157.094" style="fill:#D8B560;" width="0.612" height="3.557"/>
					</g>
				</g>
				<g>
					<g>
						<rect x="435.586" y="154.876" style="fill:#D8B560;" width="3.558" height="0.613"/>
					</g>
					<g>
						<rect x="428.207" y="154.876" style="fill:#D8B560;" width="3.557" height="0.613"/>
					</g>
				</g>
			</g>
			<g>
				<g>
					<g>
						
							<rect x="434.506" y="152.266" transform="matrix(0.7064 -0.7078 0.7078 0.7064 20.1075 353.6193)" style="fill:#D8B560;" width="3.558" height="0.614"/>
					</g>
					<g>
						<polygon style="fill:#D8B560;" points="430.024,159.267 429.591,158.832 432.105,156.317 432.541,156.75 						"/>
					</g>
				</g>
				<g>
					<g>
						
							<rect x="435.978" y="156.012" transform="matrix(0.7071 -0.7071 0.7071 0.7071 16.2091 354.7158)" style="fill:#D8B560;" width="0.612" height="3.559"/>
					</g>
					<g>
						
							<rect x="430.758" y="150.794" transform="matrix(0.7072 -0.707 0.707 0.7072 18.3314 349.4149)" style="fill:#D8B560;" width="0.614" height="3.558"/>
					</g>
				</g>
			</g>
		</g>
		<g>
			<g>
				<g>
					<g>
						<rect x="378.06" y="106.736" style="fill:#D8B560;" width="1" height="5.799"/>
					</g>
					<g>
						<rect x="378.06" y="118.767" style="fill:#D8B560;" width="1" height="5.798"/>
					</g>
				</g>
				<g>
					<g>
						<rect x="381.675" y="115.15" style="fill:#D8B560;" width="5.799" height="1"/>
					</g>
					<g>
						<rect x="369.645" y="115.15" style="fill:#D8B560;" width="5.799" height="1"/>
					</g>
				</g>
			</g>
			<g>
				<g>
					<g>
						
							<rect x="379.914" y="110.898" transform="matrix(0.7071 -0.7071 0.7071 0.7071 33.3534 303.3172)" style="fill:#D8B560;" width="5.798" height="1"/>
					</g>
					<g>
						
							<rect x="371.407" y="119.404" transform="matrix(0.7071 -0.7072 0.7072 0.7071 24.8597 299.8181)" style="fill:#D8B560;" width="5.799" height="1"/>
					</g>
				</g>
				<g>
					<g>
						
							<rect x="382.313" y="117.004" transform="matrix(0.707 -0.7072 0.7072 0.707 27.3611 305.8517)" style="fill:#D8B560;" width="1" height="5.8"/>
					</g>
					<g>
						
							<rect x="373.806" y="108.498" transform="matrix(0.707 -0.7072 0.7072 0.707 30.8845 297.3438)" style="fill:#D8B560;" width="1" height="5.798"/>
					</g>
				</g>
			</g>
		</g>
		<g>
			<g>
				<g>
					<g>
						<rect x="46.884" y="201.152" style="fill:#D8B560;" width="0.612" height="3.558"/>
					</g>
					<g>
						<rect x="46.884" y="208.532" style="fill:#D8B560;" width="0.612" height="3.557"/>
					</g>
				</g>
				<g>
					<g>
						<rect x="49.101" y="206.314" style="fill:#D8B560;" width="3.558" height="0.613"/>
					</g>
					<g>
						<rect x="41.722" y="206.314" style="fill:#D8B560;" width="3.557" height="0.613"/>
					</g>
				</g>
			</g>
			<g>
				<g>
					<g>
						
							<rect x="48.021" y="203.705" transform="matrix(0.7063 -0.7079 0.7079 0.7063 -129.7974 95.1744)" style="fill:#D8B560;" width="3.558" height="0.614"/>
					</g>
					<g>
						<polygon style="fill:#D8B560;" points="43.54,210.705 43.106,210.27 45.621,207.756 46.056,208.189 						"/>
					</g>
				</g>
				<g>
					<g>
						
							<rect x="49.493" y="207.451" transform="matrix(0.7071 -0.7071 0.7071 0.7071 -133.3622 96.4957)" style="fill:#D8B560;" width="0.612" height="3.559"/>
					</g>
					<g>
						
							<rect x="44.274" y="202.233" transform="matrix(0.7072 -0.707 0.707 0.7072 -131.1783 91.2419)" style="fill:#D8B560;" width="0.614" height="3.558"/>
					</g>
				</g>
			</g>
		</g>
		<path style="fill:#D8B560;" d="M80.602,107.696c0,1.122-0.909,2.03-2.03,2.03c-1.122,0-2.03-0.908-2.03-2.03
			c0-1.121,0.908-2.029,2.03-2.029C79.693,105.667,80.602,106.575,80.602,107.696z"/>
		<path style="fill:#D8B560;" d="M129.891,71.72c0,1.466-1.188,2.653-2.652,2.653c-1.467,0-2.654-1.188-2.654-2.653
			c0-1.466,1.188-2.653,2.654-2.653C128.703,69.066,129.891,70.254,129.891,71.72z"/>
		<path style="fill:#D8B560;" d="M457.375,320.51c0,1.465-1.188,2.652-2.652,2.652c-1.467,0-2.654-1.188-2.654-2.652
			c0-1.465,1.188-2.654,2.654-2.654C456.188,317.855,457.375,319.045,457.375,320.51z"/>
		<path style="fill:#D8B560;" d="M412.506,122.792c0,1.121-0.908,2.029-2.029,2.029c-1.122,0-2.03-0.908-2.03-2.029
			s0.908-2.03,2.03-2.03C411.598,120.762,412.506,121.671,412.506,122.792z"/>
		<path style="fill:#D8B560;" d="M257.28,123.967c0,1.122-0.908,2.03-2.029,2.03c-1.122,0-2.03-0.908-2.03-2.03
			c0-1.121,0.908-2.029,2.03-2.029C256.372,121.938,257.28,122.846,257.28,123.967z"/>
		<path style="fill:#D8B560;" d="M321.746,79.428c0,1.466-1.188,2.653-2.652,2.653c-1.467,0-2.654-1.188-2.654-2.653
			c0-1.465,1.188-2.653,2.654-2.653C320.559,76.774,321.746,77.963,321.746,79.428z"/>
		<path style="fill:#D8B560;" d="M52.453,299.83c0,1.465-1.188,2.652-2.652,2.652c-1.467,0-2.654-1.188-2.654-2.652
			c0-1.465,1.188-2.654,2.654-2.654C51.266,297.176,52.453,298.365,52.453,299.83z"/>
		<path style="fill:#D8B560;" d="M178.944,100.485c0,1.122-0.908,2.03-2.029,2.03c-1.122,0-2.03-0.908-2.03-2.03
			c0-1.121,0.908-2.029,2.03-2.029C178.036,98.456,178.944,99.364,178.944,100.485z"/>
	</g>
</g>
</svg>
