<?xml version="1.0" encoding="UTF-8"?>
<svg version="1.1" xmlns="http://www.w3.org/2000/svg" width="64" height="64">
<path d="M0 0 C0 8.58 0 17.16 0 26 C4.39208391 23.33821029 4.39208391 23.33821029 8.7644043 20.64428711 C13.40341396 17.9130458 13.40341396 17.9130458 16.72192383 18.39672852 C17.47368896 18.59580811 18.2254541 18.7948877 19 19 C19.086985 22.77068832 19.14038579 26.54111932 19.1875 30.3125 C19.21263672 31.38435547 19.23777344 32.45621094 19.26367188 33.56054688 C19.27333984 34.58857422 19.28300781 35.61660156 19.29296875 36.67578125 C19.3086792 37.62364502 19.32438965 38.57150879 19.34057617 39.5480957 C18.93445901 42.47184813 18.30347863 43.22495269 16 45 C13.72679275 46.46054962 11.46393273 47.84297838 9.125 49.1875 C8.51269531 49.55552734 7.90039062 49.92355469 7.26953125 50.30273438 C3.70718739 52.35851953 1.13202081 53.47918873 -3 53 C-3.66 51.68 -4.32 50.36 -5 49 C-6.09699219 49.66128906 -7.19398437 50.32257812 -8.32421875 51.00390625 C-9.77819857 51.85753311 -11.23265068 52.71035588 -12.6875 53.5625 C-13.40873047 54.00013672 -14.12996094 54.43777344 -14.87304688 54.88867188 C-20.30331783 58.03773312 -20.30331783 58.03773312 -23.95703125 57.83984375 C-26 57 -26 57 -27 56 C-28.99605103 42.01210557 -32.21416751 19.30831457 -25.11328125 6.63183594 C-18.69365072 0.22529601 -8.68606092 -4.34303046 0 0 Z " fill="#F2F1FB" transform="translate(36,4)"/>
<path d="M0 0 C0 1.32 0 2.64 0 4 C-1.98779297 5.64746094 -1.98779297 5.64746094 -4.7421875 7.234375 C-5.72574219 7.80800781 -6.70929687 8.38164062 -7.72265625 8.97265625 C-8.76292969 9.55917969 -9.80320312 10.14570313 -10.875 10.75 C-11.90753906 11.35199219 -12.94007812 11.95398438 -14.00390625 12.57421875 C-21.68128189 17 -21.68128189 17 -24 17 C-24 29.21 -24 41.42 -24 54 C-17.83437023 50.38462249 -17.83437023 50.38462249 -11.67431641 46.75976562 C-10.90780762 46.31310547 -10.14129883 45.86644531 -9.3515625 45.40625 C-8.56604004 44.94541016 -7.78051758 44.48457031 -6.97119141 44.00976562 C-5 43 -5 43 -3 43 C-2.984375 45.1640625 -2.984375 45.1640625 -4 48 C-6.53133935 50.16728504 -9.35410188 51.74276651 -12.25 53.375 C-13.01441406 53.83777344 -13.77882813 54.30054688 -14.56640625 54.77734375 C-20.20468063 58.03955777 -20.20468063 58.03955777 -23.984375 57.8515625 C-26 57 -26 57 -27 56 C-28.99605103 42.01210557 -32.21416751 19.30831457 -25.11328125 6.63183594 C-18.69365072 0.22529601 -8.68606092 -4.34303046 0 0 Z " fill="#1E2B48" transform="translate(36,4)"/>
<path d="M0 0 C0 7.59 0 15.18 0 23 C-0.66 23.33 -1.32 23.66 -2 24 C-2 17.4 -2 10.8 -2 4 C-12.40628093 8.07616173 -12.40628093 8.07616173 -21 15 C-23.59519838 21.96919958 -22.82641678 29.72964886 -22 37 C-15.56442169 33.82976438 -9.17804317 30.65066187 -3 27 C-1.67936863 31.42527355 -1.38853457 34.62745673 -3 39 C-7.86249995 43.37275175 -17.2648776 50 -24 50 C-27.50327515 17.98790461 -27.50327515 17.98790461 -21.87304688 9.97167969 C-16.27172572 5.15405748 -7.64726054 0 0 0 Z " fill="#5EB6FD" transform="translate(36,8)"/>
<path d="M0 0 C0 4.62 0 9.24 0 14 C-0.66 13.67 -1.32 13.34 -2 13 C-2 12.34 -2 11.68 -2 11 C-3.98 11.66 -5.96 12.32 -8 13 C-8.061875 13.94875 -8.12375 14.8975 -8.1875 15.875 C-8.455625 16.90625 -8.72375 17.9375 -9 19 C-11.5625 20.375 -11.5625 20.375 -14 21 C-13.88140625 21.61488281 -13.7628125 22.22976562 -13.640625 22.86328125 C-13.25475019 25.28271632 -12.96523182 27.54884365 -13 30 C-14.75 32.0625 -14.75 32.0625 -17 33 C-17.99 33 -18.98 33 -20 33 C-22.06337988 14.07062619 -22.06337988 14.07062619 -18.8046875 9.22119141 C-15.36094815 6.15162759 -11.28179496 4.63139902 -7 3 C-1.98601399 0 -1.98601399 0 0 0 Z " fill="#F3F4FD" transform="translate(34,12)"/>
<path d="M0 0 C-0.33 1.32 -0.66 2.64 -1 4 C-1.495 3.01 -1.495 3.01 -2 2 C-3.98 3.32 -5.96 4.64 -8 6 C-7.34 6.33 -6.68 6.66 -6 7 C-10.62 9.64 -15.24 12.28 -20 15 C-20.99 14.34 -21.98 13.68 -23 13 C-27.95 15.97 -27.95 15.97 -33 19 C-35 17 -35 17 -35.125 13.375 C-35.08375 12.26125 -35.0425 11.1475 -35 10 C-33.35 9.34 -31.7 8.68 -30 8 C-30.04125 7.05125 -30.0825 6.1025 -30.125 5.125 C-30 2 -30 2 -28 0 C-26.33333333 0 -24.66666667 0 -23 0 C-21.0549 2.91765 -20.54723683 4.62537285 -20 8 C-18.46279297 7.00806641 -18.46279297 7.00806641 -16.89453125 5.99609375 C-15.53433913 5.14245594 -14.17363489 4.28963375 -12.8125 3.4375 C-11.80219727 2.78104492 -11.80219727 2.78104492 -10.77148438 2.11132812 C-4.53489142 -1.75231727 -4.53489142 -1.75231727 0 0 Z " fill="#F9F3F6" transform="translate(55,23)"/>
<path d="M0 0 C1.59412284 3.18824568 1.10174735 6.62896662 1.0625 10.125 C1.05798828 10.87910156 1.05347656 11.63320313 1.04882812 12.41015625 C1.03703499 14.27347127 1.01909942 16.13674555 1 18 C-2.31538575 19.11723958 -5.58923066 20.21289938 -9 21 C-7 19 -7 19 -5 17 C-6.65 16.67 -8.3 16.34 -10 16 C-9 13 -9 13 -8 12 C-8.66 11.67 -9.32 11.34 -10 11 C-10.33 10.01 -10.66 9.02 -11 8 C-9.35 7.01 -7.7 6.02 -6 5 C-6.66 4.67 -7.32 4.34 -8 4 C-2.25 0 -2.25 0 0 0 Z " fill="#FAF9FC" transform="translate(53,25)"/>
<path d="M0 0 C0.66 0.33 1.32 0.66 2 1 C2 4.3 2 7.6 2 11 C-6.43461538 16.08557692 -6.43461538 16.08557692 -9.296875 15.65234375 C-9.85890625 15.43707031 -10.4209375 15.22179688 -11 15 C-11.78948515 9.91220681 -11.78948515 9.91220681 -11 7 C-7.76506617 3.93498189 -3.96018502 1.98009251 0 0 Z " fill="#FBBB54" transform="translate(48,6)"/>
<path d="M0 0 C2.32883474 3.4932521 2 4.92922578 2 9 C1.34 9 0.68 9 0 9 C0 10.32 0 11.64 0 13 C-0.2981424 14.34164079 -0.62243192 15.67851173 -1 17 C0.65 16.67 2.3 16.34 4 16 C1.93243723 18.7972908 0.85559629 19.02692273 -2.6875 19.6875 C-3.780625 19.790625 -4.87375 19.89375 -6 20 C-6.95946595 15.38034912 -6.96102244 11.31870875 -6.5625 6.625 C-6.46066406 5.37976562 -6.35882813 4.13453125 -6.25390625 2.8515625 C-6.17011719 1.91054688 -6.08632813 0.96953125 -6 0 C-2.25 -1.125 -2.25 -1.125 0 0 Z " fill="#E6E3FC" transform="translate(39,37)"/>
<path d="M0 0 C1.0209375 0.37125 1.0209375 0.37125 2.0625 0.75 C1.7325 2.07 1.4025 3.39 1.0625 4.75 C0.7325 4.09 0.4025 3.43 0.0625 2.75 C-1.9175 4.07 -3.8975 5.39 -5.9375 6.75 C-5.2775 7.08 -4.6175 7.41 -3.9375 7.75 C-6.2238012 9.11402043 -8.51571749 10.46634274 -10.8125 11.8125 C-11.46347656 12.20244141 -12.11445312 12.59238281 -12.78515625 12.99414062 C-14.46815725 13.97444533 -16.20046199 14.86898432 -17.9375 15.75 C-18.5975 15.42 -19.2575 15.09 -19.9375 14.75 C-19.61907884 11.71472729 -19.41424535 10.18479995 -17.1171875 8.08984375 C-16.35664062 7.62707031 -15.59609375 7.16429687 -14.8125 6.6875 C-14.00039063 6.18992187 -13.18828125 5.69234375 -12.3515625 5.1796875 C-11.55492187 4.70789063 -10.75828125 4.23609375 -9.9375 3.75 C-9.28523438 3.31945312 -8.63296875 2.88890625 -7.9609375 2.4453125 C-5.09713836 0.61601349 -3.43735594 -0.29254093 0 0 Z " fill="#E34770" transform="translate(52.9375,22.25)"/>
<path d="M0 0 C0.33 0 0.66 0 1 0 C1.33 10.56 1.66 21.12 2 32 C4.31 31.01 6.62 30.02 9 29 C9 28.34 9 27.68 9 27 C13.0188515 25.18757677 16.61110675 23.66498383 21 23 C21 23.99 21 24.98 21 26 C19.28759766 27.3503418 19.28759766 27.3503418 16.9140625 28.69921875 C16.06585937 29.18583984 15.21765625 29.67246094 14.34375 30.17382812 C13.4465625 30.67333984 12.549375 31.17285156 11.625 31.6875 C10.73554688 32.19861328 9.84609375 32.70972656 8.9296875 33.23632812 C2.29678112 37 2.29678112 37 0 37 C0 24.79 0 12.58 0 0 Z " fill="#529EF0" transform="translate(12,21)"/>
<path d="M0 0 C0 1.32 0 2.64 0 4 C-2.00366211 5.64746094 -2.00366211 5.64746094 -4.77734375 7.234375 C-5.76541016 7.80800781 -6.75347656 8.38164062 -7.77148438 8.97265625 C-8.81626953 9.55917969 -9.86105469 10.14570313 -10.9375 10.75 C-11.97841797 11.35199219 -13.01933594 11.95398438 -14.09179688 12.57421875 C-21.79426198 17 -21.79426198 17 -23 17 C-23 14.36 -23 11.72 -23 9 C-21.49373047 8.87818359 -21.49373047 8.87818359 -19.95703125 8.75390625 C-15.59058789 8.13044279 -12.38850571 6.23919958 -8.6875 3.9375 C-2.21923077 -0 -2.21923077 -0 0 0 Z " fill="#4F607A" transform="translate(36,4)"/>
<path d="M0 0 C0.02734375 2.16796875 0.02734375 2.16796875 -1 5 C-3.60223017 7.13696657 -6.49157076 8.69714481 -9.4375 10.3125 C-10.22705078 10.76689453 -11.01660156 11.22128906 -11.83007812 11.68945312 C-17.66958412 15 -17.66958412 15 -20 15 C-20.02734375 12.83203125 -20.02734375 12.83203125 -19 10 C-16.39776983 7.86303343 -13.50842924 6.30285519 -10.5625 4.6875 C-9.77294922 4.23310547 -8.98339844 3.77871094 -8.16992188 3.31054688 C-2.33041588 0 -2.33041588 0 0 0 Z " fill="#4D5D78" transform="translate(33,47)"/>
<path d="M0 0 C0 7.59 0 15.18 0 23 C-0.66 23.33 -1.32 23.66 -2 24 C-2 17.4 -2 10.8 -2 4 C-7.18064493 6.99819321 -7.18064493 6.99819321 -12.35107422 10.01391602 C-12.9957666 10.38186279 -13.64045898 10.74980957 -14.3046875 11.12890625 C-15.2944458 11.70233765 -15.2944458 11.70233765 -16.30419922 12.28735352 C-16.86381348 12.52252686 -17.42342773 12.7577002 -18 13 C-18.66 12.67 -19.32 12.34 -20 12 C-17.98405311 9.86187451 -16.01104183 8.25292367 -13.49609375 6.73828125 C-12.83802734 6.34189453 -12.17996094 5.94550781 -11.50195312 5.53710938 C-10.82068359 5.13298828 -10.13941406 4.72886719 -9.4375 4.3125 C-8.75236328 3.89677734 -8.06722656 3.48105469 -7.36132812 3.05273438 C-2.2533867 0 -2.2533867 0 0 0 Z " fill="#5FA8EE" transform="translate(36,8)"/>
<path d="M0 0 C0 4.62 0 9.24 0 14 C-0.66 13.67 -1.32 13.34 -2 13 C-2 12.34 -2 11.68 -2 11 C-3.65 11.66 -5.3 12.32 -7 13 C-7 12.34 -7 11.68 -7 11 C-7.66 11 -8.32 11 -9 11 C-9.8125 9.3125 -9.8125 9.3125 -10 7 C-4 0 -4 0 0 0 Z " fill="#FCFBFD" transform="translate(34,12)"/>
<path d="M0 0 C1.2380014 3.57644848 0.74926071 6.33694766 0 10 C-2.31 10.66 -4.62 11.32 -7 12 C-7 11.01 -7 10.02 -7 9 C-7.66 8.67 -8.32 8.34 -9 8 C-7.07834179 2.53066508 -6.10288444 0 0 0 Z " fill="#C9AEFC" transform="translate(25,21)"/>
<path d="M0 0 C0.6875 2.3125 0.6875 2.3125 1 5 C-0.375 6.625 -0.375 6.625 -2 8 C-2.33 8.99 -2.66 9.98 -3 11 C-5.0625 11.6875 -5.0625 11.6875 -7 12 C-7.287803 8.94928825 -7.4472872 6.03939738 -7 3 C-4.5776532 0.89638304 -3.21754366 0 0 0 Z " fill="#E6BC65" transform="translate(46,10)"/>
<path d="M0 0 C2 1 2 1 4 4 C4 6 4 8 4 10 C3.34 10 2.68 10 2 10 C1.67 10.99 1.34 11.98 1 13 C0.01 12.67 -0.98 12.34 -2 12 C-2 8.37 -2 4.74 -2 1 C-1.34 0.67 -0.68 0.34 0 0 Z " fill="#EBDCE3" transform="translate(37,36)"/>
<path d="M0 0 C0 0.66 0 1.32 0 2 C1.98 1.34 3.96 0.68 6 0 C3.72402354 2.49552403 1.39278822 4.06622986 -1.5625 5.6875 C-2.34753906 6.12449219 -3.13257813 6.56148437 -3.94140625 7.01171875 C-6 8 -6 8 -8 8 C-7.8125 5.6875 -7.8125 5.6875 -7 3 C-2.96551724 0 -2.96551724 0 0 0 Z " fill="#465671" transform="translate(21,54)"/>
<path d="M0 0 C3 1 3 1 6 3 C4.68 4.32 3.36 5.64 2 7 C3.32 6.67 4.64 6.34 6 6 C4.35 7.65 2.7 9.3 1 11 C0.34 10.34 -0.32 9.68 -1 9 C-0.67 8.34 -0.34 7.68 0 7 C-0.66 6.67 -1.32 6.34 -2 6 C-2.33 5.01 -2.66 4.02 -3 3 C-2.01 2.01 -1.02 1.02 0 0 Z " fill="#FCFCFE" transform="translate(41,34)"/>
<path d="M0 0 C1 3 1 3 0 6 C-0.66 6 -1.32 6 -2 6 C-2 6.66 -2 7.32 -2 8 C-3.32 7.67 -4.64 7.34 -6 7 C-6.1875 4.625 -6.1875 4.625 -6 2 C-3 0 -3 0 0 0 Z " fill="#E6C393" transform="translate(26,31)"/>
<path d="M0 0 C0.99 0 1.98 0 3 0 C3.33 0.99 3.66 1.98 4 3 C2.5625 5.6875 2.5625 5.6875 1 8 C-0.32 7.67 -1.64 7.34 -3 7 C-2.25 2.25 -2.25 2.25 0 0 Z " fill="#F78A9F" transform="translate(29,23)"/>
<path d="M0 0 C0.66 0.33 1.32 0.66 2 1 C1.34 1.66 0.68 2.32 0 3 C0.66 3.66 1.32 4.32 2 5 C-2.30769231 8.07692308 -2.30769231 8.07692308 -5.8125 7.6875 C-6.534375 7.460625 -7.25625 7.23375 -8 7 C-6.88424427 3.65273281 -6.48655378 3.37920252 -3.5625 1.75 C-2.386875 1.1725 -1.21125 0.595 0 0 Z " fill="#F5EADC" transform="translate(51,34)"/>
<path d="M0 0 C0 0.99 0 1.98 0 3 C-0.66 3 -1.32 3 -2 3 C-2 3.66 -2 4.32 -2 5 C-1.34 5.33 -0.68 5.66 0 6 C-4.75 9 -4.75 9 -7 9 C-7 6 -7 6 -6 5 C-6.66 4.67 -7.32 4.34 -8 4 C-2.25 0 -2.25 0 0 0 Z " fill="#FACBD5" transform="translate(53,25)"/>
<path d="M0 0 C0.66 0.33 1.32 0.66 2 1 C1.67 2.32 1.34 3.64 1 5 C1.66 5 2.32 5 3 5 C3.33 4.34 3.66 3.68 4 3 C6.0625 2.375 6.0625 2.375 8 2 C6.88424427 5.34726719 6.48655378 5.62079748 3.5625 7.25 C2.386875 7.8275 1.21125 8.405 0 9 C-0.66 8.67 -1.32 8.34 -2 8 C-1.34 6.68 -0.68 5.36 0 4 C-0.66 3.67 -1.32 3.34 -2 3 C-1.34 2.01 -0.68 1.02 0 0 Z " fill="#FDFCFE" transform="translate(39,46)"/>
<path d="M0 0 C0.33 0 0.66 0 1 0 C1 2.97 1 5.94 1 9 C-1.64 9.99 -4.28 10.98 -7 12 C-6.67 10.68 -6.34 9.36 -6 8 C-5.175 7.525625 -4.35 7.05125 -3.5 6.5625 C-0.74538088 5.22232165 -0.74538088 5.22232165 -0.1875 2.3125 C-0.125625 1.549375 -0.06375 0.78625 0 0 Z " fill="#9ACDFB" transform="translate(32,35)"/>
<path d="M0 0 C-2.79854744 3.29240875 -6.20673275 5.03562946 -10 7 C-10.99 7 -11.98 7 -13 7 C-13 6.34 -13 5.68 -13 5 C-11.35 4.34 -9.7 3.68 -8 3 C-8 2.34 -8 1.68 -8 1 C-5.29120665 -0.35439668 -2.99066732 -0.06501451 0 0 Z " fill="#F48199" transform="translate(49,29)"/>
<path d="M0 0 C0.99 0.33 1.98 0.66 3 1 C2.34 1.66 1.68 2.32 1 3 C0.62904292 5.42246595 0.62904292 5.42246595 0.5859375 8.2265625 C0.54726562 9.2578125 0.50859375 10.2890625 0.46875 11.3515625 C0.4378125 12.43179688 0.406875 13.51203125 0.375 14.625 C0.33632812 15.71296875 0.29765625 16.8009375 0.2578125 17.921875 C0.16333753 20.61441165 0.07777569 23.30693757 0 26 C-0.33 26 -0.66 26 -1 26 C-1.02886751 21.85418113 -1.04675327 17.70838784 -1.0625 13.5625 C-1.07087891 12.37849609 -1.07925781 11.19449219 -1.08789062 9.97460938 C-1.09111328 8.84990234 -1.09433594 7.72519531 -1.09765625 6.56640625 C-1.10289307 5.52427979 -1.10812988 4.48215332 -1.11352539 3.40844727 C-1 1 -1 1 0 0 Z " fill="#5AB4FD" transform="translate(14,20)"/>
<path d="M0 0 C0 1.32 0 2.64 0 4 C-4.07142857 7 -4.07142857 7 -7 7 C-7 6.34 -7 5.68 -7 5 C-7.66 4.67 -8.32 4.34 -9 4 C-2.25 0 -2.25 0 0 0 Z " fill="#465770" transform="translate(36,4)"/>
<path d="M0 0 C-0.5625 1.875 -0.5625 1.875 -2 4 C-5.625 5.25 -5.625 5.25 -9 6 C-8.8125 4.1875 -8.8125 4.1875 -8 2 C-3.744 -1.248 -3.744 -1.248 0 0 Z " fill="#98D0FE" transform="translate(23,47)"/>
<path d="M0 0 C-0.25 1.875 -0.25 1.875 -1 4 C-2.8125 5.3125 -2.8125 5.3125 -5 6 C-7.25 5.625 -7.25 5.625 -9 5 C-4.5 0 -4.5 0 0 0 Z " fill="#5E6F8B" transform="translate(29,9)"/>
<path d="M0 0 C0.66 0.33 1.32 0.66 2 1 C1.375 2.875 1.375 2.875 0 5 C-3.125 6.25 -3.125 6.25 -6 7 C-5.8125 5.1875 -5.8125 5.1875 -5 3 C-2.5625 1.1875 -2.5625 1.1875 0 0 Z " fill="#6B7C9B" transform="translate(27,49)"/>
<path d="M0 0 C1.32 0.66 2.64 1.32 4 2 C-0.75 5 -0.75 5 -3 5 C-3 4.01 -3 3.02 -3 2 C-2.01 1.34 -1.02 0.68 0 0 Z " fill="#DCF4D6" transform="translate(49,29)"/>
</svg>
