<?xml version="1.0" encoding="UTF-8"?>
<svg version="1.1" xmlns="http://www.w3.org/2000/svg" width="64" height="64">
<path d="M0 0 C2.46770934 0.42546713 3.71199641 0.68695262 5.4375 2.5625 C6.97743496 4.27937403 6.97743496 4.27937403 9.6875 4.1875 C10.450625 4.125625 11.21375 4.06375 12 4 C13.09658936 7.28976808 12.79953138 8.71303767 12 12 C13.32 12 14.64 12 16 12 C15.67 13.65 15.34 15.3 15 17 C14.01 17 13.02 17 12 17 C12.495 20.465 12.495 20.465 13 24 C12.236875 24.144375 11.47375 24.28875 10.6875 24.4375 C7.91827092 24.9632594 7.91827092 24.9632594 5 26 C8.63 26.33 12.26 26.66 16 27 C17.38297236 33.95614456 16.92200196 40.82120339 16.625 47.875 C16.58117188 49.1228125 16.53734375 50.370625 16.4921875 51.65625 C16.13089923 60.86910077 16.13089923 60.86910077 15 62 C13.4651703 62.09319449 11.92607918 62.117458 10.38842773 62.11352539 C9.40748642 62.11344986 8.4265451 62.11337433 7.4158783 62.11329651 C6.3492244 62.10813522 5.2825705 62.10297394 4.18359375 62.09765625 C2.55430687 62.09553383 2.55430687 62.09553383 0.8921051 62.09336853 C-2.59279075 62.08775048 -6.07762342 62.07519492 -9.5625 62.0625 C-11.91861887 62.05748733 -14.27473874 62.05292402 -16.63085938 62.04882812 C-22.42059464 62.03777519 -28.21029281 62.02101951 -34 62 C-33.67 60.35 -33.34 58.7 -33 57 C-31.35 57 -29.7 57 -28 57 C-28 56.01 -28 55.02 -28 54 C-29.05960938 54.02320313 -30.11921875 54.04640625 -31.2109375 54.0703125 C-32.5989513 54.08906944 -33.9869727 54.10726972 -35.375 54.125 C-36.07367188 54.14175781 -36.77234375 54.15851562 -37.4921875 54.17578125 C-39.32897486 54.19344267 -41.16601963 54.10303261 -43 54 C-45.52584607 51.47415393 -45.23704324 49.90793507 -45.25224304 46.4627533 C-45.24505753 45.71063065 -45.23787201 44.958508 -45.23046875 44.18359375 C-45.23001053 43.41193375 -45.22955231 42.64027374 -45.2290802 41.8452301 C-45.22605787 40.21361758 -45.21817213 38.58200795 -45.20581055 36.95043945 C-45.18754787 34.44407 -45.18530088 31.93806967 -45.18554688 29.43164062 C-45.18063198 27.84895512 -45.17480379 26.26627213 -45.16796875 24.68359375 C-45.16685593 23.92944687 -45.1657431 23.17529999 -45.16459656 22.39830017 C-45.11605119 17.11605119 -45.11605119 17.11605119 -44 16 C-41.6243148 15.9116033 -39.27791326 15.88469695 -36.90234375 15.90234375 C-35.83905602 15.90446617 -35.83905602 15.90446617 -34.75428772 15.90663147 C-32.48198288 15.91224557 -30.20977525 15.92480037 -27.9375 15.9375 C-26.40039204 15.94251319 -24.86328255 15.94707641 -23.32617188 15.95117188 C-19.55074358 15.96221958 -15.77538829 15.97949359 -12 16 C-12 14.68 -12 13.36 -12 12 C-11.01 12 -10.02 12 -9 12 C-9 9.69 -9 7.38 -9 5 C-6.23735711 4.40267181 -3.83967231 4 -1 4 C-0.67 2.68 -0.34 1.36 0 0 Z M-1.3125 10.125 C-3.44597649 12.07510368 -3.44597649 12.07510368 -3 16 C-0.69 16 1.62 16 4 16 C4.33 16.99 4.66 17.98 5 19 C7.25162602 16.24528606 7.25162602 16.24528606 6.9375 13.4375 C6.20025401 10.8080892 6.20025401 10.8080892 3.6875 9.5 C0.98831943 8.7222942 0.98831943 8.7222942 -1.3125 10.125 Z " fill="#089BFA" transform="translate(46,1)"/>
<path d="M0 0 C1.17818227 6.22254783 0.91929158 12.13418209 0.5625 18.4375 C0.51029297 19.45521484 0.45808594 20.47292969 0.40429688 21.52148438 C0.27553907 24.01470369 0.1406198 26.50742633 0 29 C-2.64 29 -5.28 29 -8 29 C-8 29.66 -8 30.32 -8 31 C-9.98 31 -11.96 31 -14 31 C-14.04125 30.4225 -14.0825 29.845 -14.125 29.25 C-15.49298354 25.73232805 -17.73615863 24.7528037 -21 23 C-24.69523952 22.28076792 -24.69523952 22.28076792 -28 22 C-29 21 -29 21 -29.09765625 18.71484375 C-29.08605469 17.79832031 -29.07445312 16.88179687 -29.0625 15.9375 C-29.05347656 15.01839844 -29.04445312 14.09929688 -29.03515625 13.15234375 C-29.01775391 12.08693359 -29.01775391 12.08693359 -29 11 C-28.34 10.67 -27.68 10.34 -27 10 C-27 9.01 -27 8.02 -27 7 C-28.65 7 -30.3 7 -32 7 C-32 5.02 -32 3.04 -32 1 C-10.46808511 -0.19148936 -10.46808511 -0.19148936 0 0 Z " fill="#6F6D78" transform="translate(62,28)"/>
<path d="M0 0 C9.57 0 19.14 0 29 0 C29.495 8.415 29.495 8.415 30 17 C23.73 17 17.46 17 11 17 C11.33 15.35 11.66 13.7 12 12 C13.65 12 15.3 12 17 12 C17 11.01 17 10.02 17 9 C15.94039062 9.02320313 14.88078125 9.04640625 13.7890625 9.0703125 C12.4010487 9.08906944 11.0130273 9.10726972 9.625 9.125 C8.57699219 9.15013672 8.57699219 9.15013672 7.5078125 9.17578125 C5.67102514 9.19344267 3.83398037 9.10303261 2 9 C1.34 8.34 0.68 7.68 0 7 C0 4.69 0 2.38 0 0 Z " fill="#CDD2D8" transform="translate(1,46)"/>
<path d="M0 0 C1.65 0 3.3 0 5 0 C5 0.99 5 1.98 5 3 C12.26 3 19.52 3 27 3 C27 3.33 27 3.66 27 4 C19.08 4 11.16 4 3 4 C3.33 7.3 3.66 10.6 4 14 C5.010625 14.061875 6.02125 14.12375 7.0625 14.1875 C11.62680287 14.81705902 14.47829815 17.20181611 18 20 C18.99 20.66 19.98 21.32 21 22 C20.01 22 19.02 22 18 22 C18 22.66 18 23.32 18 24 C19.98 24 21.96 24 24 24 C24 23.34 24 22.68 24 22 C26.64 22 29.28 22 32 22 C32.042721 23.66611905 32.04063832 25.33382885 32 27 C30.11680732 28.88319268 26.88069863 28.13054285 24.375 28.1328125 C23.71290527 28.13376923 23.05081055 28.13472595 22.36865234 28.13571167 C20.96647039 28.13639326 19.5642853 28.13454042 18.16210938 28.13037109 C16.00904287 28.12502246 13.85618498 28.1303167 11.703125 28.13671875 C10.34374954 28.13605796 8.9843742 28.13477679 7.625 28.1328125 C6.37976562 28.13168457 5.13453125 28.13055664 3.8515625 28.12939453 C1 28 1 28 0 27 C-0.08758003 25.00035018 -0.10696576 22.9976389 -0.09765625 20.99609375 C-0.09443359 19.78115234 -0.09121094 18.56621094 -0.08789062 17.31445312 C-0.07951172 16.03505859 -0.07113281 14.75566406 -0.0625 13.4375 C-0.05798828 12.15423828 -0.05347656 10.87097656 -0.04882812 9.54882812 C-0.03699545 6.36583978 -0.02051068 3.18294238 0 0 Z " fill="#64626C" transform="translate(30,35)"/>
<path d="M0 0 C2.46770934 0.42546713 3.71199641 0.68695262 5.4375 2.5625 C6.97743496 4.27937403 6.97743496 4.27937403 9.6875 4.1875 C10.450625 4.125625 11.21375 4.06375 12 4 C13.09658936 7.28976808 12.79953138 8.71303767 12 12 C13.32 12 14.64 12 16 12 C15.67 13.65 15.34 15.3 15 17 C14.01 17 13.02 17 12 17 C12.33 19.31 12.66 21.62 13 24 C12.2575 24.144375 11.515 24.28875 10.75 24.4375 C8.47972261 24.90187492 6.24240521 25.41863569 4 26 C3.75 19.375 3.75 19.375 6 16 C5.6878236 13.35367713 5.6878236 13.35367713 5 11 C3.15274948 10.30840599 3.15274948 10.30840599 1 10 C-2.4260261 11.79819816 -2.4260261 11.79819816 -3 16 C-5.97 16 -8.94 16 -12 16 C-12 14.68 -12 13.36 -12 12 C-11.01 12 -10.02 12 -9 12 C-9 9.69 -9 7.38 -9 5 C-6.23735711 4.40267181 -3.83967231 4 -1 4 C-0.67 2.68 -0.34 1.36 0 0 Z " fill="#FF4822" transform="translate(46,1)"/>
<path d="M0 0 C1.4540625 0.0309375 1.4540625 0.0309375 2.9375 0.0625 C4.39045405 8.09751094 4.39045405 8.09751094 2.5 12.125 C1.984375 12.764375 1.46875 13.40375 0.9375 14.0625 C1.9275 14.3925 2.9175 14.7225 3.9375 15.0625 C3.9375 15.7225 3.9375 16.3825 3.9375 17.0625 C4.5975 17.0625 5.2575 17.0625 5.9375 17.0625 C5.9375 17.7225 5.9375 18.3825 5.9375 19.0625 C6.52273438 19.16691406 7.10796875 19.27132812 7.7109375 19.37890625 C10.26850869 20.16412548 11.58443177 21.21799581 13.5625 23 C14.44808594 23.78697266 14.44808594 23.78697266 15.3515625 24.58984375 C16.57088745 25.72207406 17.76091622 26.88591622 18.9375 28.0625 C11.3475 28.0625 3.7575 28.0625 -4.0625 28.0625 C-4.08932159 23.58329403 -4.10925177 19.10424649 -4.125 14.625 C-4.13337891 13.34560547 -4.14175781 12.06621094 -4.15039062 10.74804688 C-4.15361328 9.53310547 -4.15683594 8.31816406 -4.16015625 7.06640625 C-4.16539307 5.94049072 -4.17062988 4.8145752 -4.17602539 3.65454102 C-4.01128933 -0.10675524 -3.82451626 0.07805135 0 0 Z " fill="#018CE6" transform="translate(5.0625,16.9375)"/>
<path d="M0 0 C8.25 0 16.5 0 25 0 C25 3.63 25 7.26 25 11 C21.02078906 11.02682614 17.04175659 11.04675393 13.0625 11.0625 C11.35803711 11.07506836 11.35803711 11.07506836 9.61914062 11.08789062 C8.53955078 11.09111328 7.45996094 11.09433594 6.34765625 11.09765625 C4.84730835 11.10551147 4.84730835 11.10551147 3.31665039 11.11352539 C1 11 1 11 0 10 C0 6.7 0 3.4 0 0 Z " fill="#EE4422" transform="translate(33,39)"/>
<path d="M0 0 C0.495 3.465 0.495 3.465 1 7 C-9.89 7 -20.78 7 -32 7 C-32 5.02 -32 3.04 -32 1 C-10.46808511 -0.19148936 -10.46808511 -0.19148936 0 0 Z " fill="#FDC101" transform="translate(62,28)"/>
<path d="M0 0 C9.57 0 19.14 0 29 0 C29 3.96 29 7.92 29 12 C22.73 12 16.46 12 10 12 C10 11.67 10 11.34 10 11 C14.95 11 19.9 11 25 11 C25 8.69 25 6.38 25 4 C17.41 4 9.82 4 2 4 C1.34 2.68 0.68 1.36 0 0 Z " fill="#5BB8EF" transform="translate(21,17)"/>
<path d="M0 0 C5.28 0 10.56 0 16 0 C16.66 1.65 17.32 3.3 18 5 C11.73 5 5.46 5 -1 5 C-0.67 3.35 -0.34 1.7 0 0 Z " fill="#E5EAEE" transform="translate(13,58)"/>
<path d="M0 0 C0.66 0 1.32 0 2 0 C2.33 1.32 2.66 2.64 3 4 C12.9 4 22.8 4 33 4 C33 4.66 33 5.32 33 6 C22.11 6 11.22 6 0 6 C0 4.02 0 2.04 0 0 Z " fill="#DEAA00" transform="translate(30,29)"/>
<path d="M0 0 C0.33 0 0.66 0 1 0 C1 4.95 1 9.9 1 15 C0.67 14.01 0.34 13.02 0 12 C-3.63 12 -7.26 12 -11 12 C-11 10.68 -11 9.36 -11 8 C-7.37 8 -3.74 8 0 8 C0 5.36 0 2.72 0 0 Z " fill="#A6ACB7" transform="translate(29,46)"/>
<path d="M0 0 C2.475 0.495 2.475 0.495 5 1 C4.01 1.495 4.01 1.495 3 2 C4.32 4.97 5.64 7.94 7 11 C5.00045254 11.04254356 2.99958364 11.04080783 1 11 C0 10 0 10 -0.09765625 7.71484375 C-0.08605469 6.79832031 -0.07445312 5.88179687 -0.0625 4.9375 C-0.05347656 4.01839844 -0.04445312 3.09929688 -0.03515625 2.15234375 C-0.02355469 1.44207031 -0.01195312 0.73179688 0 0 Z " fill="#E5401F" transform="translate(33,39)"/>
<path d="M0 0 C5.61 0 11.22 0 17 0 C13.03646048 2.97265464 11.76462577 3.81315193 7 4 C4.50088561 3.21054133 2.35832242 2.17916121 0 1 C0 0.67 0 0.34 0 0 Z " fill="#FD4722" transform="translate(37,39)"/>
<path d="M0 0 C0.66 0 1.32 0 2 0 C0.45941767 5.01508715 -1.02931839 9.6147081 -4 14 C-4.66 13.67 -5.32 13.34 -6 13 C-4.02 8.71 -2.04 4.42 0 0 Z " fill="#D5EEFE" transform="translate(17,22)"/>
<path d="M0 0 C3.85645121 -0.22036864 6.49223216 0.39644899 10 2 C9.67 2.66 9.34 3.32 9 4 C6.36 4 3.72 4 1 4 C0.67 2.68 0.34 1.36 0 0 Z " fill="#FCD24A" transform="translate(32,29)"/>
<path d="M0 0 C0.99 0.66 1.98 1.32 3 2 C-1.29 2 -5.58 2 -10 2 C-7.87433571 -2.25132858 -3.92065481 -0.89848339 0 0 Z " fill="#FD4722" transform="translate(50,47)"/>
<path d="M0 0 C0.33 0 0.66 0 1 0 C1 2.97 1 5.94 1 9 C2.65 8.67 4.3 8.34 6 8 C6.33 8.99 6.66 9.98 7 11 C5.00045254 11.04254356 2.99958364 11.04080783 1 11 C0 10 0 10 -0.09765625 7.71484375 C-0.08605469 6.79832031 -0.07445312 5.88179687 -0.0625 4.9375 C-0.05347656 4.01839844 -0.04445312 3.09929688 -0.03515625 2.15234375 C-0.02355469 1.44207031 -0.01195312 0.73179688 0 0 Z " fill="#B8422D" transform="translate(33,39)"/>
<path d="M0 0 C2.51570636 0.97382182 3.73944098 1.46151135 4.9375 3.9375 C5 6 5 6 3.6875 7.75 C2 9 2 9 0 9 C0.556875 7.88625 0.556875 7.88625 1.125 6.75 C2.29515863 4.05716353 2.29515863 4.05716353 1.125 1.6875 C0.75375 1.130625 0.3825 0.57375 0 0 Z " fill="#CEEBFF" transform="translate(19,25)"/>
<path d="M0 0 C3.465 1.485 3.465 1.485 7 3 C5.68 3.99 4.36 4.98 3 6 C1.5 4.6875 1.5 4.6875 0 3 C0 2.01 0 1.02 0 0 Z " fill="#FB4722" transform="translate(36,41)"/>
<path d="M0 0 C0.66 0 1.32 0 2 0 C1.62875 0.763125 1.2575 1.52625 0.875 2.3125 C0.58625 3.199375 0.2975 4.08625 0 5 C0.99 6.485 0.99 6.485 2 8 C-0.475 7.01 -0.475 7.01 -3 6 C-2.42655063 3.13275314 -2.1385485 2.1385485 0 0 Z " fill="#DCF0FC" transform="translate(9,25)"/>
</svg>
