<?xml version="1.0" encoding="UTF-8"?>
<svg version="1.1" xmlns="http://www.w3.org/2000/svg" width="64" height="64">
<path d="M0 0 C3.53458899 0.56434614 6.14625767 1.43934623 9.20703125 3.28515625 C9.95791016 3.73310547 10.70878906 4.18105469 11.48242188 4.64257812 C12.25134766 5.11115234 13.02027344 5.57972656 13.8125 6.0625 C14.60076172 6.53494141 15.38902344 7.00738281 16.20117188 7.49414062 C18.13812608 8.65631315 20.07078295 9.82504417 22 11 C22 10.01 22 9.02 22 8 C27.4 8.6 27.4 8.6 29.875 10.25 C31.37422891 12.58213386 31.22023906 14.28371825 31 17 C33.475 17.99 33.475 17.99 36 19 C36.22978281 22.29052614 36.42974313 25.58225912 36.625 28.875 C36.68945312 29.7928125 36.75390625 30.710625 36.8203125 31.65625 C37.17108503 37.88246241 37.32490847 44.11286349 35 50 C32.27734375 52.5859375 32.27734375 52.5859375 28.9375 54.375 C28.35476318 54.69460693 27.77202637 55.01421387 27.17163086 55.34350586 C25.46627078 56.26416081 23.73340325 57.13329837 22 58 C21.12601563 58.46792969 20.25203125 58.93585937 19.3515625 59.41796875 C14.7101341 61.73868295 12.17053051 62.39206591 7 61 C4.20211195 59.65365613 1.57892882 58.0660659 -1.0625 56.4375 C-2.16936157 55.76738892 -2.16936157 55.76738892 -3.29858398 55.08374023 C-4.80552083 54.16995765 -6.31017616 53.25240173 -7.8125 52.33105469 C-9.86169548 51.08415583 -11.92581478 49.86879759 -14 48.6640625 C-15.18771552 47.96390713 -16.37522814 47.26340742 -17.5625 46.5625 C-18.61566406 45.94503906 -19.66882813 45.32757813 -20.75390625 44.69140625 C-21.49511719 44.13324219 -22.23632812 43.57507812 -23 43 C-23 42.01 -23 41.02 -23 40 C-20.99633789 38.89453125 -20.99633789 38.89453125 -18.22265625 37.8125 C-8.76603377 33.65027035 -8.76603377 33.65027035 -1 27 C2.00811663 18.4188159 1.00782149 8.89923583 0 0 Z " fill="#DFE3EF" transform="translate(25,1)"/>
<path d="M0 0 C4.07733181 0.81546636 5.87066488 1.27314905 9.20703125 3.28515625 C10.33334961 3.95708008 10.33334961 3.95708008 11.48242188 4.64257812 C12.63581055 5.34543945 12.63581055 5.34543945 13.8125 6.0625 C14.60076172 6.53494141 15.38902344 7.00738281 16.20117188 7.49414062 C18.13812608 8.65631315 20.07078295 9.82504417 22 11 C22 10.01 22 9.02 22 8 C27.4 8.6 27.4 8.6 29.875 10.25 C31.37422891 12.58213386 31.22023906 14.28371825 31 17 C33.475 17.99 33.475 17.99 36 19 C36.33 25.6 36.66 32.2 37 39 C36.01 39 35.02 39 34 39 C34 41.31 34 43.62 34 46 C28.72238343 44.50867978 24.45329526 42.07739294 19.8125 39.25 C13.29343165 35.31304167 6.69812954 31.6535252 0 28 C0 18.76 0 9.52 0 0 Z " fill="#7F93F5" transform="translate(25,1)"/>
<path d="M0 0 C0.58652344 0.40734375 1.17304688 0.8146875 1.77734375 1.234375 C2.49921875 1.523125 3.22109375 1.811875 3.96484375 2.109375 C5.77734375 3.234375 5.77734375 3.234375 6.52734375 5.359375 C6.65109375 6.2875 6.65109375 6.2875 6.77734375 7.234375 C7.70546875 7.193125 8.63359375 7.151875 9.58984375 7.109375 C12.77734375 7.234375 12.77734375 7.234375 15.77734375 9.234375 C17.99981006 10.45770017 20.22638716 11.6661782 22.46484375 12.859375 C23.07134766 13.18421875 23.67785156 13.5090625 24.30273438 13.84375 C25.79354615 14.64197993 27.28534805 15.43836018 28.77734375 16.234375 C28.28234375 17.719375 28.28234375 17.719375 27.77734375 19.234375 C19.46965144 23.234375 19.46965144 23.234375 14.77734375 23.234375 C12.62011719 22.19628906 12.62011719 22.19628906 10.13671875 20.75 C9.23050781 20.22664063 8.32429688 19.70328125 7.390625 19.1640625 C6.44574219 18.60976563 5.50085938 18.05546875 4.52734375 17.484375 C3.59792969 16.94554688 2.66851562 16.40671875 1.7109375 15.8515625 C-0.102353 14.8000079 -1.91425049 13.74604681 -3.72460938 12.68945312 C-6.87972988 10.8516386 -10.04918311 9.04027408 -13.22265625 7.234375 C-13.22265625 6.574375 -13.22265625 5.914375 -13.22265625 5.234375 C-11.48430568 4.17338172 -9.73145821 3.13611017 -7.97265625 2.109375 C-6.998125 1.52929688 -6.02359375 0.94921875 -5.01953125 0.3515625 C-2.22265625 -0.765625 -2.22265625 -0.765625 0 0 Z " fill="#7C7F91" transform="translate(27.22265625,30.765625)"/>
<path d="M0 0 C0.99 0.66 1.98 1.32 3 2 C1.21118264 3.00508801 -0.58114696 4.00392736 -2.375 5 C-3.37273438 5.556875 -4.37046875 6.11375 -5.3984375 6.6875 C-8 8 -8 8 -10 8 C-10 8.66 -10 9.32 -10 10 C-9.236875 10.268125 -8.47375 10.53625 -7.6875 10.8125 C-5.12619116 11.94424112 -3.80307062 12.91223401 -2 15 C-4.31 16.32 -6.62 17.64 -9 19 C-5.76478258 21.48862878 -2.40739705 23.75421558 1 26 C-1 27 -1 27 -2.99609375 26.46875 C-9.7309917 23.79634249 -16.36483064 20.61741064 -22 16 C-22 15.01 -22 14.02 -22 13 C-19.98046875 11.46606445 -19.98046875 11.46606445 -17.1875 9.86328125 C-16.19492187 9.28642578 -15.20234375 8.70957031 -14.1796875 8.11523438 C-13.13039063 7.52033203 -12.08109375 6.92542969 -11 6.3125 C-9.95070313 5.70599609 -8.90140625 5.09949219 -7.8203125 4.47460938 C-5.2191127 2.97300767 -2.61235526 1.48208212 0 0 Z " fill="#E1E5F1" transform="translate(24,28)"/>
<path d="M0 0 C0.99 0.33 1.98 0.66 3 1 C2.67 9.25 2.34 17.5 2 26 C4.475 26.99 4.475 26.99 7 28 C8.82026457 28.96062951 10.62427129 29.95247269 12.4140625 30.96875 C13.42210937 31.53980469 14.43015625 32.11085937 15.46875 32.69921875 C16.5103125 33.29347656 17.551875 33.88773438 18.625 34.5 C19.67429687 35.09425781 20.72359375 35.68851563 21.8046875 36.30078125 C29.54717938 40.69811959 29.54717938 40.69811959 33 43 C32.73343428 40.06556598 32.73343428 40.06556598 32 37 C31.01 36.34 30.02 35.68 29 35 C28.8125 31.375 28.8125 31.375 29 28 C32.76687864 28 33.91190305 28.23537317 37 30 C37 32.64 37 35.28 37 38 C36.01 38 35.02 38 34 38 C34 40.31 34 42.62 34 45 C28.72238343 43.50867978 24.45329526 41.07739294 19.8125 38.25 C13.29343165 34.31304167 6.69812954 30.6535252 0 27 C0 18.09 0 9.18 0 0 Z " fill="#797E95" transform="translate(25,2)"/>
<path d="M0 0 C1.98 0.99 1.98 0.99 4 2 C4 2.99 4 3.98 4 5 C5.175625 5.4640625 5.175625 5.4640625 6.375 5.9375 C9 7 9 7 11 8 C11 8.66 11 9.32 11 10 C11.99 10.33 12.98 10.66 14 11 C13.67 11.99 13.34 12.98 13 14 C9.535 12.02 9.535 12.02 6 10 C6 10.99 6 11.98 6 13 C7.32 13.66 8.64 14.32 10 15 C10 15.66 10 16.32 10 17 C10.66 17.226875 11.32 17.45375 12 17.6875 C14.57080124 18.81222554 16.90048176 20.01513756 19.3125 21.4375 C20.00988281 21.84871094 20.70726563 22.25992187 21.42578125 22.68359375 C22.20501953 23.33521484 22.20501953 23.33521484 23 24 C23 24.99 23 25.98 23 27 C18.00786149 26.53198701 13.87036007 24.08284263 10 21 C10 20.34 10 19.68 10 19 C9.01 18.67 8.02 18.34 7 18 C6.34 17.34 5.68 16.68 5 16 C2.42938689 15.35232207 2.42938689 15.35232207 0 15 C0 10 0 5 0 0 Z " fill="#95A0F3" transform="translate(28,7)"/>
<path d="M0 0 C4.2851348 1.29639992 7.91765395 2.94231739 11.765625 5.22265625 C12.82007813 5.84333984 13.87453125 6.46402344 14.9609375 7.10351562 C16.58902344 8.07321289 16.58902344 8.07321289 18.25 9.0625 C20.42166404 10.34540926 22.59352869 11.62797901 24.765625 12.91015625 C25.72243164 13.47871338 26.67923828 14.04727051 27.66503906 14.63305664 C29.08582929 15.46482206 30.52745701 16.2637285 32 17 C32 14.69 32 12.38 32 10 C32.99 10.33 33.98 10.66 35 11 C34.71476194 15.65582131 34.37128749 19.60187714 31.00390625 23.03515625 C25.05891131 27.16443845 25.05891131 27.16443845 21.7109375 26.64453125 C21.14632812 26.43183594 20.58171875 26.21914063 20 26 C20.33 25.34 20.66 24.68 21 24 C20.01 24.33 19.02 24.66 18 25 C18 24.01 18 23.02 18 22 C18.9075 21.87625 19.815 21.7525 20.75 21.625 C23.60996164 21.07500738 25.55989718 20.53636103 28 19 C28.33 18.34 28.66 17.68 29 17 C28.27554688 16.72285156 27.55109375 16.44570313 26.8046875 16.16015625 C24.14080926 15.05824561 21.66489711 13.79671011 19.125 12.4375 C14.69414166 10.18564374 11.00550199 9 6 9 C5.938125 8.236875 5.87625 7.47375 5.8125 6.6875 C5.23675967 3.76885423 5.23675967 3.76885423 2.4375 2.25 C1.633125 1.8375 0.82875 1.425 0 1 C0 0.67 0 0.34 0 0 Z " fill="#D9DAE6" transform="translate(27,30)"/>
<path d="M0 0 C1.05574219 0.59167969 2.11148437 1.18335938 3.19921875 1.79296875 C4.26785156 2.37691406 5.33648438 2.96085937 6.4375 3.5625 C7.64986328 4.26439453 7.64986328 4.26439453 8.88671875 4.98046875 C7.89671875 5.47546875 7.89671875 5.47546875 6.88671875 5.98046875 C6.55671875 6.97046875 6.22671875 7.96046875 5.88671875 8.98046875 C3.6857595 10.5525825 2.3458785 10.99322319 -0.36328125 10.91796875 C-4.33944971 9.56245677 -7.64184125 7.31486141 -11.11328125 4.98046875 C-5.09696488 -1.66914408 -5.09696488 -1.66914408 0 0 Z " fill="#CCD1DE" transform="translate(25.11328125,43.01953125)"/>
<path d="M0 0 C4.44936709 -0.36075949 4.44936709 -0.36075949 6.8125 1.1875 C8.36678206 3.55982525 8.22537188 5.22041345 8 8 C10.475 8.99 10.475 8.99 13 10 C13 13.96 13 17.92 13 22 C12.01 21.67 11.02 21.34 10 21 C9.67 18.03 9.34 15.06 9 12 C6.525 11.01 6.525 11.01 4 10 C4 8.02 4 6.04 4 4 C3.67 5.65 3.34 7.3 3 9 C2.01 8.67 1.02 8.34 0 8 C-0.33 7.01 -0.66 6.02 -1 5 C-0.67 4.67 -0.34 4.34 0 4 C0 2.68 0 1.36 0 0 Z " fill="#8895DF" transform="translate(48,10)"/>
<path d="M0 0 C2.43189168 0.85116209 4.69691285 1.84845643 7 3 C7 5.97 7 8.94 7 12 C4.07238473 11.67470941 1.67384706 11.40430823 -0.875 9.875 C-2.611916 6.98014 -2.18630572 4.29140103 -2 1 C-1.34 0.67 -0.68 0.34 0 0 Z " fill="#91CC95" transform="translate(10,1)"/>
<path d="M0 0 C3.37462715 0.54723683 5.08235 1.0549 8 3 C8.29296875 5.1640625 8.29296875 5.1640625 8.1875 7.625 C8.16042969 8.44226562 8.13335937 9.25953125 8.10546875 10.1015625 C8.07066406 10.72804688 8.03585937 11.35453125 8 12 C4.62537285 11.45276317 2.91765 10.9451 0 9 C-0.29296875 6.8359375 -0.29296875 6.8359375 -0.1875 4.375 C-0.16042969 3.55773437 -0.13335938 2.74046875 -0.10546875 1.8984375 C-0.05326172 0.95871094 -0.05326172 0.95871094 0 0 Z " fill="#F1BD67" transform="translate(5,18)"/>
<path d="M0 0 C3.465 1.485 3.465 1.485 7 3 C7 5.97 7 8.94 7 12 C1.25 11.125 1.25 11.125 -1 10 C-1.02689216 8.52093108 -1.04634621 7.04172517 -1.0625 5.5625 C-1.07410156 4.73878906 -1.08570313 3.91507813 -1.09765625 3.06640625 C-1 1 -1 1 0 0 Z " fill="#E8CCC0" transform="translate(16,15)"/>
<path d="M0 0 C4.31069007 1.30271179 7.96332585 2.9675583 11.8359375 5.2578125 C12.89941406 5.88300781 13.96289062 6.50820313 15.05859375 7.15234375 C16.15300781 7.80332031 17.24742188 8.45429687 18.375 9.125 C19.49261719 9.78371094 20.61023438 10.44242188 21.76171875 11.12109375 C24.51083725 12.74236876 27.25676282 14.36880013 30 16 C29.67 16.99 29.34 17.98 29 19 C29 18.34 29 17.68 29 17 C28.27554688 16.72285156 27.55109375 16.44570313 26.8046875 16.16015625 C24.14080926 15.05824561 21.66489711 13.79671011 19.125 12.4375 C14.69414166 10.18564374 11.00550199 9 6 9 C5.938125 8.236875 5.87625 7.47375 5.8125 6.6875 C5.23675967 3.76885423 5.23675967 3.76885423 2.4375 2.25 C1.633125 1.8375 0.82875 1.425 0 1 C0 0.67 0 0.34 0 0 Z " fill="#CACEDB" transform="translate(27,30)"/>
<path d="M0 0 C4.75 1.875 4.75 1.875 7 3 C7 5.64 7 8.28 7 11 C3.62537285 10.45276317 1.91765 9.9451 -1 8 C-1.25 4.4375 -1.25 4.4375 -1 1 C-0.67 0.67 -0.34 0.34 0 0 Z " fill="#E55E7C" transform="translate(55,29)"/>
<path d="M0 0 C5.59517659 1.43466066 10.64939283 4.20046974 15 8 C15 8.99 15 9.98 15 11 C10.00786149 10.53198701 5.87036007 8.08284263 2 5 C2 4.34 2 3.68 2 3 C1.01 2.67 0.02 2.34 -1 2 C-0.67 1.34 -0.34 0.68 0 0 Z " fill="#97A2EE" transform="translate(36,23)"/>
<path d="M0 0 C0.8971875 0.61875 0.8971875 0.61875 1.8125 1.25 C2.8025 1.58 3.7925 1.91 4.8125 2.25 C4.8125 3.9 4.8125 5.55 4.8125 7.25 C-4.78203303 5.50740319 -4.78203303 5.50740319 -8.1875 2.25 C-2.77164465 -0.95027816 -2.77164465 -0.95027816 0 0 Z " fill="#808394" transform="translate(27.1875,30.75)"/>
<path d="M0 0 C0.66 0.66 1.32 1.32 2 2 C0.68 2.33 -0.64 2.66 -2 3 C-1.01 3.33 -0.02 3.66 1 4 C0.67 4.99 0.34 5.98 0 7 C-3.0831351 5.80100302 -6.06279492 4.52299523 -9 3 C-9 2.34 -9 1.68 -9 1 C-5.66429909 -1.10025613 -3.74952434 -1.18406032 0 0 Z " fill="#76798B" transform="translate(23,35)"/>
<path d="M0 0 C0.66 0.33 1.32 0.66 2 1 C1.67 1.66 1.34 2.32 1 3 C4.58327753 4.00217064 4.58327753 4.00217064 8 3 C8 3.99 8 4.98 8 6 C7.01 6.495 7.01 6.495 6 7 C6.33 7.66 6.66 8.32 7 9 C2.80639551 8.32902328 -0.40334352 6.1441606 -4 4 C-3.01 3.67 -2.02 3.34 -1 3 C-0.67 2.01 -0.34 1.02 0 0 Z " fill="#727587" transform="translate(27,39)"/>
<path d="M0 0 C0 0.66 0 1.32 0 2 C-1.609375 3.32421875 -1.609375 3.32421875 -3.75 4.6875 C-4.44609375 5.14511719 -5.1421875 5.60273437 -5.859375 6.07421875 C-8.39090725 7.16906025 -9.46100862 6.9435441 -12 6 C-11.67 5.34 -11.34 4.68 -11 4 C-11.99 4.33 -12.98 4.66 -14 5 C-14 4.01 -14 3.02 -14 2 C-11 2 -8 2 -5 2 C-2 0 -2 0 0 0 Z " fill="#C3C7D5" transform="translate(59,50)"/>
<path d="M0 0 C2.4375 0.8125 2.4375 0.8125 5 2 C5.33 2.99 5.66 3.98 6 5 C5.01 5.33 4.02 5.66 3 6 C3.99 6.33 4.98 6.66 6 7 C6 7.66 6 8.32 6 9 C3.03 8.505 3.03 8.505 0 8 C0 5.36 0 2.72 0 0 Z " fill="#DFB6A5" transform="translate(15,17)"/>
<path d="M0 0 C2.02045442 0.60183749 4.02111039 1.27306096 6 2 C6.33 2.66 6.66 3.32 7 4 C6.67 4.99 6.34 5.98 6 7 C4.68 6.34 3.36 5.68 2 5 C2 4.34 2 3.68 2 3 C1.01 2.67 0.02 2.34 -1 2 C-0.67 1.34 -0.34 0.68 0 0 Z " fill="#998CDB" transform="translate(36,23)"/>
<path d="M0 0 C0.66 0 1.32 0 2 0 C2.33 1.32 2.66 2.64 3 4 C2.01 4.495 2.01 4.495 1 5 C1.99 5.33 2.98 5.66 4 6 C4.33 6.99 4.66 7.98 5 9 C1.62496331 7.8141763 -0.64722731 6.72426311 -3 4 C-1.625 2 -1.625 2 0 0 Z " fill="#747789" transform="translate(40,46)"/>
<path d="M0 0 C4.97360357 1.27231719 7.67296922 3.08584614 11 7 C11 7.66 11 8.32 11 9 C9.35 9 7.7 9 6 9 C5.938125 8.236875 5.87625 7.47375 5.8125 6.6875 C5.23675967 3.76885423 5.23675967 3.76885423 2.4375 2.25 C1.633125 1.8375 0.82875 1.425 0 1 C0 0.67 0 0.34 0 0 Z " fill="#A6AAB9" transform="translate(27,30)"/>
<path d="M0 0 C0.99 0.33 1.98 0.66 3 1 C2.34 1.66 1.68 2.32 1 3 C0.34 2.67 -0.32 2.34 -1 2 C-1 2.99 -1 3.98 -1 5 C-0.195625 5.28875 0.60875 5.5775 1.4375 5.875 C4 7 4 7 5 9 C4.21625 8.649375 3.4325 8.29875 2.625 7.9375 C1.75875 7.628125 0.8925 7.31875 0 7 C-0.99 7.495 -0.99 7.495 -2 8 C-2 5.69 -2 3.38 -2 1 C-1.34 0.67 -0.68 0.34 0 0 Z " fill="#9FCAA1" transform="translate(10,1)"/>
<path d="M0 0 C0.99 0 1.98 0 3 0 C3 0.66 3 1.32 3 2 C4.65 1.67 6.3 1.34 8 1 C7.34 2.32 6.68 3.64 6 5 C4.125 4.75 4.125 4.75 2 4 C0.75 1.9375 0.75 1.9375 0 0 Z " fill="#808394" transform="translate(32,45)"/>
<path d="M0 0 C1.65 0.33 3.3 0.66 5 1 C4.67 1.99 4.34 2.98 4 4 C3.01 4.33 2.02 4.66 1 5 C0.34 4.67 -0.32 4.34 -1 4 C-0.67 2.68 -0.34 1.36 0 0 Z " fill="#818495" transform="translate(51,46)"/>
<path d="M0 0 C4.51478398 0.53115106 7.34666857 2.36620292 11 5 C8 6 8 6 5.95703125 5.0390625 C5.24933594 4.57242188 4.54164062 4.10578125 3.8125 3.625 C3.09707031 3.16351563 2.38164062 2.70203125 1.64453125 2.2265625 C1.10183594 1.82179687 0.55914063 1.41703125 0 1 C0 0.67 0 0.34 0 0 Z " fill="#64677A" transform="translate(23,42)"/>
<path d="M0 0 C4.455 0.99 4.455 0.99 9 2 C8.67 2.66 8.34 3.32 8 4 C4.28400809 4.20086443 3.22791555 4.1519437 0 2 C0 1.34 0 0.68 0 0 Z " fill="#92A4FA" transform="translate(29,24)"/>
<path d="M0 0 C1.98 0.99 1.98 0.99 4 2 C3.67 2.66 3.34 3.32 3 4 C3.39938767 6.09821215 3.39938767 6.09821215 4 8 C3.34 8 2.68 8 2 8 C0.74335022 5.09399739 0 3.20395416 0 0 Z " fill="#9093E4" transform="translate(28,7)"/>
<path d="M0 0 C2.475 0.495 2.475 0.495 5 1 C5 2.32 5 3.64 5 5 C2.525 4.01 2.525 4.01 0 3 C0 2.01 0 1.02 0 0 Z " fill="#7A88CC" transform="translate(27,4)"/>
<path d="M0 0 C1.32 0 2.64 0 4 0 C4.66 1.65 5.32 3.3 6 5 C4.02 4.34 2.04 3.68 0 3 C0 2.01 0 1.02 0 0 Z " fill="#6DAF6D" transform="translate(9,3)"/>
<path d="M0 0 C0.66 0.33 1.32 0.66 2 1 C1.34 2.32 0.68 3.64 0 5 C0.66 5.33 1.32 5.66 2 6 C0.68 6.33 -0.64 6.66 -2 7 C-2.33 6.34 -2.66 5.68 -3 5 C-1.5625 2.375 -1.5625 2.375 0 0 Z " fill="#6C6F81" transform="translate(50,45)"/>
<path d="M0 0 C3.25696479 0.41755959 4.63443291 0.63443291 7 3 C5.02 3.33 3.04 3.66 1 4 C0.34 3.01 -0.32 2.02 -1 1 C-0.67 0.67 -0.34 0.34 0 0 Z " fill="#66697B" transform="translate(18,34)"/>
<path d="M0 0 C4.95 0.99 4.95 0.99 10 2 C9.01 2.66 8.02 3.32 7 4 C3.3125 3.125 3.3125 3.125 0 2 C0 1.34 0 0.68 0 0 Z " fill="#8E96EB" transform="translate(28,20)"/>
<path d="M0 0 C1.98 0.99 3.96 1.98 6 3 C6 3.66 6 4.32 6 5 C3.03 4.505 3.03 4.505 0 4 C0 2.68 0 1.36 0 0 Z " fill="#77B379" transform="translate(9,7)"/>
</svg>
