<?xml version="1.0" encoding="UTF-8"?>
<svg version="1.1" xmlns="http://www.w3.org/2000/svg" width="134" height="144">
<path d="M0 0 C1.890625 0.2578125 1.890625 0.2578125 4 1 C5.046875 2.7421875 5.046875 2.7421875 5.75 4.875 C5.99234375 5.57367188 6.2346875 6.27234375 6.484375 6.9921875 C7 9 7 9 7 12 C8.27875 12.20625 9.5575 12.4125 10.875 12.625 C21.25200048 14.95819351 28.9295078 21.6857463 35.25 29.9375 C39.33248911 37.08185595 40.45585226 42.76089256 40 51 C37.36 51 34.72 51 32 51 C31.85304688 50.18917969 31.70609375 49.37835938 31.5546875 48.54296875 C29.03938146 36.12545217 24.65685866 26.39493323 14 19 C12.35 18.34 10.7 17.68 9 17 C8.67 21.62 8.34 26.24 8 31 C9.134375 31.61875 10.26875 32.2375 11.4375 32.875 C14.875 34.75 14.875 34.75 16 37 C16.37987066 41.59684787 16.41746747 46.20214104 16.5 50.8125 C16.55414063 52.09705078 16.60828125 53.38160156 16.6640625 54.70507812 C16.79948444 63.99599059 16.79948444 63.99599059 14.40625 67.00146484 C12.46875 68.38671875 12.46875 68.38671875 9 70 C11.84701236 69.05099588 13.79379668 67.90028361 16.3125 66.3125 C20.54799826 63.93046127 20.54799826 63.93046127 24.25 64.5 C26.87877427 65.93387687 29.43865903 67.44971467 32 69 C34.19130534 69.69579454 34.19130534 69.69579454 36 70 C36.8125 72.1875 36.8125 72.1875 37 75 C35.38803209 76.71962642 33.70966297 78.37746862 32 80 C30.71624398 81.44742998 29.4326593 82.89505229 28.15893555 84.35131836 C19.32190531 94.35166391 10.15196058 100.6185125 -3 104 C-6.421875 104.12890625 -6.421875 104.12890625 -9 104 C-9 104.66 -9 105.32 -9 106 C-8.28972656 106.26039062 -7.57945313 106.52078125 -6.84765625 106.7890625 C-3.83051465 108.07207196 -1.21878424 109.64190043 1.5625 111.375 C10.01012651 116.34602346 19.00664811 120.37975273 29 119 C32.41471924 118.11539972 32.41471924 118.11539972 35 117 C35.66 113.7 36.32 110.4 37 107 C38.485 107.495 38.485 107.495 40 108 C40.37170491 112.64631139 40.42492292 116.0821665 38.4375 120.375 C34.57400963 124.53568194 30.47828529 126.11878102 24.875 126.4375 C8.84134887 125.76154506 -7.04218968 115.78495615 -20 107 C-20.75023437 107.92941406 -21.50046875 108.85882813 -22.2734375 109.81640625 C-29.97033908 119.18352156 -38.29125151 129.02198467 -51 131 C-53.2578125 130.5625 -53.2578125 130.5625 -55 130 C-54.34 129.01 -53.68 128.02 -53 127 C-52.855625 125.865625 -52.71125 124.73125 -52.5625 123.5625 C-52.00338034 120.0214088 -51.55456244 118.45631004 -49 116 C-48.01 116 -47.02 116 -46 116 C-45.67 118.97 -45.34 121.94 -45 125 C-36.70743374 119.59045677 -30.89033164 113.91195164 -25 106 C-26.03898437 105.82984375 -27.07796875 105.6596875 -28.1484375 105.484375 C-51.05119189 101.57971523 -51.05119189 101.57971523 -58 92 C-59.625 88.375 -59.625 88.375 -60 85 C-58.625 82.0625 -58.625 82.0625 -57 80 C-44.64277612 80.21305558 -34.24378469 87.51653522 -24.42578125 94.3984375 C-22.01977137 96.13718722 -22.01977137 96.13718722 -19 97 C-16.25477117 92.57221156 -14.51525603 89.28137429 -14 84 C-13.34 84 -12.68 84 -12 84 C-12 83.34 -12 82.68 -12 82 C-12.65355469 81.76539062 -13.30710938 81.53078125 -13.98046875 81.2890625 C-17.93124152 79.60244541 -21.58704258 77.50573525 -25.3125 75.375 C-26.05306641 74.95476562 -26.79363281 74.53453125 -27.55664062 74.1015625 C-29.37269011 73.07051505 -31.18656533 72.03563954 -33 71 C-33 74.63 -33 78.26 -33 82 C-33.66 82 -34.32 82 -35 82 C-35 81.34 -35 80.68 -35 80 C-35.8971875 79.814375 -35.8971875 79.814375 -36.8125 79.625 C-39 79 -39 79 -42 77 C-44.15274948 77.30840599 -44.15274948 77.30840599 -46 78 C-46.10957031 77.41992188 -46.21914063 76.83984375 -46.33203125 76.2421875 C-47.07563198 72.57859368 -47.70209645 69.52431024 -49.5625 66.25 C-53.51468116 57.31463391 -52.42804047 46.97728112 -49.2890625 37.95703125 C-44.76820441 27.56735281 -35.57116339 19.44870489 -25.41015625 14.8203125 C-16.68556383 11.39055881 -7.30247443 8.88580127 2 11 C1.505 9.6696875 1.505 9.6696875 1 8.3125 C0.08777857 5.29076653 -0.18330958 3.11626294 0 0 Z M-36.8125 27.875 C-45.15026746 37.97317776 -45.02757599 46.43495692 -44 59 C-43.94972656 59.91523437 -43.89945313 60.83046875 -43.84765625 61.7734375 C-43.47685328 67.07320678 -42.22232019 69.9461133 -39 74 C-37.75455354 70.26366062 -38.55471687 69.54958998 -40 66 C-41.40143867 57.07831059 -43.75084753 41.62985719 -38.46777344 33.70019531 C-34.54655105 30.22407401 -29.99607792 28.39121091 -25.07275391 26.73925781 C-22.3880334 25.78173912 -20.13208088 24.3626787 -17.75 22.8125 C-15.36940968 21.34184607 -14.40359581 20.96734662 -11.5859375 21.1953125 C-8.65738634 22.10661392 -6.44751634 23.39862475 -3.875 25.0625 C-0.24434068 27.50543881 -0.24434068 27.50543881 4 28 C4.02685938 25.85423363 4.04633088 23.70837355 4.0625 21.5625 C4.07410156 20.36753906 4.08570313 19.17257813 4.09765625 17.94140625 C4.33901792 15.11126659 4.33901792 15.11126659 3 14 C-12.59808331 12.842478 -25.83482509 15.98834564 -36.8125 27.875 Z M-57 84 C-56.36188151 89.55936565 -53.80675183 91.6476929 -49.6640625 95.1328125 C-42.7985382 99.94471956 -35.23186491 101.46020558 -27 102 C-30.68755743 98.11028914 -34.5600136 94.95667503 -38.9375 91.875 C-39.82985352 91.23111328 -39.82985352 91.23111328 -40.74023438 90.57421875 C-48.16614037 85.20085212 -48.16614037 85.20085212 -57 84 Z M15.48046875 86.22265625 C14.78759766 86.67833984 14.09472656 87.13402344 13.38085938 87.60351562 C11.92491995 88.57198112 10.47430658 89.54850421 9.02929688 90.53320312 C3.68977417 94.01550054 3.68977417 94.01550054 0.21875 93.9375 C-1.86944433 93.05516437 -3.76758139 92.14122425 -5.6875 90.9375 C-8.64814247 88.83170556 -8.64814247 88.83170556 -11 89 C-11.86916887 90.40751221 -12.71985149 91.8264521 -13.5625 93.25 C-14.03816406 94.03890625 -14.51382813 94.8278125 -15.00390625 95.640625 C-16.13022151 98.30844625 -16.0169313 99.34501768 -15 102 C-3.44692408 102.77020506 7.2900922 98.37290891 15.9375 90.9375 C19.23816436 87.99644442 19.23816436 87.99644442 21 84 C18.45539035 84 17.57664085 84.80306773 15.48046875 86.22265625 Z " fill="#0A407A" transform="translate(71,4)"/>
<path d="M0 0 C3.06630664 0.8974556 4.73038808 1.73038808 7 4 C6.01 4.99 5.02 5.98 4 7 C5.36555166 7.99230087 6.74298245 8.96826327 8.125 9.9375 C9.27355469 10.75541016 9.27355469 10.75541016 10.4453125 11.58984375 C13.44964684 13.24819955 15.56693021 13.85494071 19 14 C21.94718696 12.88303407 21.94718696 12.88303407 24.6875 11.125 C27.50311757 9.450428 29.88708529 8.03763824 33 7 C33 4.69 33 2.38 33 0 C37.10958767 1.45044271 40.43258745 3.51110752 44 6 C40.8084379 9.55767645 37.21231165 11.79300343 33.0625 14.0625 C28.09979243 16.8109569 28.09979243 16.8109569 23.24609375 19.74609375 C21 21 21 21 18 21 C18 21.66 18 22.32 18 23 C21.28696233 23.79953138 22.71023192 24.09658936 26 23 C25.50313314 27.84445187 23.93937681 31.62313462 21.83984375 35.94921875 C20.810512 38.09335543 20.810512 38.09335543 21 41 C20.34 41 19.68 41 19 41 C18.71125 41.928125 18.4225 42.85625 18.125 43.8125 C17 47 17 47 15 50 C15 50.99 15 51.98 15 53 C26.23889624 53.74925975 36.99043723 49.5582036 45.5 42.375 C47.4950661 40.67881318 47.4950661 40.67881318 49 39 C49 38.34 49 37.68 49 37 C47.84371094 37.77537109 47.84371094 37.77537109 46.6640625 38.56640625 C45.66117187 39.22511719 44.65828125 39.88382813 43.625 40.5625 C42.62726563 41.22378906 41.62953125 41.88507813 40.6015625 42.56640625 C39.74304688 43.03949219 38.88453125 43.51257813 38 44 C37.34 43.67 36.68 43.34 36 43 C36.625 41.125 36.625 41.125 38 39 C41.125 37.75 41.125 37.75 44 37 C43.319375 36.38125 43.319375 36.38125 42.625 35.75 C40.93847545 33.93374279 40.0999787 32.1999574 39 30 C38.34 29.67 37.68 29.34 37 29 C36 26 36 26 36.9375 23.8125 C37.288125 23.214375 37.63875 22.61625 38 22 C38.99 22 39.98 22 41 22 C42.63339086 21.00478423 44.23458931 19.95602637 45.8125 18.875 C50.56057066 15.94196216 50.56057066 15.94196216 54.3125 16.4375 C56.88940011 17.93569774 59.44996942 19.45656044 62 21 C64.19130534 21.69579454 64.19130534 21.69579454 66 22 C66.8125 24.1875 66.8125 24.1875 67 27 C65.38803209 28.71962642 63.70966297 30.37746862 62 32 C60.71624398 33.44742998 59.4326593 34.89505229 58.15893555 36.35131836 C49.32190531 46.35166391 40.15196058 52.6185125 27 56 C23.578125 56.12890625 23.578125 56.12890625 21 56 C21 56.66 21 57.32 21 58 C21.71027344 58.26039062 22.42054687 58.52078125 23.15234375 58.7890625 C26.16948535 60.07207196 28.78121576 61.64190043 31.5625 63.375 C40.01012651 68.34602346 49.00664811 72.37975273 59 71 C62.41471924 70.11539972 62.41471924 70.11539972 65 69 C65.66 65.7 66.32 62.4 67 59 C68.485 59.495 68.485 59.495 70 60 C70.37170491 64.64631139 70.42492292 68.0821665 68.4375 72.375 C64.57400963 76.53568194 60.47828529 78.11878102 54.875 78.4375 C38.84134887 77.76154506 22.95781032 67.78495615 10 59 C9.24976563 59.92941406 8.49953125 60.85882813 7.7265625 61.81640625 C0.02966092 71.18352156 -8.29125151 81.02198467 -21 83 C-23.2578125 82.5625 -23.2578125 82.5625 -25 82 C-24.34 81.01 -23.68 80.02 -23 79 C-22.855625 77.865625 -22.71125 76.73125 -22.5625 75.5625 C-22.00338034 72.0214088 -21.55456244 70.45631004 -19 68 C-18.01 68 -17.02 68 -16 68 C-15.67 70.97 -15.34 73.94 -15 77 C-6.70743374 71.59045677 -0.89033164 65.91195164 5 58 C3.96101563 57.82984375 2.92203125 57.6596875 1.8515625 57.484375 C-21.05119189 53.57971523 -21.05119189 53.57971523 -28 44 C-29.625 40.375 -29.625 40.375 -30 37 C-28.625 34.0625 -28.625 34.0625 -27 32 C-14.64277612 32.21305558 -4.24378469 39.51653522 5.57421875 46.3984375 C7.98022863 48.13718722 7.98022863 48.13718722 11 49 C13.74522883 44.57221156 15.48474397 41.28137429 16 36 C16.66 36 17.32 36 18 36 C18.35131202 31.96797664 18.35131202 31.96797664 18 28 C15.6450037 25.91783124 15.6450037 25.91783124 13 25 C13.33 23.35 13.66 21.7 14 20 C13.46761719 19.89558594 12.93523438 19.79117188 12.38671875 19.68359375 C7.06277734 18.15873328 2.22847502 15.56082107 -2 12 C-3.28215015 8.56762917 -3.37903888 5.62273697 -3 2 C-2.01 1.34 -1.02 0.68 0 0 Z M-27 36 C-26.36188151 41.55936565 -23.80675183 43.6476929 -19.6640625 47.1328125 C-12.7985382 51.94471956 -5.23186491 53.46020558 3 54 C-0.68755743 50.11028914 -4.5600136 46.95667503 -8.9375 43.875 C-9.82985352 43.23111328 -9.82985352 43.23111328 -10.74023438 42.57421875 C-18.16614037 37.20085212 -18.16614037 37.20085212 -27 36 Z " fill="#6E7DC0" transform="translate(41,52)"/>
<path d="M0 0 C1.890625 0.2578125 1.890625 0.2578125 4 1 C5.046875 2.7421875 5.046875 2.7421875 5.75 4.875 C5.99234375 5.57367188 6.2346875 6.27234375 6.484375 6.9921875 C7 9 7 9 7 12 C8.27875 12.20625 9.5575 12.4125 10.875 12.625 C21.25200048 14.95819351 28.9295078 21.6857463 35.25 29.9375 C39.33248911 37.08185595 40.45585226 42.76089256 40 51 C37.36 51 34.72 51 32 51 C31.85304688 50.18917969 31.70609375 49.37835938 31.5546875 48.54296875 C29.03938146 36.12545217 24.65685866 26.39493323 14 19 C12.35 18.34 10.7 17.68 9 17 C8.67 21.95 8.34 26.9 8 32 C3 30 3 30 1 28 C1.99 28 2.98 28 4 28 C3.67 23.71 3.34 19.42 3 15 C-10.90415231 14.37195799 -21.81495355 15.89030397 -33 25 C-38.31652231 30.04357585 -42.76826446 36.6614493 -44 44 C-43.8716178 49.01274148 -43.41334673 54.00367144 -43 59 C-42.938125 59.92683594 -42.87625 60.85367188 -42.8125 61.80859375 C-42.451577 66.26749665 -41.68424731 69.38210145 -39 73 C-39.33 70.69 -39.66 68.38 -40 66 C-39.01 66 -38.02 66 -37 66 C-36.67 66.99 -36.34 67.98 -36 69 C-36.495 69.99 -36.495 69.99 -37 71 C-36.34 71 -35.68 71 -35 71 C-35 70.34 -35 69.68 -35 69 C-34.34 69.33 -33.68 69.66 -33 70 C-33 73.96 -33 77.92 -33 82 C-33.66 82 -34.32 82 -35 82 C-35 81.34 -35 80.68 -35 80 C-35.8971875 79.814375 -35.8971875 79.814375 -36.8125 79.625 C-39 79 -39 79 -42 77 C-44.15274948 77.30840599 -44.15274948 77.30840599 -46 78 C-46.10957031 77.41992188 -46.21914063 76.83984375 -46.33203125 76.2421875 C-47.07563198 72.57859368 -47.70209645 69.52431024 -49.5625 66.25 C-53.51468116 57.31463391 -52.42804047 46.97728112 -49.2890625 37.95703125 C-44.76820441 27.56735281 -35.57116339 19.44870489 -25.41015625 14.8203125 C-16.68556383 11.39055881 -7.30247443 8.88580127 2 11 C1.505 9.6696875 1.505 9.6696875 1 8.3125 C0.08777857 5.29076653 -0.18330958 3.11626294 0 0 Z " fill="#C08293" transform="translate(71,4)"/>
<path d="M0 0 C0.35040695 3.40024521 0.530811 6.61342582 0 10 C-4.38095238 14 -4.38095238 14 -8 14 C-8.38760409 16.63570779 -8.43980107 18.36884688 -6.88671875 20.59765625 C-5.59998915 22.07286455 -4.30051026 23.53692596 -3 25 C-3 25.66 -3 26.32 -3 27 C-1.54166642 28.62514468 -1.54166642 28.62514468 0 30 C-0.55429688 30.15855469 -1.10859375 30.31710938 -1.6796875 30.48046875 C-3.89559342 31.1941324 -5.93776148 31.91573026 -8 33 C-9.20450304 35.55183404 -9.20450304 35.55183404 -10 38 C-12.91317796 39.01481589 -14.49396449 39.1787448 -17.421875 38.14453125 C-18.19015625 37.70496094 -18.9584375 37.26539063 -19.75 36.8125 C-20.52859375 36.38582031 -21.3071875 35.95914063 -22.109375 35.51953125 C-24 34 -24 34 -24.9140625 32.16796875 C-25.03490176 29.11952374 -23.97599138 27.21691083 -22.625 24.5 C-21.07089975 21.33970676 -19.70195373 18.46079514 -19 15 C-20.98 15.99 -20.98 15.99 -23 17 C-23 16.34 -23 15.68 -23 15 C-24.32 15 -25.64 15 -27 15 C-27 14.34 -27 13.68 -27 13 C-26.16082031 12.5978125 -26.16082031 12.5978125 -25.3046875 12.1875 C-19.28464249 9.2452272 -13.47944975 6.03704163 -7.73583984 2.59179688 C-4.92510785 0.94038287 -3.32152634 0 0 0 Z " fill="#0D1650" transform="translate(86,60)"/>
<path d="M0 0 C3.06630664 0.8974556 4.73038808 1.73038808 7 4 C6.01 4.99 5.02 5.98 4 7 C5.36555166 7.99230087 6.74298245 8.96826327 8.125 9.9375 C8.89070313 10.48277344 9.65640625 11.02804688 10.4453125 11.58984375 C13.44964684 13.24819955 15.56693021 13.85494071 19 14 C21.94718696 12.88303407 21.94718696 12.88303407 24.6875 11.125 C27.50311757 9.450428 29.88708529 8.03763824 33 7 C33 4.69 33 2.38 33 0 C37.10958767 1.45044271 40.43258745 3.51110752 44 6 C40.84729925 9.4960642 37.33495221 11.75139244 33.25 14 C32.62601318 14.34595215 32.00202637 14.6919043 31.35913086 15.04833984 C29.57391278 16.03432773 27.78700208 17.01724914 26 18 C24.78763672 18.73089844 24.78763672 18.73089844 23.55078125 19.4765625 C20.30979881 21.34856415 18.3793728 22.04215253 14.625 21.625 C8.72640633 18.98080284 3.36946447 15.57964298 -2 12 C-2.51171875 9.6171875 -2.51171875 9.6171875 -2.6875 6.875 C-2.75324219 5.96492188 -2.81898437 5.05484375 -2.88671875 4.1171875 C-2.92410156 3.41851562 -2.96148437 2.71984375 -3 2 C-2.01 1.34 -1.02 0.68 0 0 Z " fill="#0C77DF" transform="translate(41,52)"/>
<path d="M0 0 C1.98 0.66 3.96 1.32 6 2 C6 2.66 6 3.32 6 4 C6.69351563 4.08121094 7.38703125 4.16242187 8.1015625 4.24609375 C12.88789549 5.49105637 16.59275547 8.53135783 20.6484375 11.28515625 C24.502762 13.2572407 26.7270725 13.51235336 31 13 C33.3748445 11.99193198 33.3748445 11.99193198 35.3125 10.5 C38.84722222 8 38.84722222 8 41 8 C40.1745848 13.28265729 39.25472463 18.87996025 35.234375 22.66015625 C31.9696186 24.89688821 30.12745918 26.06021144 26.07421875 25.84375 C22.63689837 24.90034314 20.47671096 23.5570149 17.625 21.4375 C16.75101563 20.79683594 15.87703125 20.15617187 14.9765625 19.49609375 C14.32429688 19.00238281 13.67203125 18.50867188 13 18 C13.99 17.01 14.98 16.02 16 15 C10.90479475 10.93467666 5.91577376 7.74660925 0 5 C0 3.35 0 1.7 0 0 Z " fill="#011D50" transform="translate(31,41)"/>
<path d="M0 0 C0.886875 0.515625 1.77375 1.03125 2.6875 1.5625 C3.63625 2.09875 4.585 2.635 5.5625 3.1875 C6.26375 3.64125 6.965 4.095 7.6875 4.5625 C7.006875 5.1503125 7.006875 5.1503125 6.3125 5.75 C4.53289855 7.51395032 4.53289855 7.51395032 3.75 10.0625 C2.52141093 12.95329782 1.3605562 13.97537288 -1.3125 15.5625 C-1.9725 15.5625 -2.6325 15.5625 -3.3125 15.5625 C-3.3125 16.8825 -3.3125 18.2025 -3.3125 19.5625 C-5.32421875 21.1953125 -5.32421875 21.1953125 -8 22.6875 C-8.87011719 23.18507813 -9.74023438 23.68265625 -10.63671875 24.1953125 C-13.15335634 25.48118572 -15.67081442 26.56294329 -18.3125 27.5625 C-18.25 25.75 -18.25 25.75 -17.3125 23.5625 C-13.75 21.8125 -13.75 21.8125 -10.3125 20.5625 C-10.76625 20.15 -11.22 19.7375 -11.6875 19.3125 C-13.37402455 17.49624279 -14.2125213 15.7624574 -15.3125 13.5625 C-15.9725 13.2325 -16.6325 12.9025 -17.3125 12.5625 C-18.3125 9.5625 -18.3125 9.5625 -17.375 7.375 C-17.024375 6.776875 -16.67375 6.17875 -16.3125 5.5625 C-15.3225 5.5625 -14.3325 5.5625 -13.3125 5.5625 C-11.67910914 4.56728423 -10.07791069 3.51852637 -8.5 2.4375 C-3.75192934 -0.49553784 -3.75192934 -0.49553784 0 0 Z " fill="#1BA2E2" transform="translate(95.3125,68.4375)"/>
<path d="M0 0 C3.66247452 -0.34652233 5.48487347 -0.34161022 8.59765625 1.72265625 C16.03354339 8.7814461 23.46904884 15.93185089 24.1796875 26.73046875 C24.18654707 29.16218522 24.13431725 31.57234005 24 34 C21.36 34 18.72 34 16 34 C15.77957031 32.78376953 15.77957031 32.78376953 15.5546875 31.54296875 C13.28919233 20.35871385 9.2482879 11.81261143 1.3203125 3.55859375 C0 2 0 2 0 0 Z " fill="#AC7293" transform="translate(87,21)"/>
<path d="M0 0 C1.44122613 0.59522337 2.87785868 1.20157619 4.3125 1.8125 C5.51326172 2.31716797 5.51326172 2.31716797 6.73828125 2.83203125 C9.1346125 4.06951492 10.38004631 4.84925298 12 7 C12.34057617 9.91088867 12.34057617 9.91088867 12.29296875 13.41796875 C12.28330078 14.67158203 12.27363281 15.92519531 12.26367188 17.21679688 C12.23853516 18.52712891 12.21339844 19.83746094 12.1875 21.1875 C12.17244967 22.52277163 12.15876187 23.85805937 12.14648438 25.19335938 C12.11107694 28.46264576 12.0616889 31.73112093 12 35 C11.67 35 11.34 35 11 35 C11 32.03 11 29.06 11 26 C10.34 25.67 9.68 25.34 9 25 C8.236875 24.38125 7.47375 23.7625 6.6875 23.125 C4.21465299 21.16972562 1.73274976 19.56157129 -1 18 C-0.9175 19.093125 -0.835 20.18625 -0.75 21.3125 C-1 25 -1 25 -3 26.9375 C-3.66 27.288125 -4.32 27.63875 -5 28 C-5.66 27.67 -6.32 27.34 -7 27 C-5.99806563 23.20696275 -5.18975773 20.28463659 -3 17 C-2.45994087 15.07750553 -2.45994087 15.07750553 -2.1484375 12.98828125 C-2.01953125 12.23095703 -1.890625 11.47363281 -1.7578125 10.69335938 C-1.63148437 9.90767578 -1.50515625 9.12199219 -1.375 8.3125 C-1.2409375 7.51521484 -1.106875 6.71792969 -0.96875 5.89648438 C-0.6393854 3.9320598 -0.31883687 1.96616073 0 0 Z " fill="#66528C" transform="translate(75,34)"/>
<path d="M0 0 C2.14080772 1.12009639 4.24470821 2.31273573 6.3125 3.5625 C7.38113281 4.20316406 8.44976562 4.84382813 9.55078125 5.50390625 C10.35902344 5.99761719 11.16726562 6.49132813 12 7 C8.94021323 9.51031802 5.90302727 11.84995912 2.5 13.875 C1.7678125 14.32617188 1.035625 14.77734375 0.28125 15.2421875 C-2 16 -2 16 -4.44921875 15.3203125 C-7.1143954 13.94078768 -9.73036566 12.53015369 -12.3125 11 C-13.19550781 10.484375 -14.07851563 9.96875 -14.98828125 9.4375 C-15.65214844 8.963125 -16.31601562 8.48875 -17 8 C-17 7.34 -17 6.68 -17 6 C-14.55078125 4.23828125 -14.55078125 4.23828125 -11.3125 2.3125 C-10.25675781 1.66925781 -9.20101562 1.02601562 -8.11328125 0.36328125 C-4.60034614 -1.17500527 -3.53716961 -1.31538495 0 0 Z " fill="#021443" transform="translate(61,33)"/>
<path d="M0 0 C1.4540625 0.0309375 1.4540625 0.0309375 2.9375 0.0625 C3.75 2.25 3.75 2.25 3.9375 5.0625 C2.32553209 6.78212642 0.64716297 8.43996862 -1.0625 10.0625 C-2.34625602 11.50992998 -3.6298407 12.95755229 -4.90356445 14.41381836 C-13.74059469 24.41416391 -22.91053942 30.6810125 -36.0625 34.0625 C-39.484375 34.19140625 -39.484375 34.19140625 -42.0625 34.0625 C-42.3925 34.7225 -42.7225 35.3825 -43.0625 36.0625 C-43.3925 35.4025 -43.7225 34.7425 -44.0625 34.0625 C-46.07919827 32.92899466 -46.07919827 32.92899466 -48.0625 32.0625 C-47.02351563 31.90394531 -45.98453125 31.74539062 -44.9140625 31.58203125 C-32.78285487 29.60677698 -22.63479667 26.45420739 -14.0625 17.0625 C-12.44912411 14.37871126 -12.0625 13.26080242 -12.0625 10.0625 C-11.11375 9.44375 -10.165 8.825 -9.1875 8.1875 C-5.84600054 5.91528036 -5.1800606 4.82156749 -4.0625 1.0625 C-3.0625 0.0625 -3.0625 0.0625 0 0 Z " fill="#B5B9D3" transform="translate(104.0625,73.9375)"/>
<path d="M0 0 C2.67578125 1.33984375 2.67578125 1.33984375 5.3125 2.9375 C6.19550781 3.46214844 7.07851562 3.98679687 7.98828125 4.52734375 C8.65214844 5.01332031 9.31601563 5.49929687 10 6 C10 6.66 10 7.32 10 8 C10.66 8 11.32 8 12 8 C12 9.65 12 11.3 12 13 C9.525 12.505 9.525 12.505 7 12 C7 11.34 7 10.68 7 10 C5.6078125 10.061875 5.6078125 10.061875 4.1875 10.125 C1 10 1 10 -2 8 C-2 7.34 -2 6.68 -2 6 C-8.29836547 7.61732558 -13.65245277 9.66973851 -19.1875 13.109375 C-19.785625 13.40328125 -20.38375 13.6971875 -21 14 C-21.66 13.67 -22.32 13.34 -23 13 C-22.67 12.34 -22.34 11.68 -22 11 C-22.66 11 -23.32 11 -24 11 C-24 12.65 -24 14.3 -24 16 C-26.31 15.67 -28.62 15.34 -31 15 C-27.04552587 10.63090426 -21.68553108 8.14084392 -16.625 5.25 C-15.5834375 4.63511719 -14.541875 4.02023438 -13.46875 3.38671875 C-12.46070312 2.81050781 -11.45265625 2.23429687 -10.4140625 1.640625 C-9.4957666 1.10985352 -8.5774707 0.57908203 -7.63134766 0.03222656 C-4.54064003 -1.18019799 -3.12256967 -1.00397538 0 0 Z " fill="#2974B0" transform="translate(62,25)"/>
<path d="M0 0 C6.16356805 1.6658292 11.48259656 4.87805286 17 8 C16.67 9.65 16.34 11.3 16 13 C16.61875 13.12375 17.2375 13.2475 17.875 13.375 C20 14 20 14 22 16 C21.625 19.125 21.625 19.125 21 22 C16.39172479 20.28550391 12.08435698 18.1161016 7.75 15.8125 C7.0178125 15.45091797 6.285625 15.08933594 5.53125 14.71679688 C3.46844704 13.60708528 1.72693825 12.58449879 0 11 C-1.10102333 7.02951433 -1.40646889 3.90685802 0 0 Z " fill="#0B1E4B" transform="translate(38,64)"/>
<path d="M0 0 C0.33 0 0.66 0 1 0 C1.07516846 0.70084717 1.15033691 1.40169434 1.2277832 2.1237793 C1.57694215 5.31318665 1.94452466 8.50021109 2.3125 11.6875 C2.43044922 12.79029297 2.54839844 13.89308594 2.66992188 15.02929688 C2.79560547 16.09599609 2.92128906 17.16269531 3.05078125 18.26171875 C3.16075439 19.24100342 3.27072754 20.22028809 3.3840332 21.22924805 C4.06677361 24.30036215 5.25304316 26.4033963 7 29 C6.67 26.69 6.34 24.38 6 22 C6.99 22 7.98 22 9 22 C9.33 22.99 9.66 23.98 10 25 C9.67 25.66 9.34 26.32 9 27 C9.66 27 10.32 27 11 27 C11 26.34 11 25.68 11 25 C11.66 25.33 12.32 25.66 13 26 C13 29.96 13 33.92 13 38 C12.34 38 11.68 38 11 38 C11 37.34 11 36.68 11 36 C10.1028125 35.814375 10.1028125 35.814375 9.1875 35.625 C7 35 7 35 4 33 C1.84725052 33.30840599 1.84725052 33.30840599 0 34 C-0.10957031 33.41992188 -0.21914063 32.83984375 -0.33203125 32.2421875 C-1.07563198 28.57859368 -1.70209645 25.52431024 -3.5625 22.25 C-5.85453923 17.06799826 -5.75863409 11.60967678 -6 6 C-4.0549 8.91765 -3.54723683 10.62537285 -3 14 C-2.34 14 -1.68 14 -1 14 C-0.67 9.38 -0.34 4.76 0 0 Z " fill="#BAA6C4" transform="translate(25,48)"/>
<path d="M0 0 C0.33 0 0.66 0 1 0 C0.95875 0.886875 0.9175 1.77375 0.875 2.6875 C1.66041917 6.11249925 1.66041917 6.11249925 4.29296875 7.51171875 C6.83332482 8.76219022 9.38064297 9.92563577 12 11 C11.505 11.4021875 11.01 11.804375 10.5 12.21875 C8.56084393 14.52149783 8.76964132 15.54373034 9 18.5 C9.20803632 24.37702606 7.77628284 29.43854301 6 35 C5.34 35 4.68 35 4 35 C4 33.35 4 31.7 4 30 C2.68 30 1.36 30 0 30 C0 20.1 0 10.2 0 0 Z " fill="#736798" transform="translate(30,40)"/>
<path d="M0 0 C0.33 0.66 0.66 1.32 1 2 C0.32904297 2.70962891 0.32904297 2.70962891 -0.35546875 3.43359375 C-6.24764255 9.87855145 -10.60969086 16.52526759 -13 25 C-13.66 25 -14.32 25 -15 25 C-15 29.62 -15 34.24 -15 39 C-16.32 39.66 -17.64 40.32 -19 41 C-20.86613505 30.26972345 -20.60663205 22.2352002 -14.64453125 12.87109375 C-10.85578118 7.51808761 -6.35648033 2.11882678 0 0 Z " fill="#BB8DA3" transform="translate(40,23)"/>
<path d="M0 0 C4.5067218 -0.17673419 7.96625544 -0.13551182 12 2 C12.495 2.99 12.495 2.99 13 4 C11.68 4 10.36 4 9 4 C7.13542386 5.98073982 5.51777901 7.91172948 3.875 10.0625 C-2.60460247 18.1015631 -10.36556081 25.34483437 -21 27 C-23.2578125 26.5625 -23.2578125 26.5625 -25 26 C-24.01 24.515 -24.01 24.515 -23 23 C-22.855625 21.865625 -22.71125 20.73125 -22.5625 19.5625 C-22.00338034 16.0214088 -21.55456244 14.45631004 -19 12 C-18.01 12 -17.02 12 -16 12 C-15.67 14.97 -15.34 17.94 -15 21 C-6.70743374 15.59045677 -0.89033164 9.91195164 5 2 C2.525 1.505 2.525 1.505 0 1 C0 0.67 0 0.34 0 0 Z " fill="#97ACD2" transform="translate(41,108)"/>
<path d="M0 0 C4.10958767 1.45044271 7.43258745 3.51110752 11 6 C7.78435628 9.56936453 4.14499951 11.90868228 0 14.25 C-0.61617187 14.61351563 -1.23234375 14.97703125 -1.8671875 15.3515625 C-5.26862506 17.29315561 -6.98916 18 -11 18 C-11.25 15.6875 -11.25 15.6875 -11 13 C-9.3125 11.375 -9.3125 11.375 -7 10 C-6.13375 9.443125 -5.2675 8.88625 -4.375 8.3125 C-2 7 -2 7 0 7 C0 4.69 0 2.38 0 0 Z " fill="#11C4F8" transform="translate(74,52)"/>
<path d="M0 0 C1.4540625 0.0309375 1.4540625 0.0309375 2.9375 0.0625 C0.9575 1.0525 0.9575 1.0525 -1.0625 2.0625 C-0.0725 2.7225 0.9175 3.3825 1.9375 4.0625 C0.2875 4.0625 -1.3625 4.0625 -3.0625 4.0625 C-0.4583564 10.49626655 3.31771936 14.3631991 9.55859375 17.29296875 C16.0224765 19.77631899 21.99773483 21.0625 28.9375 21.0625 C28.9375 21.7225 28.9375 22.3825 28.9375 23.0625 C20.24626412 25.16946627 12.99459034 23.69567071 4.9375 20.0625 C-0.6214462 16.47493727 -4.38824038 12.52035853 -6.0625 6.0625 C-4.95184531 1.80499035 -4.49329623 0.09169992 0 0 Z " fill="#A3A6C8" transform="translate(17.0625,83.9375)"/>
<path d="M0 0 C1.32 0 2.64 0 4 0 C3.95875 0.680625 3.9175 1.36125 3.875 2.0625 C4.06763945 6.58952701 4.7354972 10.7354972 8 14 C4.63378119 17.78699616 0.58358196 20.8272631 -4 23 C-4.66 22.67 -5.32 22.34 -6 22 C-5.375 20.125 -5.375 20.125 -4 18 C-0.875 16.75 -0.875 16.75 2 16 C1.54625 15.5875 1.0925 15.175 0.625 14.75 C-1.06152455 12.93374279 -1.9000213 11.1999574 -3 9 C-3.66 8.67 -4.32 8.34 -5 8 C-6 5 -6 5 -5.0625 2.8125 C-4.5365625 1.9153125 -4.5365625 1.9153125 -4 1 C-3.01 1 -2.02 1 -1 1 C-0.67 0.67 -0.34 0.34 0 0 Z " fill="#0955B4" transform="translate(83,73)"/>
<path d="M0 0 C3.33566554 1.04450133 6.02990163 2.60323725 9.01953125 4.41015625 C10.08816406 5.05082031 11.15679687 5.69148438 12.2578125 6.3515625 C13.06605469 6.84527344 13.87429687 7.33898438 14.70703125 7.84765625 C12.01861266 10.10011506 10.0606125 11.72979583 6.70703125 12.84765625 C4.515625 12.2109375 4.515625 12.2109375 2.14453125 11.16015625 C1.35949219 10.82628906 0.57445312 10.49242187 -0.234375 10.1484375 C-2.6343849 8.6319227 -3.40125041 7.52281128 -4.29296875 4.84765625 C-3.96296875 4.18765625 -3.63296875 3.52765625 -3.29296875 2.84765625 C-3.95296875 2.51765625 -4.61296875 2.18765625 -5.29296875 1.84765625 C-2.29296875 -0.15234375 -2.29296875 -0.15234375 0 0 Z " fill="#001C4F" transform="translate(58.29296875,32.15234375)"/>
<path d="M0 0 C0.5625 2.625 0.5625 2.625 0 6 C-3.47756333 9.43210498 -7.13582336 11.88586674 -12.0625 12.1875 C-16.02984368 10.58368021 -19.48172677 8.41992905 -23 6 C-21.3125 4.4375 -21.3125 4.4375 -19 3 C-16.35191526 3.27159843 -14.17276164 3.93463073 -11.6875 4.875 C-7.84885848 5.05354147 -5.7650144 3.2627073 -2.671875 1.12890625 C-1 0 -1 0 0 0 Z " fill="#012C87" transform="translate(69,55)"/>
<path d="M0 0 C3.80850758 -0.38531822 5.54618648 -0.30488599 8.7734375 1.86328125 C9.63195312 2.67152344 10.49046875 3.47976562 11.375 4.3125 C12.24898437 5.11300781 13.12296875 5.91351563 14.0234375 6.73828125 C16 9 16 9 16 12 C14.625 13.5625 14.625 13.5625 13 15 C12.34 15.66 11.68 16.32 11 17 C10.62488281 16.41992188 10.24976562 15.83984375 9.86328125 15.2421875 C7.43366836 11.53350888 5.03070875 7.91780266 2.125 4.5625 C0 2 0 2 0 0 Z " fill="#AC5D7E" transform="translate(87,21)"/>
<path d="M0 0 C6.16356805 1.6658292 11.48259656 4.87805286 17 8 C16.67 9.65 16.34 11.3 16 13 C16.61875 13.12375 17.2375 13.2475 17.875 13.375 C20 14 20 14 22 16 C21.625 18.625 21.625 18.625 21 21 C20.67 20.34 20.34 19.68 20 19 C19.01 19 18.02 19 17 19 C15.14223235 15.86501708 14.79859524 13.62528568 15 10 C13.68 10 12.36 10 11 10 C11 9.01 11 8.02 11 7 C10.13375 7.309375 10.13375 7.309375 9.25 7.625 C6.48032433 8.08661261 5.35438733 7.42944945 3 6 C2.67 6.99 2.34 7.98 2 9 C1.01 9 0.02 9 -1 9 C-0.67 6.03 -0.34 3.06 0 0 Z " fill="#06215B" transform="translate(38,64)"/>
<path d="M0 0 C0.99 0.33 1.98 0.66 3 1 C3.37170491 5.64631139 3.42492292 9.0821665 1.4375 13.375 C-2.02797784 17.10705306 -5.32068657 18.80801098 -10.453125 19.17578125 C-12.64524583 19.18612144 -14.81236927 19.13393658 -17 19 C-17 18.34 -17 17.68 -17 17 C-13.37 17 -9.74 17 -6 17 C-6 16.34 -6 15.68 -6 15 C-7.918125 15.061875 -7.918125 15.061875 -9.875 15.125 C-12.0546875 15.1953125 -12.0546875 15.1953125 -14 15 C-14.66 14.34 -15.32 13.68 -16 13 C-15.16855469 12.89042969 -14.33710937 12.78085938 -13.48046875 12.66796875 C-12.39378906 12.50941406 -11.30710937 12.35085937 -10.1875 12.1875 C-9.10855469 12.03667969 -8.02960938 11.88585937 -6.91796875 11.73046875 C-3.88233833 10.9705452 -2.74852218 10.55189724 -1 8 C-0.42982192 5.95899762 -0.42982192 5.95899762 -0.3125 3.8125 C-0.209375 2.554375 -0.10625 1.29625 0 0 Z " fill="#8DA3D6" transform="translate(108,111)"/>
<path d="M0 0 C10.61864854 1.63216117 10.61864854 1.63216117 14.6875 3.5625 C18.59329784 5.25746888 21.77782772 5.62963401 26 6 C26 6.66 26 7.32 26 8 C9.74743294 9.83464561 9.74743294 9.83464561 2.50390625 6.3984375 C0.4345157 4.47417304 0.32367955 2.74443785 0 0 Z " fill="#6689D2" transform="translate(76,120)"/>
<path d="M0 0 C0 3.3 0 6.6 0 10 C-2.31 11.32 -4.62 12.64 -7 14 C-7 13.34 -7 12.68 -7 12 C-8.65 12.66 -10.3 13.32 -12 14 C-11.814375 12.88625 -11.62875 11.7725 -11.4375 10.625 C-10.68319343 7.17431139 -10.68319343 7.17431139 -12 5 C-10.56705502 4.15885829 -9.12845595 3.32734313 -7.6875 2.5 C-6.88699219 2.0359375 -6.08648437 1.571875 -5.26171875 1.09375 C-3 0 -3 0 0 0 Z " fill="#284E7B" transform="translate(86,60)"/>
<path d="M0 0 C1.06723961 3.46222615 1.10173486 6.64039266 1.0625 10.25 C1.05347656 11.32765625 1.04445313 12.4053125 1.03515625 13.515625 C1.02355469 14.33546875 1.01195313 15.1553125 1 16 C-3.02277756 15.12548314 -5.78534475 13.63017248 -9 11 C-9.5625 8.4375 -9.5625 8.4375 -9 6 C-6.81212344 2.83973386 -3.40787738 1.59034278 0 0 Z " fill="#3C23BB" transform="translate(84,41)"/>
<path d="M0 0 C1.4540625 0.0309375 1.4540625 0.0309375 2.9375 0.0625 C3.75 2.25 3.75 2.25 3.9375 5.0625 C1.27430021 8.33443118 -1.27260014 10.30290364 -5.0625 12.0625 C-5.3925 12.7225 -5.7225 13.3825 -6.0625 14.0625 C-6.7225 14.0625 -7.3825 14.0625 -8.0625 14.0625 C-8.0625 14.7225 -8.0625 15.3825 -8.0625 16.0625 C-8.7225 16.0625 -9.3825 16.0625 -10.0625 16.0625 C-10.0625 14.7425 -10.0625 13.4225 -10.0625 12.0625 C-10.7225 12.0625 -11.3825 12.0625 -12.0625 12.0625 C-12.0625 11.4025 -12.0625 10.7425 -12.0625 10.0625 C-10.639375 9.1653125 -10.639375 9.1653125 -9.1875 8.25 C-5.87665455 5.93240819 -5.1803222 4.8224474 -4.0625 1.0625 C-3.0625 0.0625 -3.0625 0.0625 0 0 Z " fill="#5368A9" transform="translate(104.0625,73.9375)"/>
<path d="M0 0 C4.70430108 3.02419355 4.70430108 3.02419355 5.625 6.0625 C5.74875 6.701875 5.8725 7.34125 6 8 C6.96847718 9.03055905 7.96640455 10.03476404 9 11 C6.00699275 12.02375194 3.16875596 12.82986545 0 13 C-3.19475259 10.62092892 -4.80232523 8.29651215 -7 5 C-4.63707344 2.47411298 -3.33537489 1.11179163 0 0 Z " fill="#042E7A" transform="translate(77,79)"/>
<path d="M0 0 C0.61488281 0.22816406 1.22976562 0.45632812 1.86328125 0.69140625 C2.67152344 0.97886719 3.47976562 1.26632813 4.3125 1.5625 C5.11300781 1.85253906 5.91351563 2.14257812 6.73828125 2.44140625 C9.1433174 3.24915625 9.1433174 3.24915625 12 2 C11.49487476 8.22987798 8.67395877 13.45474233 6 19 C5.01 18.67 4.02 18.34 3 18 C3.33 14.37 3.66 10.74 4 7 C2.35 6.01 0.7 5.02 -1 4 C-0.67 2.68 -0.34 1.36 0 0 Z " fill="#605299" transform="translate(55,73)"/>
<path d="M0 0 C0.99 0 1.98 0 3 0 C3.33 10.23 3.66 20.46 4 31 C2.35 31 0.7 31 -1 31 C-1.33 30.01 -1.66 29.02 -2 28 C-1.67 27.67 -1.34 27.34 -1 27 C-0.84174742 25.00217874 -0.74880829 22.99911166 -0.68359375 20.99609375 C-0.64169922 19.78115234 -0.59980469 18.56621094 -0.55664062 17.31445312 C-0.51732422 16.03505859 -0.47800781 14.75566406 -0.4375 13.4375 C-0.39431641 12.15423828 -0.35113281 10.87097656 -0.30664062 9.54882812 C-0.200152 6.36600147 -0.09814038 3.18309326 0 0 Z " fill="#9C8EC8" transform="translate(91,35)"/>
<path d="M0 0 C-0.41434907 4.83407252 -2.37793954 6.89537674 -6 10 C-6.99 10.33 -7.98 10.66 -9 11 C-9 10.01 -9 9.02 -9 8 C-10.98 8.99 -10.98 8.99 -13 10 C-13 9.34 -13 8.68 -13 8 C-14.32 8 -15.64 8 -17 8 C-17 7.34 -17 6.68 -17 6 C-13.66666667 4.33333333 -10.33333333 2.66666667 -7 1 C-6.29359375 0.59523438 -5.5871875 0.19046875 -4.859375 -0.2265625 C-3 -1 -3 -1 0 0 Z " fill="#082F68" transform="translate(76,67)"/>
<path d="M0 0 C0.99 0 1.98 0 3 0 C3.33 0.99 3.66 1.98 4 3 C3.67 3.66 3.34 4.32 3 5 C3.66 5 4.32 5 5 5 C5 4.34 5 3.68 5 3 C5.66 3.33 6.32 3.66 7 4 C7 7.96 7 11.92 7 16 C6.34 16 5.68 16 5 16 C5 15.34 5 14.68 5 14 C4.401875 13.87625 3.80375 13.7525 3.1875 13.625 C1 13 1 13 -2 11 C-2.99 11 -3.98 11 -5 11 C-4.67 8.69 -4.34 6.38 -4 4 C-3.67 4.66 -3.34 5.32 -3 6 C-0.97536745 6.65213292 -0.97536745 6.65213292 1 7 C0.67 4.69 0.34 2.38 0 0 Z " fill="#B1A5C6" transform="translate(31,70)"/>
<path d="M0 0 C0 0.33 0 0.66 0 1 C4.29 1.33 8.58 1.66 13 2 C11 4 11 4 7.69140625 4.0546875 C6.31498094 3.99769371 4.93868091 3.9376182 3.5625 3.875 C-4.76876506 3.67581272 -11.54625155 5.17170719 -18.67578125 9.69921875 C-19.82626953 10.34310547 -19.82626953 10.34310547 -21 11 C-23 10 -23 10 -25 8 C-8.85227273 -0.43181818 -8.85227273 -0.43181818 0 0 Z " fill="#D2ADB7" transform="translate(63,15)"/>
<path d="M0 0 C4.32360629 0.29952694 7.39643108 1.56810876 11.140625 3.58203125 C11.75164063 3.89076172 12.36265625 4.19949219 12.9921875 4.51757812 C16.0478515 6.10212004 18.64925199 7.63023333 20.890625 10.26953125 C19.900625 10.59953125 18.910625 10.92953125 17.890625 11.26953125 C17.436875 10.77453125 16.983125 10.27953125 16.515625 9.76953125 C15.01426981 8.04343788 15.01426981 8.04343788 12.890625 8.26953125 C12.560625 8.92953125 12.230625 9.58953125 11.890625 10.26953125 C7.890625 8.26953125 3.890625 6.26953125 -0.109375 4.26953125 C-0.109375 3.60953125 -0.109375 2.94953125 -0.109375 2.26953125 C-1.429375 1.93953125 -2.749375 1.60953125 -4.109375 1.26953125 C-3.109375 0.26953125 -3.109375 0.26953125 0 0 Z " fill="#9291C0" transform="translate(19.109375,84.73046875)"/>
<path d="M0 0 C0.66 0 1.32 0 2 0 C2.90903937 4.52437917 3.07215588 8.64478245 2.8125 13.25 C2.75707031 14.47203125 2.70164062 15.6940625 2.64453125 16.953125 C2 20 2 20 -0.05078125 21.421875 C-0.69402344 21.61265625 -1.33726563 21.8034375 -2 22 C-3.13495783 15.4739925 -4.12390495 8.37171484 -2 2 C-1.34 1.34 -0.68 0.68 0 0 Z " fill="#97648E" transform="translate(23,42)"/>
<path d="M0 0 C-0.55429687 0.26554687 -1.10859375 0.53109375 -1.6796875 0.8046875 C-5.15669382 2.59587258 -8.43537618 4.69731045 -11.7578125 6.7578125 C-14 8 -14 8 -16 8 C-14.36587557 9.70840281 -13.13093906 10.93453047 -11 12 C-11 12.66 -11 13.32 -11 14 C-13.16967689 14.95465783 -14.56328793 15.14401212 -16.82421875 14.3984375 C-18.5684743 13.64129615 -20.28627131 12.82390802 -22 12 C-22 9.69 -22 7.38 -22 5 C-21.34 5 -20.68 5 -20 5 C-19.67 5.66 -19.34 6.32 -19 7 C-18.04738281 6.4946875 -17.09476563 5.989375 -16.11328125 5.46875 C-14.84662996 4.81196785 -13.57968735 4.1557473 -12.3125 3.5 C-11.68666016 3.16613281 -11.06082031 2.83226562 -10.41601562 2.48828125 C-6.79518683 0.6304738 -4.08595745 -0.43750214 0 0 Z " fill="#0A4C8C" transform="translate(60,31)"/>
<path d="M0 0 C0.33 0.66 0.66 1.32 1 2 C2.32 1.67 3.64 1.34 5 1 C4.67 2.32 4.34 3.64 4 5 C4.639375 5.45375 5.27875 5.9075 5.9375 6.375 C8 8 8 8 9 10 C11.52733235 10.65555119 11.52733235 10.65555119 14 11 C12.8125 12.5625 12.8125 12.5625 11 14 C6.36950776 13.87137522 2.74744001 11.52231539 -1 9 C-2.0625 7.0625 -2.0625 7.0625 -2 5 C-1.0625 2.25 -1.0625 2.25 0 0 Z " fill="#161F55" transform="translate(63,85)"/>
<path d="M0 0 C0.33 0 0.66 0 1 0 C0.38273804 5.67355671 -0.27945952 11.33861055 -1 17 C-1.33 16.34 -1.66 15.68 -2 15 C-2.99 15.495 -2.99 15.495 -4 16 C-6.3329866 16.04022391 -8.66706666 16.04320247 -11 16 C-8.92642516 10.93126149 -6.72763768 8.73152399 -2 6 C-5.465 4.02 -5.465 4.02 -9 2 C-7.68 1.67 -6.36 1.34 -5 1 C-5 1.66 -5 2.32 -5 3 C-3.68 3 -2.36 3 -1 3 C-0.67 2.01 -0.34 1.02 0 0 Z " fill="#0A4E91" transform="translate(74,34)"/>
<path d="M0 0 C0.66 0.33 1.32 0.66 2 1 C1.01 1.33 0.02 1.66 -1 2 C-0.86965506 3.87053397 -0.86965506 3.87053397 0 6 C1.2375 6.9590625 1.2375 6.9590625 2.5 7.9375 C5 10 5 10 5.8125 12.75 C5.874375 13.4925 5.93625 14.235 6 15 C2.98968256 15.93423645 2.13349732 16.04449911 -1 15 C-1.66 14.01 -2.32 13.02 -3 12 C-3.99 11.34 -4.98 10.68 -6 10 C-5.67 8.35 -5.34 6.7 -5 5 C-4.34 5 -3.68 5 -3 5 C-3 3.68 -3 2.36 -3 1 C-2.01 0.67 -1.02 0.34 0 0 Z " fill="#05175A" transform="translate(72,80)"/>
<path d="M0 0 C2.67578125 1.41015625 2.67578125 1.41015625 5.3125 3.0625 C6.19550781 3.61035156 7.07851562 4.15820312 7.98828125 4.72265625 C8.65214844 5.14417969 9.31601563 5.56570312 10 6 C9.01 6.99 8.02 7.98 7 9 C3.59687262 7.94124926 0.98646769 6.99097846 -2 5 C-5.12521833 4.83300768 -5.12521833 4.83300768 -8 5 C-8 4.34 -8 3.68 -8 3 C-9.32 3.33 -10.64 3.66 -12 4 C-8.17433174 -0.20823509 -5.57151016 -1.52390075 0 0 Z " fill="#3996D7" transform="translate(62,25)"/>
<path d="M0 0 C1.98567708 0.29296875 3.97135417 0.5859375 5.95703125 0.87890625 C8.2025342 1.13904799 8.2025342 1.13904799 11 0 C11.33 1.32 11.66 2.64 12 4 C12.66 4 13.32 4 14 4 C14 4.66 14 5.32 14 6 C6.63856502 9.47623318 6.63856502 9.47623318 2.62109375 8.30859375 C0.66026123 7.30186936 -1.18138022 6.24379718 -3 5 C0 4 0 4 3 5 C3 4.01 3 3.02 3 2 C2.01 2.33 1.02 2.66 0 3 C0 2.01 0 1.02 0 0 Z " fill="#0F77DE" transform="translate(52,65)"/>
<path d="M0 0 C4.95 1.98 4.95 1.98 10 4 C10 4.99 10 5.98 10 7 C6.35022743 9.90322818 4.74147821 11 0 11 C0 7.37 0 3.74 0 0 Z " fill="#501BA0" transform="translate(31,46)"/>
<path d="M0 0 C2.02350324 3.03525486 2.32124018 4.19426202 2.625 7.6875 C2.69976562 8.49574219 2.77453125 9.30398437 2.8515625 10.13671875 C2.92503906 11.05904297 2.92503906 11.05904297 3 12 C0.36 12 -2.28 12 -5 12 C-5 8.7 -5 5.4 -5 2 C-3.68 2.33 -2.36 2.66 -1 3 C-0.67 2.01 -0.34 1.02 0 0 Z " fill="#95628D" transform="translate(108,43)"/>
<path d="M0 0 C2 1 2 1 2.60522461 2.79199219 C2.99818173 4.98983028 3.20494255 7.098851 3.31640625 9.328125 C3.37924805 10.52695312 3.37924805 10.52695312 3.44335938 11.75 C3.48267578 12.575 3.52199219 13.4 3.5625 14.25 C3.60568359 15.09046875 3.64886719 15.9309375 3.69335938 16.796875 C3.79908543 18.86440671 3.90001295 20.93218281 4 23 C1.08482708 21.92598892 -0.77810176 21.22189824 -3 19 C-2.01 19 -1.02 19 0 19 C0 14.38 0 9.76 0 5 C-2.31 4.67 -4.62 4.34 -7 4 C-7 3.67 -7 3.34 -7 3 C-4.69 3 -2.38 3 0 3 C0 2.01 0 1.02 0 0 Z " fill="#9B4864" transform="translate(75,13)"/>
<path d="M0 0 C0.33 0.66 0.66 1.32 1 2 C0.67 2.99 0.34 3.98 0 5 C0.66 5 1.32 5 2 5 C2 4.34 2 3.68 2 3 C2.66 3 3.32 3 4 3 C4.33 2.01 4.66 1.02 5 0 C5 4 5 4 3.35546875 6.0703125 C2.28232422 7.08738281 2.28232422 7.08738281 1.1875 8.125 C0.47980469 8.80820313 -0.22789063 9.49140625 -0.95703125 10.1953125 C-3 12 -3 12 -6 14 C-8.1875 13.625 -8.1875 13.625 -10 13 C-9.4225 12.30132812 -8.845 11.60265625 -8.25 10.8828125 C-7.5075 9.97273438 -6.765 9.06265625 -6 8.125 C-5.2575 7.22007813 -4.515 6.31515625 -3.75 5.3828125 C-1.80268789 3.2240716 -1.80268789 3.2240716 -2 1 C-1.34 0.67 -0.68 0.34 0 0 Z " fill="#8F92BB" transform="translate(94,85)"/>
<path d="M0 0 C-0.31829828 3.11401817 -0.586051 4.60572213 -2.890625 6.80078125 C-3.66921875 7.29964844 -4.4478125 7.79851563 -5.25 8.3125 C-6.01828125 8.82425781 -6.7865625 9.33601563 -7.578125 9.86328125 C-10.26921997 11.12635969 -12.06368067 11.22386832 -15 11 C-15.33 10.34 -15.66 9.68 -16 9 C-15.34 9 -14.68 9 -14 9 C-13.67 8.01 -13.34 7.02 -13 6 C-10.56640625 4.39453125 -10.56640625 4.39453125 -7.5625 2.8125 C-6.07943359 2.01779297 -6.07943359 2.01779297 -4.56640625 1.20703125 C-2 0 -2 0 0 0 Z " fill="#010C3A" transform="translate(72,49)"/>
<path d="M0 0 C0.33 0.66 0.66 1.32 1 2 C2.2375 1.62875 2.2375 1.62875 3.5 1.25 C7.72163802 0.94845443 9.54819625 2.03745313 13.0703125 4.1875 C15.47897613 5.20167416 16.55270481 4.73114213 19 4 C19.66 4.33 20.32 4.66 21 5 C21 6.65 21 8.3 21 10 C18.525 9.505 18.525 9.505 16 9 C16 8.34 16 7.68 16 7 C15.071875 7.04125 14.14375 7.0825 13.1875 7.125 C10 7 10 7 7 5 C7 4.34 7 3.68 7 3 C2.545 3.495 2.545 3.495 -2 4 C-1.34 2.68 -0.68 1.36 0 0 Z " fill="#0870BF" transform="translate(53,28)"/>
<path d="M0 0 C0.33 0.66 0.66 1.32 1 2 C0.67 2.99 0.34 3.98 0 5 C0.66 5 1.32 5 2 5 C1 8 1 8 -2.375 9.6875 C-6 11 -6 11 -9 11 C-9.25 8.6875 -9.25 8.6875 -9 6 C-7.3125 4.375 -7.3125 4.375 -5 3 C-4.0925 2.443125 -3.185 1.88625 -2.25 1.3125 C-1.13625 0.6628125 -1.13625 0.6628125 0 0 Z " fill="#108FF0" transform="translate(72,59)"/>
<path d="M0 0 C5.41390868 0.46671627 9.20517932 1.24297811 14 4 C12.68 4.33 11.36 4.66 10 5 C10.33 5.99 10.66 6.98 11 8 C10.236875 7.690625 9.47375 7.38125 8.6875 7.0625 C6.81210323 6.32106407 4.91315348 5.63771783 3 5 C2.67 8.3 2.34 11.6 2 15 C1.67 15 1.34 15 1 15 C0.67 10.05 0.34 5.1 0 0 Z " fill="#CE9EAE" transform="translate(77,16)"/>
<path d="M0 0 C0.66 0.33 1.32 0.66 2 1 C1.67 1.66 1.34 2.32 1 3 C2.32 3.66 3.64 4.32 5 5 C4.34 5 3.68 5 3 5 C2.71125 5.928125 2.4225 6.85625 2.125 7.8125 C1 11 1 11 -1 14 C-1 15.32 -1 16.64 -1 18 C-1.99 18 -2.98 18 -4 18 C-4 17.01 -4 16.02 -4 15 C-4.99 14.67 -5.98 14.34 -7 14 C-6.566875 13.608125 -6.13375 13.21625 -5.6875 12.8125 C-2.02467374 8.87835328 -0.6184396 5.31858055 0 0 Z " fill="#AAACCD" transform="translate(57,88)"/>
<path d="M0 0 C4.75 1.875 4.75 1.875 7 3 C10.54171978 3.16669318 10.54171978 3.16669318 14 3 C14.33 2.67 14.66 2.34 15 2 C16.99958364 1.95919217 19.00045254 1.95745644 21 2 C16.07456104 5.7365399 13.40490431 7.73498902 7 7 C4.15225974 5.5711513 1.57424587 3.87217882 -1 2 C-0.67 1.34 -0.34 0.68 0 0 Z " fill="#043068" transform="translate(48,48)"/>
<path d="M0 0 C2.72077269 1.36038635 5.32112829 2.78499478 7.875 4.4375 C6.225 6.0875 4.575 7.7375 2.875 9.4375 C1.875 6.4375 1.875 6.4375 2.875 3.4375 C2.10414062 3.60507813 1.33328125 3.77265625 0.5390625 3.9453125 C-0.46382812 4.14898437 -1.46671875 4.35265625 -2.5 4.5625 C-3.49773437 4.77132812 -4.49546875 4.98015625 -5.5234375 5.1953125 C-6.38195312 5.27523437 -7.24046875 5.35515625 -8.125 5.4375 C-8.785 4.7775 -9.445 4.1175 -10.125 3.4375 C-4.00872093 -0.72156977 -4.00872093 -0.72156977 0 0 Z " fill="#5ABCDC" transform="translate(95.125,68.5625)"/>
<path d="M0 0 C1.98 0.66 3.96 1.32 6 2 C6 2.66 6 3.32 6 4 C6.598125 4.103125 7.19625 4.20625 7.8125 4.3125 C10.28243264 5.08876455 11.32251235 6.07088921 13 8 C12.67 8.99 12.34 9.98 12 11 C8.04 9.02 4.08 7.04 0 5 C0 3.35 0 1.7 0 0 Z " fill="#05164C" transform="translate(31,41)"/>
<path d="M0 0 C2.5 1.1875 2.5 1.1875 4.5 3.1875 C3.695625 3.579375 2.89125 3.97125 2.0625 4.375 C-0.73064738 5.95698191 -0.73064738 5.95698191 -1.3125 8.875 C-1.374375 9.638125 -1.43625 10.40125 -1.5 11.1875 C-3.5 10.1875 -3.5 10.1875 -4.6875 7.9375 C-5.5980982 4.85547534 -5.50918462 3.21505386 -4.5 0.1875 C-2.5 -0.8125 -2.5 -0.8125 0 0 Z " fill="#1794EF" transform="translate(43.5,52.8125)"/>
<path d="M0 0 C1.77074917 -0.02705729 3.54161711 -0.04642195 5.3125 -0.0625 C6.29863281 -0.07410156 7.28476563 -0.08570312 8.30078125 -0.09765625 C11 0 11 0 14 1 C14 1.99 14 2.98 14 4 C8.87080814 6.10428384 4.4389165 6.21755666 -1 6 C-1 5.34 -1 4.68 -1 4 C2.63 4 6.26 4 10 4 C10 3.34 10 2.68 10 2 C8.081875 2.061875 8.081875 2.061875 6.125 2.125 C3.9453125 2.1953125 3.9453125 2.1953125 2 2 C1.34 1.34 0.68 0.68 0 0 Z " fill="#7796D1" transform="translate(92,124)"/>
<path d="M0 0 C1.9375 0.375 1.9375 0.375 4 1 C5.40912096 3.81824192 5.11183553 6.17251282 5.09765625 9.3203125 C5.09443359 10.57714844 5.09121094 11.83398438 5.08789062 13.12890625 C5.07951172 14.44761719 5.07113281 15.76632813 5.0625 17.125 C5.05748489 18.46484211 5.05292201 19.804686 5.04882812 21.14453125 C5.03701086 24.42973206 5.02053617 27.71484397 5 31 C4.67 31 4.34 31 4 31 C4 28.03 4 25.06 4 22 C3.34 21.67 2.68 21.34 2 21 C2.33 16.71 2.66 12.42 3 8 C2.01 7.67 1.02 7.34 0 7 C0.99 7 1.98 7 3 7 C3 5.68 3 4.36 3 3 C2.34 3 1.68 3 1 3 C0.67 2.01 0.34 1.02 0 0 Z " fill="#979AC9" transform="translate(82,38)"/>
<path d="M0 0 C0.5534764 2.07553648 1 3.84365964 1 6 C0.01 6 -0.98 6 -2 6 C-2 6.66 -2 7.32 -2 8 C-6.38461538 11 -6.38461538 11 -9 11 C-9.36290323 6.52419355 -9.36290323 6.52419355 -7.875 4.375 C-5.40252881 2.56185446 -2.77304157 1.29408606 0 0 Z " fill="#102D73" transform="translate(84,41)"/>
<path d="M0 0 C0.33 0.66 0.66 1.32 1 2 C2.32 1.67 3.64 1.34 5 1 C3.66666667 5 2.33333333 9 1 13 C-1 10 -1 10 -1 7 C-1.33 7.66 -1.66 8.32 -2 9 C-2.66 9 -3.32 9 -4 9 C-3.46930939 5.17902761 -2.50298434 2.93828597 0 0 Z " fill="#B589A7" transform="translate(26,35)"/>
<path d="M0 0 C0.99 0.144375 1.98 0.28875 3 0.4375 C6.99409465 1.00925179 10.99532937 1.50819834 15 2 C15 2.66 15 3.32 15 4 C7.08 4.495 7.08 4.495 -1 5 C-0.67 3.35 -0.34 1.7 0 0 Z " fill="#416FCC" transform="translate(87,124)"/>
<path d="M0 0 C0 2.31 0 4.62 0 7 C-0.66 7 -1.32 7 -2 7 C-2.66 7.66 -3.32 8.32 -4 9 C-4.33 8.01 -4.66 7.02 -5 6 C-6.65 6 -8.3 6 -10 6 C-9.67 4.35 -9.34 2.7 -9 1 C-8.34 1.33 -7.68 1.66 -7 2 C-4 0 -4 0 0 0 Z " fill="#0E6FC5" transform="translate(87,73)"/>
<path d="M0 0 C0.33 0 0.66 0 1 0 C1.06058594 0.60328125 1.12117188 1.2065625 1.18359375 1.828125 C1.26738281 2.62734375 1.35117187 3.4265625 1.4375 4.25 C1.55931641 5.43335937 1.55931641 5.43335937 1.68359375 6.640625 C1.97634993 8.82364639 2.42064419 10.8773182 3 13 C2.01 13 1.02 13 0 13 C-0.33 14.65 -0.66 16.3 -1 18 C-0.34 18.33 0.32 18.66 1 19 C0.01 19 -0.98 19 -2 19 C-2.13277344 18.39671875 -2.26554687 17.7934375 -2.40234375 17.171875 C-2.57894531 16.37265625 -2.75554688 15.5734375 -2.9375 14.75 C-3.11152344 13.96109375 -3.28554688 13.1721875 -3.46484375 12.359375 C-3.947556 10.23121297 -4.46163178 8.11467158 -5 6 C-2.525 6.99 -2.525 6.99 0 8 C0 5.36 0 2.72 0 0 Z " fill="#BBAACB" transform="translate(27,63)"/>
<path d="M0 0 C5 2 5 2 7 4 C5.35 4.33 3.7 4.66 2 5 C1.67 5.99 1.34 6.98 1 8 C1.66 8 2.32 8 3 8 C3.33 9.32 3.66 10.64 4 12 C0.25 13.125 0.25 13.125 -2 12 C-1.34 8.04 -0.68 4.08 0 0 Z " fill="#10B0F3" transform="translate(74,52)"/>
<path d="M0 0 C3.875 2.625 3.875 2.625 5 6 C5.03954234 8.33299825 5.04401732 10.66708189 5 13 C4.67 13 4.34 13 4 13 C3.34 10.36 2.68 7.72 2 5 C1.67 5.66 1.34 6.32 1 7 C-0.32 6.67 -1.64 6.34 -3 6 C-3.33 7.32 -3.66 8.64 -4 10 C-4.33 7.03 -4.66 4.06 -5 1 C-3.02 1.99 -3.02 1.99 -1 3 C-0.67 2.01 -0.34 1.02 0 0 Z " fill="#AC7A9B" transform="translate(106,39)"/>
<path d="M0 0 C0.33 0.66 0.66 1.32 1 2 C1.99 2 2.98 2 4 2 C4 4.97 4 7.94 4 11 C2.02 11.99 2.02 11.99 0 13 C-0.19551338 11.39679026 -0.38111983 9.79237014 -0.5625 8.1875 C-0.71912109 6.84751953 -0.71912109 6.84751953 -0.87890625 5.48046875 C-1 3 -1 3 0 0 Z " fill="#7E4E85" transform="translate(21,51)"/>
<path d="M0 0 C2.375 0.1875 2.375 0.1875 5 1 C6.3125 3.5625 6.3125 3.5625 7 6 C3.535 7.485 3.535 7.485 0 9 C0 6.03 0 3.06 0 0 Z " fill="#216CAC" transform="translate(77,36)"/>
<path d="M0 0 C0.99 0 1.98 0 3 0 C3.25 7.625 3.25 7.625 1 11 C0.34 11 -0.32 11 -1 11 C-2.25 3.375 -2.25 3.375 0 0 Z " fill="#6988CA" transform="translate(22,120)"/>
<path d="M0 0 C4.23429756 1.31061591 8.07407404 2.94356259 12 5 C12 5.33 12 5.66 12 6 C10.35 6 8.7 6 7 6 C7 7.32 7 8.64 7 10 C1.25 8.25 1.25 8.25 -1 6 C0.98 5.67 2.96 5.34 5 5 C5 4.34 5 3.68 5 3 C3.68 3 2.36 3 1 3 C0.67 2.01 0.34 1.02 0 0 Z " fill="#91A4D2" transform="translate(70,115)"/>
<path d="M0 0 C2.1875 0.3125 2.1875 0.3125 4 1 C4.33 2.98 4.66 4.96 5 7 C5.99 7 6.98 7 8 7 C8 7.99 8 8.98 8 10 C4.2089881 8.55049545 0.6125362 6.84827434 -3 5 C-3 3 -3 3 -1.75 1.3125 C-1.1725 0.879375 -0.595 0.44625 0 0 Z " fill="#404D70" transform="translate(41,70)"/>
<path d="M0 0 C3.77545388 1.09068668 6.47043472 1.9083091 9 5 C8 6 8 6 5.93359375 6.09765625 C5.10988281 6.08605469 4.28617188 6.07445312 3.4375 6.0625 C2.61121094 6.05347656 1.78492188 6.04445313 0.93359375 6.03515625 C0.29550781 6.02355469 -0.34257813 6.01195312 -1 6 C-1.66 4.68 -2.32 3.36 -3 2 C-2.01 2 -1.02 2 0 2 C0 1.34 0 0.68 0 0 Z " fill="#032153" transform="translate(57,35)"/>
<path d="M0 0 C-0.4793247 4.31392226 -1.7457985 6.16569547 -5 9 C-5.33 8.01 -5.66 7.02 -6 6 C-7.65 6 -9.3 6 -11 6 C-3.8 0 -3.8 0 0 0 Z " fill="#014D88" transform="translate(85,60)"/>
<path d="M0 0 C0.375 2.75 0.375 2.75 0 6 C-3 8.375 -3 8.375 -6 10 C-6.33 8.02 -6.66 6.04 -7 4 C-1.125 0 -1.125 0 0 0 Z " fill="#07378E" transform="translate(69,55)"/>
<path d="M0 0 C1.65 0.33 3.3 0.66 5 1 C5.33 1.99 5.66 2.98 6 4 C6.99 4 7.98 4 9 4 C9 4.99 9 5.98 9 7 C7.35232753 6.71890887 5.70686855 6.42481474 4.0625 6.125 C3.14597656 5.96257812 2.22945312 5.80015625 1.28515625 5.6328125 C0.15400391 5.31957031 0.15400391 5.31957031 -1 5 C-1.33 4.34 -1.66 3.68 -2 3 C-1.34 3 -0.68 3 0 3 C0 2.01 0 1.02 0 0 Z " fill="#5D6CB4" transform="translate(44,99)"/>
<path d="M0 0 C2.475 0.99 2.475 0.99 5 2 C5 2.66 5 3.32 5 4 C5.95712891 4.27263672 5.95712891 4.27263672 6.93359375 4.55078125 C7.75988281 4.80214844 8.58617187 5.05351563 9.4375 5.3125 C10.26121094 5.55613281 11.08492187 5.79976562 11.93359375 6.05078125 C12.95646484 6.52064453 12.95646484 6.52064453 14 7 C14.33 7.99 14.66 8.98 15 10 C11.08406554 9.21681311 7.63593365 7.60820142 4 6 C4 5.34 4 4.68 4 4 C2.02 3.34 0.04 2.68 -2 2 C-1.34 1.34 -0.68 0.68 0 0 Z " fill="#063873" transform="translate(33,39)"/>
<path d="M0 0 C0.66 0.33 1.32 0.66 2 1 C-1.36621881 4.78699616 -5.41641804 7.8272631 -10 10 C-10.66 9.67 -11.32 9.34 -12 9 C-11.375 7.125 -11.375 7.125 -10 5 C-8.02253397 4.26919734 -6.01927511 3.60578253 -4 3 C-1.69833325 1.48446847 -1.69833325 1.48446847 0 0 Z " fill="#597194" transform="translate(89,86)"/>
<path d="M0 0 C4.8 3.32307692 4.8 3.32307692 5.8125 6.75 C5.874375 7.4925 5.93625 8.235 6 9 C2.62537285 8.45276317 0.91765 7.9451 -2 6 C-1.67 5.34 -1.34 4.68 -1 4 C-1.66 3.67 -2.32 3.34 -3 3 C-2.34 3 -1.68 3 -1 3 C-0.67 2.01 -0.34 1.02 0 0 Z " fill="#064196" transform="translate(77,79)"/>
<path d="M0 0 C0.33 1.65 0.66 3.3 1 5 C-2 7 -2 7 -4.1875 6.625 C-4.785625 6.41875 -5.38375 6.2125 -6 6 C-5.67 4.35 -5.34 2.7 -5 1 C-2 0 -2 0 0 0 Z " fill="#031F78" transform="translate(62,60)"/>
<path d="M0 0 C-0.99 1.32 -1.98 2.64 -3 4 C-3.66 3.67 -4.32 3.34 -5 3 C-4.67 2.34 -4.34 1.68 -4 1 C-4.66 1 -5.32 1 -6 1 C-6 2.65 -6 4.3 -6 6 C-8.31 5.67 -10.62 5.34 -13 5 C-9.11199743 0.70273401 -5.82693013 -1.8313209 0 0 Z " fill="#4A74A4" transform="translate(44,35)"/>
<path d="M0 0 C1.65 1.32 3.3 2.64 5 4 C3.92246689 6.15506622 2.72797075 7.34114808 1 9 C0.34 9.66 -0.32 10.32 -1 11 C-2.5625 8.625 -2.5625 8.625 -4 6 C-3.67 5.34 -3.34 4.68 -3 4 C-2.01 4 -1.02 4 0 4 C0 2.68 0 1.36 0 0 Z " fill="#B87F9B" transform="translate(99,27)"/>
<path d="M0 0 C4.5067218 -0.17673419 7.96625544 -0.13551182 12 2 C12.33 2.66 12.66 3.32 13 4 C11.68 4 10.36 4 9 4 C6.74934898 5.91666921 6.74934898 5.91666921 5 8 C5 7.34 5 6.68 5 6 C4.34 5.67 3.68 5.34 3 5 C3.66 4.01 4.32 3.02 5 2 C3.35 1.67 1.7 1.34 0 1 C0 0.67 0 0.34 0 0 Z " fill="#ACB7D7" transform="translate(41,108)"/>
<path d="M0 0 C0.66 0.33 1.32 0.66 2 1 C2 4.96 2 8.92 2 13 C1.34 13 0.68 13 0 13 C-0.12375 12.195625 -0.2475 11.39125 -0.375 10.5625 C-0.684375 9.2940625 -0.684375 9.2940625 -1 8 C-1.66 7.67 -2.32 7.34 -3 7 C-2.67 5.35 -2.34 3.7 -2 2 C-1.34 2 -0.68 2 0 2 C0 1.34 0 0.68 0 0 Z " fill="#998EB8" transform="translate(36,73)"/>
<path d="M0 0 C-1 3 -1 3 -2.9375 4.0625 C-3.618125 4.371875 -4.29875 4.68125 -5 5 C-5.66 5.66 -6.32 6.32 -7 7 C-9.125 6.625 -9.125 6.625 -11 6 C-11 5.34 -11 4.68 -11 4 C-4.5 0 -4.5 0 0 0 Z " fill="#000B36" transform="translate(55,35)"/>
<path d="M0 0 C1.4606285 2.64738916 2 3.89448334 2 7 C3.32 6.01 4.64 5.02 6 4 C6.33 4.99 6.66 5.98 7 7 C1.58461538 11.06153846 1.58461538 11.06153846 -1.375 10.75 C-1.91125 10.5025 -2.4475 10.255 -3 10 C-2.34 9.01 -1.68 8.02 -1 7 C-0.60612212 4.67612053 -0.26513915 2.34206251 0 0 Z " fill="#A5B8E1" transform="translate(19,124)"/>
<path d="M0 0 C4.75 0.75 4.75 0.75 7 3 C6.625 5.625 6.625 5.625 6 8 C5.67 7.34 5.34 6.68 5 6 C4.01 6 3.02 6 2 6 C1.34 4.02 0.68 2.04 0 0 Z " fill="#04113E" transform="translate(53,77)"/>
<path d="M0 0 C2.25 -0.3125 2.25 -0.3125 5 0 C7.53838677 2.60889751 8.84740317 4.54220951 10 8 C6.54074837 6.7508258 3.85306797 5.32472205 1 3 C1.33 2.34 1.66 1.68 2 1 C1.34 0.67 0.68 0.34 0 0 Z " fill="#4561C1" transform="translate(55,108)"/>
<path d="M0 0 C1.32 0.66 2.64 1.32 4 2 C0.11690718 5.64775386 -2.71201818 6.58525633 -8 7 C-7.34 6.67 -6.68 6.34 -6 6 C-6 5.34 -6 4.68 -6 4 C-4.03852126 2.61061923 -2.03833424 1.2739589 0 0 Z " fill="#ABAECC" transform="translate(83,97)"/>
<path d="M0 0 C4 0 4 0 5.625 1.4375 C6.07875 1.953125 6.5325 2.46875 7 3 C7.66 3.33 8.32 3.66 9 4 C8.67 4.66 8.34 5.32 8 6 C5.125 6.125 5.125 6.125 2 6 C1.34 5.34 0.68 4.68 0 4 C0 2.68 0 1.36 0 0 Z " fill="#6B6FB3" transform="translate(31,92)"/>
<path d="M0 0 C0.33 0.66 0.66 1.32 1 2 C0.67 2.99 0.34 3.98 0 5 C0.66 5 1.32 5 2 5 C2 4.34 2 3.68 2 3 C2.66 3 3.32 3 4 3 C4.33 2.01 4.66 1.02 5 0 C5 4 5 4 3.6875 5.484375 C2.125 6.65625 0.5625 7.828125 -1 9 C-1 8.01 -1 7.02 -1 6 C-1.66 6 -2.32 6 -3 6 C-2.625 3.5625 -2.625 3.5625 -2 1 C-1.34 0.67 -0.68 0.34 0 0 Z " fill="#A5A6CB" transform="translate(94,85)"/>
<path d="M0 0 C0.33 0 0.66 0 1 0 C0.88541307 1.43836751 0.75790884 2.87570966 0.625 4.3125 C0.55539063 5.11300781 0.48578125 5.91351563 0.4140625 6.73828125 C0 9 0 9 -2 12 C-2.66 11.67 -3.32 11.34 -4 11 C-3.34 9.35 -2.68 7.7 -2 6 C-5.465 4.02 -5.465 4.02 -9 2 C-7.68 1.67 -6.36 1.34 -5 1 C-5 1.66 -5 2.32 -5 3 C-3.68 3 -2.36 3 -1 3 C-0.67 2.01 -0.34 1.02 0 0 Z " fill="#165BA1" transform="translate(74,34)"/>
<path d="M0 0 C3 2.0625 3 2.0625 5 4 C2.48599688 3.49719938 -0.01219309 2.99695173 -2.5 2.375 C-5.27177336 1.959234 -7.30236005 2.30632116 -10 3 C-10 2.01 -10 1.02 -10 0 C-6.74422601 -1.627887 -3.41194178 -0.87418776 0 0 Z " fill="#00145F" transform="translate(55,57)"/>
<path d="M0 0 C0.7734375 0.61875 0.7734375 0.61875 1.5625 1.25 C-1.29056797 3.57472205 -3.97824837 5.0008258 -7.4375 6.25 C-7.4375 5.59 -7.4375 4.93 -7.4375 4.25 C-8.0975 3.92 -8.7575 3.59 -9.4375 3.25 C-3.0375 -0.93461538 -3.0375 -0.93461538 0 0 Z " fill="#D4B3C0" transform="translate(47.4375,19.75)"/>
<path d="M0 0 C1.32 0 2.64 0 4 0 C4.33 2.64 4.66 5.28 5 8 C3.68 8.33 2.36 8.66 1 9 C0.08941469 5.92677456 -0.08886184 3.19902639 0 0 Z " fill="#0566C7" transform="translate(84,79)"/>
<path d="M0 0 C1.32 0 2.64 0 4 0 C4.33 1.65 4.66 3.3 5 5 C2.03 7.475 2.03 7.475 -1 10 C-1 8.35 -1 6.7 -1 5 C-0.34 5 0.32 5 1 5 C0.67 3.35 0.34 1.7 0 0 Z " fill="#99A9CA" transform="translate(103,74)"/>
<path d="M0 0 C0.66 0.33 1.32 0.66 2 1 C2 1.66 2 2.32 2 3 C3.32 3 4.64 3 6 3 C6 3.66 6 4.32 6 5 C4.02 5.33 2.04 5.66 0 6 C-0.33 5.01 -0.66 4.02 -1 3 C-1.66 3 -2.32 3 -3 3 C-3 2.34 -3 1.68 -3 1 C-2.01 0.67 -1.02 0.34 0 0 Z " fill="#3B63C1" transform="translate(69,115)"/>
<path d="M0 0 C0.99 0.33 1.98 0.66 3 1 C3 3.97 3 6.94 3 10 C2.01 10 1.02 10 0 10 C0 6.7 0 3.4 0 0 Z " fill="#AFB8D3" transform="translate(108,111)"/>
<path d="M0 0 C1.4540625 0.0309375 1.4540625 0.0309375 2.9375 0.0625 C0.9575 1.0525 0.9575 1.0525 -1.0625 2.0625 C-0.0725 2.7225 0.9175 3.3825 1.9375 4.0625 C0.2875 4.0625 -1.3625 4.0625 -3.0625 4.0625 C-3.3925 6.0425 -3.7225 8.0225 -4.0625 10.0625 C-5.1875 8.375 -5.1875 8.375 -6.0625 6.0625 C-4.25590974 0.0868553 -4.25590974 0.0868553 0 0 Z " fill="#BBB9D0" transform="translate(17.0625,83.9375)"/>
<path d="M0 0 C1.32 0.33 2.64 0.66 4 1 C4 3.31 4 5.62 4 8 C2.35 7.67 0.7 7.34 -1 7 C-1.33 5.35 -1.66 3.7 -2 2 C-1.34 2 -0.68 2 0 2 C0 1.34 0 0.68 0 0 Z " fill="#10CFEF" transform="translate(94,71)"/>
<path d="M0 0 C-0.1875 2.3125 -0.1875 2.3125 -1 5 C-3.5625 6.8125 -3.5625 6.8125 -6 8 C-6.33 6.35 -6.66 4.7 -7 3 C-2.25 0 -2.25 0 0 0 Z " fill="#041649" transform="translate(72,49)"/>
<path d="M0 0 C7.425 0.99 7.425 0.99 15 2 C12.49811382 4.50188618 11.53279727 4.84640012 8 5 C5.19924816 3.89320939 2.6047816 2.50599035 0 1 C0 0.67 0 0.34 0 0 Z " fill="#2060BA" transform="translate(49,69)"/>
<path d="M0 0 C1.65 1.32 3.3 2.64 5 4 C4.01 4 3.02 4 2 4 C1.67 5.32 1.34 6.64 1 8 C-1.475 7.01 -1.475 7.01 -4 6 C-3.67 4.68 -3.34 3.36 -3 2 C-2.67 2.99 -2.34 3.98 -2 5 C-1.34 3.35 -0.68 1.7 0 0 Z " fill="#0E77D7" transform="translate(43,58)"/>
<path d="M0 0 C2.31 0.66 4.62 1.32 7 2 C5.8125 3.5625 5.8125 3.5625 4 5 C0.98928361 4.84946418 -0.52068815 4.41319987 -2.8125 2.4375 C-3.204375 1.963125 -3.59625 1.48875 -4 1 C-2.68 1.33 -1.36 1.66 0 2 C0 1.34 0 0.68 0 0 Z " fill="#666B85" transform="translate(70,94)"/>
<path d="M0 0 C3.35369486 0.59887408 5.46118772 1.72382347 8 4 C8.33 4.99 8.66 5.98 9 7 C5.33535945 6.5047783 3.29167646 5.9791794 1 3 C0.67 2.01 0.34 1.02 0 0 Z " fill="#04206C" transform="translate(69,86)"/>
<path d="M0 0 C-0.7734375 0.37125 -0.7734375 0.37125 -1.5625 0.75 C-3.90843581 1.90822931 -3.90843581 1.90822931 -5.68359375 3.05859375 C-10.5441464 6.07945336 -10.5441464 6.07945336 -13.21875 5.61328125 C-13.8065625 5.41089844 -14.394375 5.20851563 -15 5 C-13.44424022 4.15415002 -11.8800388 3.32381601 -10.3125 2.5 C-9.44238281 2.0359375 -8.57226562 1.571875 -7.67578125 1.09375 C-4.88211171 -0.04818792 -2.98370887 -0.21504208 0 0 Z " fill="#0C5AA2" transform="translate(60,31)"/>
<path d="M0 0 C-3.82517513 2.39073445 -7.59665524 2.55966552 -12 3 C-11.67 2.01 -11.34 1.02 -11 0 C-6.94952424 -1.35015859 -4.2079832 -0.62084998 0 0 Z " fill="#C494A1" transform="translate(58,18)"/>
<path d="M0 0 C1.32 0.33 2.64 0.66 4 1 C5.125 4.75 5.125 4.75 4 7 C3.01 7 2.02 7 1 7 C0.67 4.69 0.34 2.38 0 0 Z " fill="#CC8E9D" transform="translate(71,4)"/>
<path d="M0 0 C0.66 0.33 1.32 0.66 2 1 C2.67375452 3.088639 3 4.80363095 3 7 C4.32 7.33 5.64 7.66 7 8 C5.02 8.99 5.02 8.99 3 10 C1.68 9.01 0.36 8.02 -1 7 C-0.34 7 0.32 7 1 7 C0.4740625 5.824375 0.4740625 5.824375 -0.0625 4.625 C-0.371875 3.75875 -0.68125 2.8925 -1 2 C-0.67 1.34 -0.34 0.68 0 0 Z " fill="#098EDB" transform="translate(87,74)"/>
<path d="M0 0 C1.32 0.33 2.64 0.66 4 1 C4 2.32 4 3.64 4 5 C2 6.75 2 6.75 0 8 C-0.66 7.67 -1.32 7.34 -2 7 C-1.34 4.69 -0.68 2.38 0 0 Z " fill="#456AAA" transform="translate(70,54)"/>
<path d="M0 0 C0.33 0 0.66 0 1 0 C1 3.96 1 7.92 1 12 C1.66 12 2.32 12 3 12 C3.33 13.32 3.66 14.64 4 16 C1.08482708 14.92598892 -0.77810176 14.22189824 -3 12 C-2.01 12 -1.02 12 0 12 C0 8.04 0 4.08 0 0 Z " fill="#D0B9CA" transform="translate(75,20)"/>
<path d="M0 0 C1.98 0 3.96 0 6 0 C6.33 0.66 6.66 1.32 7 2 C6.01 2 5.02 2 4 2 C4 2.99 4 3.98 4 5 C4.66 5.33 5.32 5.66 6 6 C5.01 6 4.02 6 3 6 C0 2.66666667 0 2.66666667 0 0 Z " fill="#B9768F" transform="translate(87,21)"/>
<path d="M0 0 C2.475 0.99 2.475 0.99 5 2 C5 2.66 5 3.32 5 4 C5.66 4.33 6.32 4.66 7 5 C4.25 5.25 4.25 5.25 1 5 C-1.375 3 -1.375 3 -3 1 C-2.01 1 -1.02 1 0 1 C0 0.67 0 0.34 0 0 Z " fill="#A0A7CA" transform="translate(21,99)"/>
<path d="M0 0 C0 1.66666667 0 3.33333333 0 5 C-1.98 5.66 -3.96 6.32 -6 7 C-5.67 6.01 -5.34 5.02 -5 4 C-5.66 3.67 -6.32 3.34 -7 3 C-4.69 2.01 -2.38 1.02 0 0 Z " fill="#3786C0" transform="translate(52,28)"/>
<path d="M0 0 C0.33 0.66 0.66 1.32 1 2 C-0.32 3.65 -1.64 5.3 -3 7 C-4.32 6.67 -5.64 6.34 -7 6 C-3.375 1.125 -3.375 1.125 0 0 Z " fill="#AC728A" transform="translate(40,23)"/>
<path d="M0 0 C2.97 0.495 2.97 0.495 6 1 C6 2.32 6 3.64 6 5 C4.35 5 2.7 5 1 5 C0.67 3.35 0.34 1.7 0 0 Z " fill="#3965C4" transform="translate(76,120)"/>
<path d="M0 0 C0.66 0.33 1.32 0.66 2 1 C1 4 1 4 0 6 C-0.66 6 -1.32 6 -2 6 C-2 6.66 -2 7.32 -2 8 C-2.66 8 -3.32 8 -4 8 C-3.50168276 4.31245243 -2.89932357 2.39509338 0 0 Z " fill="#5B5AA5" transform="translate(98,82)"/>
<path d="M0 0 C0.33 0.66 0.66 1.32 1 2 C1.66 2 2.32 2 3 2 C3.33 3.32 3.66 4.64 4 6 C2.35 6.33 0.7 6.66 -1 7 C-0.67 4.69 -0.34 2.38 0 0 Z " fill="#8C71AB" transform="translate(27,74)"/>
<path d="M0 0 C0.33 0.66 0.66 1.32 1 2 C0.67 2.99 0.34 3.98 0 5 C0.66 5 1.32 5 2 5 C1.67 5.99 1.34 6.98 1 8 C0.01 8 -0.98 8 -2 8 C-2 6.68 -2 5.36 -2 4 C-2.99 3.67 -3.98 3.34 -5 3 C-3.35 2.01 -1.7 1.02 0 0 Z " fill="#1894E5" transform="translate(72,59)"/>
<path d="M0 0 C1.9375 0.375 1.9375 0.375 4 1 C5.35439668 3.70879335 5.06501451 6.00933268 5 9 C3.35 8.67 1.7 8.34 0 8 C0.99 7.67 1.98 7.34 3 7 C3 5.68 3 4.36 3 3 C2.34 3 1.68 3 1 3 C0.67 2.01 0.34 1.02 0 0 Z " fill="#7591B3" transform="translate(82,38)"/>
<path d="M0 0 C0.66 0.33 1.32 0.66 2 1 C0.35 2.65 -1.3 4.3 -3 6 C-3.99 5.67 -4.98 5.34 -6 5 C-5.34 3.68 -4.68 2.36 -4 1 C-3.01 1 -2.02 1 -1 1 C-0.67 0.67 -0.34 0.34 0 0 Z " fill="#5A81AF" transform="translate(83,73)"/>
<path d="M0 0 C2.02045442 0.60183749 4.02111039 1.27306096 6 2 C6.33 2.66 6.66 3.32 7 4 C5.35 5.32 3.7 6.64 2 8 C1 5 1 5 2 2 C1.34 2 0.68 2 0 2 C0 1.34 0 0.68 0 0 Z " fill="#66D5E8" transform="translate(96,70)"/>
<path d="M0 0 C0.33 1.65 0.66 3.3 1 5 C-4.75 3.25 -4.75 3.25 -7 1 C-4.50935112 0.31292445 -2.62113708 0 0 0 Z " fill="#819BD3" transform="translate(76,120)"/>
<path d="M0 0 C0.66 0 1.32 0 2 0 C2 0.66 2 1.32 2 2 C2.66 2.33 3.32 2.66 4 3 C3.34 4.65 2.68 6.3 2 8 C1.01 7.67 0.02 7.34 -1 7 C-0.67 4.69 -0.34 2.38 0 0 Z " fill="#7B7AAB" transform="translate(59,84)"/>
<path d="M0 0 C3.125 -0.1875 3.125 -0.1875 6 0 C6 0.66 6 1.32 6 2 C5.01 2 4.02 2 3 2 C3 2.66 3 3.32 3 4 C1.35 3.67 -0.3 3.34 -2 3 C-1.34 2.01 -0.68 1.02 0 0 Z " fill="#070E41" transform="translate(71,75)"/>
<path d="M0 0 C0.99 0 1.98 0 3 0 C2.75 1.875 2.75 1.875 2 4 C-0.0625 5.25 -0.0625 5.25 -2 6 C-1.125 1.125 -1.125 1.125 0 0 Z " fill="#889AC8" transform="translate(43,114)"/>
<path d="M0 0 C2.475 0.495 2.475 0.495 5 1 C5.33 1.99 5.66 2.98 6 4 C4.35 4.33 2.7 4.66 1 5 C0.67 3.35 0.34 1.7 0 0 Z " fill="#0EB5E9" transform="translate(88,73)"/>
<path d="M0 0 C-0.33 0.99 -0.66 1.98 -1 3 C-3.0625 3.6875 -3.0625 3.6875 -5 4 C-5 3.34 -5 2.68 -5 2 C-6.32 2 -7.64 2 -9 2 C-9 1.34 -9 0.68 -9 0 C-2.25 -1.125 -2.25 -1.125 0 0 Z " fill="#2D3A77" transform="translate(68,73)"/>
<path d="M0 0 C0.33 0 0.66 0 1 0 C1 3.3 1 6.6 1 10 C0.01 9.67 -0.98 9.34 -2 9 C-1.51421457 5.87709365 -1.0013988 3.00419641 0 0 Z " fill="#173C64" transform="translate(85,60)"/>
<path d="M0 0 C2.91517292 1.07401108 4.77810176 1.77810176 7 4 C4.69 4.66 2.38 5.32 0 6 C0 4.02 0 2.04 0 0 Z " fill="#35B8EE" transform="translate(74,52)"/>
<path d="M0 0 C3.41021743 0.78697325 6.68885166 1.87119943 10 3 C9.67 3.99 9.34 4.98 9 6 C7.68 5.67 6.36 5.34 5 5 C5 4.34 5 3.68 5 3 C2.525 2.01 2.525 2.01 0 1 C0 0.67 0 0.34 0 0 Z " fill="#031F52" transform="translate(49,52)"/>
<path d="M0 0 C2 0 2 0 3.5 1.375 C3.995 1.91125 4.49 2.4475 5 3 C5.66 3.66 6.32 4.32 7 5 C0.25 4.25 0.25 4.25 -2 2 C-1.34 1.34 -0.68 0.68 0 0 Z " fill="#07417E" transform="translate(42,39)"/>
<path d="M0 0 C1.32 0.33 2.64 0.66 4 1 C4 1.99 4 2.98 4 4 C1.69 4 -0.62 4 -3 4 C-3 3.34 -3 2.68 -3 2 C-2.01 2 -1.02 2 0 2 C0 1.34 0 0.68 0 0 Z " fill="#04295D" transform="translate(57,35)"/>
<path d="M0 0 C2.31 0 4.62 0 7 0 C7 0.99 7 1.98 7 3 C4.36 2.67 1.72 2.34 -1 2 C-0.67 1.34 -0.34 0.68 0 0 Z " fill="#746AAA" transform="translate(16,85)"/>
<path d="M0 0 C0.66 1.32 1.32 2.64 2 4 C2.99 4 3.98 4 5 4 C5.33 4.99 5.66 5.98 6 7 C3.0280615 5.87548273 0.66559313 4.77706209 -2 3 C-2 2.34 -2 1.68 -2 1 C-1.34 0.67 -0.68 0.34 0 0 Z " fill="#6E7388" transform="translate(53,79)"/>
<path d="M0 0 C0.66 0 1.32 0 2 0 C1.67 2.31 1.34 4.62 1 7 C-0.32 6.67 -1.64 6.34 -3 6 C-1.125 1.125 -1.125 1.125 0 0 Z " fill="#1B3F73" transform="translate(72,68)"/>
<path d="M0 0 C0.66 0 1.32 0 2 0 C2.33 1.98 2.66 3.96 3 6 C0.525 5.01 0.525 5.01 -2 4 C-1.34 2.68 -0.68 1.36 0 0 Z " fill="#775297" transform="translate(24,65)"/>
<path d="M0 0 C0.33 0 0.66 0 1 0 C1 1.98 1 3.96 1 6 C0.67 5.34 0.34 4.68 0 4 C-1.98 4.33 -3.96 4.66 -6 5 C-5.34 4.01 -4.68 3.02 -4 2 C-2.68 2 -1.36 2 0 2 C0 1.34 0 0.68 0 0 Z " fill="#0F407C" transform="translate(72,45)"/>
<path d="M0 0 C0.33 0.66 0.66 1.32 1 2 C1.99 2 2.98 2 4 2 C3.67 3.65 3.34 5.3 3 7 C2.34 7 1.68 7 1 7 C0.67 4.69 0.34 2.38 0 0 Z " fill="#3565BF" transform="translate(20,124)"/>
<path d="M0 0 C1.65 0.33 3.3 0.66 5 1 C3.02 1.99 3.02 1.99 1 3 C1 3.99 1 4.98 1 6 C-0.65 5.67 -2.3 5.34 -4 5 C-2.68 4.67 -1.36 4.34 0 4 C0 2.68 0 1.36 0 0 Z " fill="#849ED6" transform="translate(82,121)"/>
<path d="M0 0 C0.66 0 1.32 0 2 0 C2 0.66 2 1.32 2 2 C3.29233607 3.37310707 4.62437146 4.71034824 6 6 C1.25 5.25 1.25 5.25 -1 3 C-0.67 2.01 -0.34 1.02 0 0 Z " fill="#6E81C5" transform="translate(55,109)"/>
<path d="M0 0 C0.99 0.33 1.98 0.66 3 1 C2 4 2 4 -0.0625 5.1875 C-0.701875 5.455625 -1.34125 5.72375 -2 6 C-2.33 4.68 -2.66 3.36 -3 2 C-2.01 1.34 -1.02 0.68 0 0 Z " fill="#13508F" transform="translate(81,63)"/>
<path d="M0 0 C0 0.99 0 1.98 0 3 C-1.98 3.66 -3.96 4.32 -6 5 C-6.33 4.01 -6.66 3.02 -7 2 C-2.25 0 -2.25 0 0 0 Z " fill="#4463C2" transform="translate(38,55)"/>
<path d="M0 0 C0.66 0 1.32 0 2 0 C3.0326802 2.78823655 3.04509293 3.8677274 2.0625 6.75 C1.711875 7.4925 1.36125 8.235 1 9 C0.67 9 0.34 9 0 9 C0 6.03 0 3.06 0 0 Z " fill="#620BAA" transform="translate(32,48)"/>
<path d="M0 0 C2.6875 0.3125 2.6875 0.3125 5 1 C4.01 2.32 3.02 3.64 2 5 C1.34 4.67 0.68 4.34 0 4 C0.33 3.34 0.66 2.68 1 2 C-0.32 2.33 -1.64 2.66 -3 3 C-1.8125 1.4375 -1.8125 1.4375 0 0 Z " fill="#5086B2" transform="translate(39,34)"/>
<path d="M0 0 C1.98 0 3.96 0 6 0 C6.33 0.66 6.66 1.32 7 2 C4.69 2.33 2.38 2.66 0 3 C0 2.01 0 1.02 0 0 Z " fill="#083885" transform="translate(79,88)"/>
<path d="M0 0 C1.32 0.66 2.64 1.32 4 2 C3.67 2.99 3.34 3.98 3 5 C1.68 4.67 0.36 4.34 -1 4 C-0.67 2.68 -0.34 1.36 0 0 Z " fill="#565093" transform="translate(55,73)"/>
<path d="M0 0 C1.32 0.33 2.64 0.66 4 1 C4 2.32 4 3.64 4 5 C2.68 5 1.36 5 0 5 C0 3.35 0 1.7 0 0 Z " fill="#088EF5" transform="translate(44,61)"/>
<path d="M0 0 C-0.99 1.485 -0.99 1.485 -2 3 C-3.32 3 -4.64 3 -6 3 C-6.66 2.34 -7.32 1.68 -8 1 C-4.93251126 -0.86240388 -3.40254489 -1.2151946 0 0 Z " fill="#0B388D" transform="translate(54,59)"/>
<path d="M0 0 C0.99 0.33 1.98 0.66 3 1 C2.67 2.65 2.34 4.3 2 6 C1.67 5.34 1.34 4.68 1 4 C0.34 4 -0.32 4 -1 4 C-0.67 2.68 -0.34 1.36 0 0 Z " fill="#9A4476" transform="translate(103,37)"/>
<path d="M0 0 C3.45925163 1.2491742 6.14693203 2.67527795 9 5 C6.75 5.25 6.75 5.25 4 5 C1.6875 3.0625 1.6875 3.0625 0 1 C0 0.67 0 0.34 0 0 Z " fill="#79B2DB" transform="translate(63,27)"/>
</svg>
